URWPalladioL-Ital.ufo
<glyph name="exclam" format="1">
  <advance width="333"/>
  <unicode hex="0021"/>
  <outline>
    <contour>
      <point x="136" y="109" type="curve" smooth="yes"/>
      <point x="103" y="109"/>
      <point x="76" y="77"/>
      <point x="76" y="39" type="curve" smooth="yes"/>
      <point x="76" y="10"/>
      <point x="93" y="-8"/>
      <point x="120" y="-8" type="curve" smooth="yes"/>
      <point x="153" y="-8"/>
      <point x="181" y="24"/>
      <point x="181" y="61" type="curve" smooth="yes"/>
      <point x="181" y="88"/>
      <point x="161" y="109"/>
    </contour>
    <contour>
      <point x="196" y="707" type="line"/>
      <point x="189" y="636" type="line" smooth="yes"/>
      <point x="181" y="560"/>
      <point x="163" y="414"/>
      <point x="154" y="348" type="curve" smooth="yes"/>
      <point x="133" y="194" type="line"/>
      <point x="139" y="191" type="line"/>
      <point x="169" y="208" type="line"/>
      <point x="231" y="484"/>
      <point x="245" y="543"/>
      <point x="292" y="724" type="curve"/>
      <point x="281" y="733" type="line"/>
    </contour>
  </outline>
</glyph>
<glyph name="numbersign" format="1">
  <advance width="500"/>
  <unicode hex="0023"/>
  <outline>
    <contour>
      <point x="470" y="283" type="line"/>
      <point x="370" y="283" type="line"/>
      <point x="390" y="423" type="line"/>
      <point x="495" y="423" type="line"/>
      <point x="495" y="479" type="line"/>
      <point x="398" y="479" type="line"/>
      <point x="428" y="692" type="line"/>
      <point x="370" y="692" type="line"/>
      <point x="340" y="479" type="line"/>
      <point x="207" y="479" type="line"/>
      <point x="238" y="692" type="line"/>
      <point x="180" y="692" type="line"/>
      <point x="149" y="479" type="line"/>
      <point x="31" y="479" type="line"/>
      <point x="31" y="423" type="line"/>
      <point x="141" y="423" type="line"/>
      <point x="120" y="283" type="line"/>
      <point x="4" y="283" type="line"/>
      <point x="4" y="227" type="line"/>
      <point x="111" y="227" type="line"/>
      <point x="78" y="0" type="line"/>
      <point x="136" y="0" type="line"/>
      <point x="169" y="227" type="line"/>
      <point x="303" y="227" type="line"/>
      <point x="272" y="0" type="line"/>
      <point x="330" y="0" type="line"/>
      <point x="361" y="227" type="line"/>
      <point x="470" y="227" type="line"/>
    </contour>
    <contour>
      <point x="332" y="423" type="line"/>
      <point x="312" y="283" type="line"/>
      <point x="178" y="283" type="line"/>
      <point x="199" y="423" type="line"/>
    </contour>
  </outline>
</glyph>
<glyph name="dollar" format="1">
  <advance width="500"/>
  <unicode hex="0024"/>
  <outline>
    <contour>
      <point x="289" y="733" type="line"/>
      <point x="280" y="671" type="line"/>
      <point x="215" y="653"/>
      <point x="187" y="640"/>
      <point x="154" y="613" type="curve" smooth="yes"/>
      <point x="100" y="570"/>
      <point x="72" y="513"/>
      <point x="72" y="449" type="curve" smooth="yes"/>
      <point x="72" y="368"/>
      <point x="112" y="329"/>
      <point x="222" y="305" type="curve"/>
      <point x="178" y="32" type="line"/>
      <point x="119" y="42"/>
      <point x="87" y="57"/>
      <point x="63" y="85" type="curve"/>
      <point x="63" y="175" type="line"/>
      <point x="37" y="175" type="line"/>
      <point x="30" y="104"/>
      <point x="24" y="68"/>
      <point x="15" y="30" type="curve"/>
      <point x="43" y="8"/>
      <point x="79" y="-2"/>
      <point x="170" y="-12" type="curve"/>
      <point x="150" y="-113" type="line"/>
      <point x="191" y="-113" type="line"/>
      <point x="205" y="-11" type="line"/>
      <point x="258" y="-3"/>
      <point x="286" y="8"/>
      <point x="324" y="34" type="curve" smooth="yes"/>
      <point x="394" y="82"/>
      <point x="434" y="152"/>
      <point x="434" y="224" type="curve" smooth="yes"/>
      <point x="434" y="268"/>
      <point x="419" y="303"/>
      <point x="391" y="326" type="curve" smooth="yes"/>
      <point x="364" y="349"/>
      <point x="334" y="360"/>
      <point x="267" y="371" type="curve"/>
      <point x="308" y="628" type="line"/>
      <point x="346" y="624"/>
      <point x="383" y="608"/>
      <point x="403" y="586" type="curve"/>
      <point x="403" y="514" type="line"/>
      <point x="427" y="514" type="line"/>
      <point x="433" y="552"/>
      <point x="442" y="592"/>
      <point x="452" y="629" type="curve"/>
      <point x="450" y="639" type="line"/>
      <point x="413" y="663"/>
      <point x="374" y="672"/>
      <point x="316" y="673" type="curve"/>
      <point x="326" y="733" type="line"/>
    </contour>
    <contour>
      <point x="255" y="301" type="line"/>
      <point x="334" y="282"/>
      <point x="360" y="255"/>
      <point x="360" y="193" type="curve" smooth="yes"/>
      <point x="360" y="140"/>
      <point x="335" y="90"/>
      <point x="294" y="59" type="curve" smooth="yes"/>
      <point x="268" y="41"/>
      <point x="248" y="34"/>
      <point x="212" y="32" type="curve"/>
    </contour>
    <contour>
      <point x="234" y="377" type="line"/>
      <point x="166" y="396"/>
      <point x="139" y="425"/>
      <point x="139" y="480" type="curve" smooth="yes"/>
      <point x="139" y="530"/>
      <point x="163" y="579"/>
      <point x="200" y="605" type="curve" smooth="yes"/>
      <point x="223" y="622"/>
      <point x="241" y="627"/>
      <point x="274" y="628" type="curve"/>
    </contour>
  </outline>
</glyph>
<glyph name="percent" format="1">
  <advance width="889"/>
  <unicode hex="0025"/>
  <outline>
    <contour>
      <point x="254" y="699" type="curve" smooth="yes"/>
      <point x="159" y="699"/>
      <point x="74" y="616"/>
      <point x="74" y="522" type="curve" smooth="yes"/>
      <point x="74" y="440"/>
      <point x="134" y="379"/>
      <point x="215" y="379" type="curve" smooth="yes"/>
      <point x="311" y="379"/>
      <point x="386" y="459"/>
      <point x="386" y="562" type="curve" smooth="yes"/>
      <point x="386" y="641"/>
      <point x="330" y="699"/>
    </contour>
    <contour>
      <point x="254" y="676" type="curve" smooth="yes"/>
      <point x="296" y="676"/>
      <point x="320" y="644"/>
      <point x="320" y="589" type="curve" smooth="yes"/>
      <point x="320" y="542"/>
      <point x="307" y="487"/>
      <point x="288" y="453" type="curve" smooth="yes"/>
      <point x="268" y="419"/>
      <point x="243" y="402"/>
      <point x="214" y="402" type="curve" smooth="yes"/>
      <point x="171" y="402"/>
      <point x="144" y="439"/>
      <point x="144" y="499" type="curve" smooth="yes"/>
      <point x="144" y="599"/>
      <point x="192" y="676"/>
    </contour>
    <contour>
      <point x="677" y="320" type="curve" smooth="yes"/>
      <point x="582" y="320"/>
      <point x="497" y="237"/>
      <point x="497" y="143" type="curve" smooth="yes"/>
      <point x="497" y="61"/>
      <point x="557" y="0"/>
      <point x="638" y="0" type="curve" smooth="yes"/>
      <point x="734" y="0"/>
      <point x="809" y="80"/>
      <point x="809" y="183" type="curve" smooth="yes"/>
      <point x="809" y="262"/>
      <point x="753" y="320"/>
    </contour>
    <contour>
      <point x="677" y="297" type="curve" smooth="yes"/>
      <point x="719" y="297"/>
      <point x="743" y="265"/>
      <point x="743" y="210" type="curve" smooth="yes"/>
      <point x="743" y="163"/>
      <point x="730" y="108"/>
      <point x="711" y="74" type="curve" smooth="yes"/>
      <point x="691" y="40"/>
      <point x="666" y="23"/>
      <point x="637" y="23" type="curve" smooth="yes"/>
      <point x="594" y="23"/>
      <point x="567" y="60"/>
      <point x="567" y="120" type="curve" smooth="yes"/>
      <point x="567" y="220"/>
      <point x="615" y="297"/>
    </contour>
    <contour>
      <point x="247" y="-7" type="line"/>
      <point x="674" y="710" type="line"/>
      <point x="630" y="710" type="line"/>
      <point x="206" y="-7" type="line"/>
    </contour>
  </outline>
</glyph>
<glyph name="ampersand" format="1">
  <advance width="778"/>
  <unicode hex="0026"/>
  <outline>
    <contour>
      <point x="488" y="548" type="line"/>
      <point x="514" y="667" type="line"/>
      <point x="482" y="684"/>
      <point x="453" y="692"/>
      <point x="417" y="692" type="curve" smooth="yes"/>
      <point x="388" y="692"/>
      <point x="362" y="687"/>
      <point x="337" y="676" type="curve" smooth="yes"/>
      <point x="245" y="637"/>
      <point x="177" y="558"/>
      <point x="177" y="490" type="curve" smooth="yes"/>
      <point x="177" y="445"/>
      <point x="200" y="416"/>
      <point x="256" y="390" type="curve"/>
      <point x="175" y="362"/>
      <point x="144" y="345"/>
      <point x="107" y="314" type="curve" smooth="yes"/>
      <point x="68" y="279"/>
      <point x="47" y="230"/>
      <point x="47" y="173" type="curve" smooth="yes"/>
      <point x="47" y="56"/>
      <point x="140" y="-18"/>
      <point x="287" y="-18" type="curve" smooth="yes"/>
      <point x="347" y="-18"/>
      <point x="415" y="-3"/>
      <point x="463" y="22" type="curve" smooth="yes"/>
      <point x="569" y="74"/>
      <point x="634" y="151"/>
      <point x="634" y="223" type="curve" smooth="yes"/>
      <point x="634" y="262"/>
      <point x="604" y="304"/>
      <point x="572" y="307" type="curve" smooth="yes"/>
      <point x="555" y="309" type="line"/>
      <point x="640" y="321" type="line" smooth="yes"/>
      <point x="719" y="332"/>
      <point x="766" y="378"/>
      <point x="766" y="444" type="curve" smooth="yes"/>
      <point x="766" y="484"/>
      <point x="752" y="506"/>
      <point x="714" y="524" type="curve"/>
      <point x="693" y="508" type="line"/>
      <point x="723" y="492"/>
      <point x="731" y="481"/>
      <point x="731" y="456" type="curve" smooth="yes"/>
      <point x="731" y="413"/>
      <point x="695" y="388"/>
      <point x="618" y="375" type="curve" smooth="yes"/>
      <point x="507" y="357" type="line" smooth="yes"/>
      <point x="434" y="345"/>
      <point x="413" y="336"/>
      <point x="382" y="306" type="curve"/>
      <point x="374" y="207" type="line"/>
      <point x="397" y="205" type="line"/>
      <point x="412" y="271"/>
      <point x="427" y="288"/>
      <point x="474" y="288" type="curve" smooth="yes"/>
      <point x="527" y="288"/>
      <point x="564" y="252"/>
      <point x="564" y="199" type="curve" smooth="yes"/>
      <point x="564" y="109"/>
      <point x="456" y="29"/>
      <point x="333" y="29" type="curve" smooth="yes"/>
      <point x="212" y="29"/>
      <point x="130" y="96"/>
      <point x="130" y="194" type="curve" smooth="yes"/>
      <point x="130" y="297"/>
      <point x="213" y="369"/>
      <point x="333" y="369" type="curve" smooth="yes"/>
      <point x="369" y="369" type="line"/>
      <point x="369" y="371" type="line" smooth="yes"/>
      <point x="369" y="375"/>
      <point x="374" y="387"/>
      <point x="381" y="401" type="curve" smooth="yes"/>
      <point x="389" y="419" type="line"/>
      <point x="349" y="419"/>
      <point x="339" y="420"/>
      <point x="318" y="428" type="curve" smooth="yes"/>
      <point x="273" y="444"/>
      <point x="249" y="477"/>
      <point x="249" y="522" type="curve" smooth="yes"/>
      <point x="249" y="589"/>
      <point x="305" y="642"/>
      <point x="375" y="642" type="curve" smooth="yes"/>
      <point x="404" y="642"/>
      <point x="430" y="633"/>
      <point x="465" y="610" type="curve"/>
      <point x="465" y="548" type="line"/>
    </contour>
  </outline>
</glyph>
<glyph name="quotesingle" format="1">
  <advance width="333"/>
  <unicode hex="0027"/>
  <outline>
    <contour>
      <point x="170" y="508" type="line"/>
      <point x="279" y="661" type="line" smooth="yes"/>
      <point x="285" y="669"/>
      <point x="288" y="681"/>
      <point x="288" y="694" type="curve" smooth="yes"/>
      <point x="288" y="716"/>
      <point x="270" y="733"/>
      <point x="247" y="733" type="curve" smooth="yes"/>
      <point x="226" y="733"/>
      <point x="210" y="720"/>
      <point x="202" y="695" type="curve" smooth="yes"/>
      <point x="140" y="508" type="line"/>
    </contour>
  </outline>
</glyph>
<glyph name="parenleft" format="1">
  <advance width="333"/>
  <unicode hex="0028"/>
  <outline>
    <contour>
      <point x="308" y="733" type="line"/>
      <point x="218" y="647"/>
      <point x="180" y="603"/>
      <point x="139" y="539" type="curve" smooth="yes"/>
      <point x="82" y="449"/>
      <point x="54" y="358"/>
      <point x="54" y="257" type="curve" smooth="yes"/>
      <point x="54" y="208"/>
      <point x="62" y="151"/>
      <point x="75" y="104" type="curve" smooth="yes"/>
      <point x="93" y="41"/>
      <point x="116" y="-6"/>
      <point x="178" y="-106" type="curve"/>
      <point x="200" y="-93" type="line"/>
      <point x="174" y="-38" type="line" smooth="yes"/>
      <point x="142" y="29"/>
      <point x="126" y="114"/>
      <point x="126" y="210" type="curve" smooth="yes"/>
      <point x="126" y="305"/>
      <point x="141" y="392"/>
      <point x="171" y="469" type="curve" smooth="yes"/>
      <point x="204" y="553"/>
      <point x="239" y="607"/>
      <point x="331" y="712" type="curve"/>
    </contour>
  </outline>
</glyph>
<glyph name="parenright" format="1">
  <advance width="333"/>
  <unicode hex="0029"/>
  <outline>
    <contour>
      <point x="25" y="-106" type="line"/>
      <point x="115" y="-19"/>
      <point x="153" y="25"/>
      <point x="193" y="88" type="curve" smooth="yes"/>
      <point x="251" y="178"/>
      <point x="279" y="269"/>
      <point x="279" y="370" type="curve" smooth="yes"/>
      <point x="279" y="419"/>
      <point x="271" y="476"/>
      <point x="258" y="523" type="curve" smooth="yes"/>
      <point x="240" y="586"/>
      <point x="217" y="633"/>
      <point x="155" y="733" type="curve"/>
      <point x="133" y="720" type="line"/>
      <point x="159" y="665" type="line" smooth="yes"/>
      <point x="190" y="598"/>
      <point x="207" y="512"/>
      <point x="207" y="417" type="curve" smooth="yes"/>
      <point x="207" y="323"/>
      <point x="192" y="235"/>
      <point x="162" y="158" type="curve" smooth="yes"/>
      <point x="129" y="74"/>
      <point x="94" y="20"/>
      <point x="2" y="-85" type="curve"/>
    </contour>
  </outline>
</glyph>
<glyph name="asterisk" format="1">
  <advance width="389"/>
  <unicode hex="002A"/>
  <outline>
    <contour>
      <point x="76" y="608" type="line"/>
      <point x="81" y="599" type="line"/>
      <point x="209" y="537" type="line"/>
      <point x="82" y="481" type="line"/>
      <point x="78" y="474" type="line"/>
      <point x="104" y="417" type="line"/>
      <point x="116" y="417" type="line"/>
      <point x="223" y="514" type="line"/>
      <point x="245" y="372" type="line"/>
      <point x="252" y="368" type="line"/>
      <point x="310" y="396" type="line"/>
      <point x="314" y="404" type="line"/>
      <point x="249" y="524" type="line"/>
      <point x="394" y="505" type="line"/>
      <point x="394" y="505"/>
      <point x="400" y="511"/>
      <point x="400" y="511" type="curve"/>
      <point x="400" y="511"/>
      <point x="394" y="569"/>
      <point x="394" y="569" type="curve"/>
      <point x="387" y="574" type="line"/>
      <point x="247" y="549" type="line"/>
      <point x="318" y="680" type="line"/>
      <point x="318" y="688" type="line"/>
      <point x="255" y="706" type="line"/>
      <point x="245" y="701" type="line"/>
      <point x="223" y="560" type="line"/>
      <point x="119" y="665" type="line"/>
      <point x="109" y="665" type="line"/>
    </contour>
  </outline>
</glyph>
<glyph name="plus" format="1">
  <advance width="606"/>
  <unicode hex="002B"/>
  <outline>
    <contour>
      <point x="275" y="280" type="line"/>
      <point x="51" y="280" type="line"/>
      <point x="51" y="224" type="line"/>
      <point x="275" y="224" type="line"/>
      <point x="275" y="0" type="line"/>
      <point x="331" y="0" type="line"/>
      <point x="331" y="224" type="line"/>
      <point x="555" y="224" type="line"/>
      <point x="555" y="280" type="line"/>
      <point x="331" y="280" type="line"/>
      <point x="331" y="504" type="line"/>
      <point x="275" y="504" type="line"/>
    </contour>
  </outline>
</glyph>
<glyph name="comma" format="1">
  <advance width="250"/>
  <unicode hex="002C"/>
  <outline>
    <contour>
      <point x="15" y="-143" type="line"/>
      <point x="50" y="-130" type="line"/>
      <point x="123" y="-40"/>
      <point x="169" y="31"/>
      <point x="203" y="110" type="curve"/>
      <point x="194" y="123" type="line"/>
      <point x="103" y="94" type="line"/>
      <point x="95" y="62" type="line" smooth="yes"/>
      <point x="73" y="-27"/>
      <point x="48" y="-82"/>
      <point x="8" y="-133" type="curve"/>
    </contour>
  </outline>
</glyph>
<glyph name="hyphen" format="1">
  <advance width="333"/>
  <unicode hex="002D"/>
  <outline>
    <contour>
      <point x="19" y="223" type="line"/>
      <point x="286" y="223" type="line"/>
      <point x="304" y="281" type="line"/>
      <point x="38" y="281" type="line"/>
    </contour>
  </outline>
</glyph>
<glyph name="period" format="1">
  <advance width="250"/>
  <unicode hex="002E"/>
  <outline>
    <contour>
      <point x="113" y="112" type="curve" smooth="yes"/>
      <point x="80" y="112"/>
      <point x="53" y="80"/>
      <point x="53" y="42" type="curve" smooth="yes"/>
      <point x="53" y="13"/>
      <point x="70" y="-5"/>
      <point x="97" y="-5" type="curve" smooth="yes"/>
      <point x="130" y="-5"/>
      <point x="158" y="27"/>
      <point x="158" y="64" type="curve" smooth="yes"/>
      <point x="158" y="91"/>
      <point x="138" y="112"/>
    </contour>
  </outline>
</glyph>
<glyph name="slash" format="1">
  <advance width="296"/>
  <unicode hex="002F"/>
  <outline>
    <contour>
      <point x="392" y="733" type="line"/>
      <point x="332" y="733" type="line"/>
      <point x="-40" y="-119" type="line"/>
      <point x="20" y="-119" type="line"/>
    </contour>
  </outline>
</glyph>
<glyph name="zero" format="1">
  <advance width="500"/>
  <unicode hex="0030"/>
  <outline>
    <contour>
      <point x="308" y="699" type="curve" smooth="yes"/>
      <point x="238" y="699"/>
      <point x="180" y="665"/>
      <point x="133" y="597" type="curve" smooth="yes"/>
      <point x="74" y="511"/>
      <point x="36" y="367"/>
      <point x="36" y="231" type="curve" smooth="yes"/>
      <point x="36" y="76"/>
      <point x="98" y="-11"/>
      <point x="208" y="-11" type="curve" smooth="yes"/>
      <point x="287" y="-11"/>
      <point x="352" y="33"/>
      <point x="400" y="121" type="curve" smooth="yes"/>
      <point x="449" y="210"/>
      <point x="480" y="345"/>
      <point x="480" y="468" type="curve" smooth="yes"/>
      <point x="480" y="611"/>
      <point x="414" y="699"/>
    </contour>
    <contour>
      <point x="302" y="670" type="curve" smooth="yes"/>
      <point x="371" y="670"/>
      <point x="404" y="615"/>
      <point x="404" y="502" type="curve" smooth="yes"/>
      <point x="404" y="403"/>
      <point x="381" y="258"/>
      <point x="351" y="171" type="curve" smooth="yes"/>
      <point x="315" y="65"/>
      <point x="272" y="18"/>
      <point x="212" y="18" type="curve" smooth="yes"/>
      <point x="145" y="18"/>
      <point x="112" y="72"/>
      <point x="112" y="178" type="curve" smooth="yes"/>
      <point x="112" y="261"/>
      <point x="127" y="372"/>
      <point x="150" y="465" type="curve" smooth="yes"/>
      <point x="187" y="610"/>
      <point x="231" y="670"/>
    </contour>
  </outline>
</glyph>
<glyph name="one" format="1">
  <advance width="500"/>
  <unicode hex="0031"/>
  <outline>
    <contour>
      <point x="374" y="688" type="line"/>
      <point x="359" y="699" type="line"/>
      <point x="259" y="658" type="line" smooth="yes"/>
      <point x="221" y="642"/>
      <point x="191" y="634"/>
      <point x="119" y="616" type="curve" smooth="yes"/>
      <point x="95" y="610" type="line"/>
      <point x="84" y="551" type="line"/>
      <point x="91" y="546" type="line"/>
      <point x="175" y="587" type="line"/>
      <point x="176" y="588"/>
      <point x="210" y="602"/>
      <point x="242" y="615" type="curve" smooth="yes"/>
      <point x="278" y="629" type="line"/>
      <point x="192" y="102" type="line" smooth="yes"/>
      <point x="183" y="50"/>
      <point x="175" y="39"/>
      <point x="144" y="34" type="curve" smooth="yes"/>
      <point x="59" y="24" type="line"/>
      <point x="54" y="-3" type="line"/>
      <point x="123" y="-1"/>
      <point x="171" y="0"/>
      <point x="224" y="0" type="curve" smooth="yes"/>
      <point x="277" y="0"/>
      <point x="324" y="-1"/>
      <point x="393" y="-3" type="curve"/>
      <point x="398" y="24" type="line"/>
      <point x="327" y="28" type="line" smooth="yes"/>
      <point x="281" y="31"/>
      <point x="268" y="41"/>
      <point x="268" y="76" type="curve" smooth="yes"/>
      <point x="268" y="87"/>
      <point x="269" y="94"/>
      <point x="276" y="136" type="curve" smooth="yes"/>
      <point x="350" y="573" type="line"/>
    </contour>
  </outline>
</glyph>
<glyph name="two" format="1">
  <advance width="500"/>
  <unicode hex="0032"/>
  <outline>
    <contour>
      <point x="101" y="63" type="line"/>
      <point x="348" y="332" type="line" smooth="yes"/>
      <point x="405" y="394"/>
      <point x="437" y="469"/>
      <point x="437" y="538" type="curve" smooth="yes"/>
      <point x="437" y="636"/>
      <point x="371" y="699"/>
      <point x="268" y="699" type="curve" smooth="yes"/>
      <point x="217" y="699"/>
      <point x="180" y="687"/>
      <point x="136" y="655" type="curve"/>
      <point x="76" y="535" type="line"/>
      <point x="98" y="526" type="line"/>
      <point x="147" y="606"/>
      <point x="184" y="634"/>
      <point x="241" y="634" type="curve" smooth="yes"/>
      <point x="307" y="634"/>
      <point x="352" y="589"/>
      <point x="352" y="523" type="curve" smooth="yes"/>
      <point x="352" y="455"/>
      <point x="315" y="369"/>
      <point x="251" y="286" type="curve" smooth="yes"/>
      <point x="209" y="232"/>
      <point x="138" y="150"/>
      <point x="61" y="67" type="curve" smooth="yes"/>
      <point x="12" y="15" type="line"/>
      <point x="12" y="-3" type="line"/>
      <point x="80" y="-1"/>
      <point x="153" y="0"/>
      <point x="214" y="0" type="curve" smooth="yes"/>
      <point x="275" y="0"/>
      <point x="347" y="-1"/>
      <point x="415" y="-3" type="curve"/>
      <point x="432" y="66" type="line"/>
      <point x="426" y="74" type="line"/>
      <point x="380" y="66"/>
      <point x="346" y="63"/>
      <point x="311" y="63" type="curve" smooth="yes"/>
    </contour>
  </outline>
</glyph>
<glyph name="three" format="1">
  <advance width="500"/>
  <unicode hex="0033"/>
  <outline>
    <contour>
      <point x="22" y="33" type="line"/>
      <point x="70" y="1"/>
      <point x="111" y="-11"/>
      <point x="170" y="-11" type="curve" smooth="yes"/>
      <point x="323" y="-11"/>
      <point x="447" y="99"/>
      <point x="447" y="235" type="curve" smooth="yes"/>
      <point x="447" y="287"/>
      <point x="430" y="326"/>
      <point x="395" y="353" type="curve" smooth="yes"/>
      <point x="370" y="371"/>
      <point x="347" y="380"/>
      <point x="294" y="393" type="curve"/>
      <point x="399" y="448"/>
      <point x="439" y="497"/>
      <point x="439" y="569" type="curve" smooth="yes"/>
      <point x="439" y="646"/>
      <point x="377" y="699"/>
      <point x="286" y="699" type="curve" smooth="yes"/>
      <point x="250" y="699"/>
      <point x="220" y="691"/>
      <point x="170" y="668" type="curve"/>
      <point x="112" y="569" type="line"/>
      <point x="131" y="556" type="line"/>
      <point x="152" y="580" type="line" smooth="yes"/>
      <point x="191" y="625"/>
      <point x="215" y="638"/>
      <point x="259" y="638" type="curve" smooth="yes"/>
      <point x="320" y="638"/>
      <point x="360" y="601"/>
      <point x="360" y="545" type="curve" smooth="yes"/>
      <point x="360" y="464"/>
      <point x="291" y="399"/>
      <point x="204" y="399" type="curve" smooth="yes"/>
      <point x="182" y="400" type="line"/>
      <point x="174" y="401"/>
      <point x="170" y="401"/>
      <point x="169" y="401" type="curve" smooth="yes"/>
      <point x="160" y="401" type="line"/>
      <point x="142" y="358" type="line"/>
      <point x="148" y="346" type="line"/>
      <point x="184" y="359"/>
      <point x="201" y="362"/>
      <point x="226" y="362" type="curve" smooth="yes"/>
      <point x="311" y="362"/>
      <point x="361" y="313"/>
      <point x="361" y="228" type="curve" smooth="yes"/>
      <point x="361" y="167"/>
      <point x="337" y="107"/>
      <point x="297" y="66" type="curve" smooth="yes"/>
      <point x="270" y="38"/>
      <point x="234" y="23"/>
      <point x="193" y="23" type="curve" smooth="yes"/>
      <point x="117" y="23"/>
      <point x="70" y="64"/>
      <point x="70" y="130" type="curve" smooth="yes"/>
      <point x="70" y="140"/>
      <point x="71" y="149"/>
      <point x="74" y="173" type="curve"/>
      <point x="50" y="178" type="line"/>
    </contour>
  </outline>
</glyph>
<glyph name="four" format="1">
  <advance width="500"/>
  <unicode hex="0034"/>
  <outline>
    <contour>
      <point x="15" y="223" type="line"/>
      <point x="15" y="192" type="line"/>
      <point x="268" y="192" type="line"/>
      <point x="248" y="90" type="line" smooth="yes"/>
      <point x="239" y="48"/>
      <point x="229" y="38"/>
      <point x="196" y="34" type="curve" smooth="yes"/>
      <point x="110" y="24" type="line"/>
      <point x="105" y="-3" type="line"/>
      <point x="172" y="-1"/>
      <point x="219" y="0"/>
      <point x="271" y="0" type="curve" smooth="yes"/>
      <point x="322" y="0"/>
      <point x="368" y="-1"/>
      <point x="436" y="-3" type="curve"/>
      <point x="441" y="24" type="line"/>
      <point x="354" y="34" type="line" smooth="yes"/>
      <point x="327" y="37"/>
      <point x="318" y="42"/>
      <point x="318" y="54" type="curve" smooth="yes"/>
      <point x="318" y="75"/>
      <point x="321" y="103"/>
      <point x="327" y="138" type="curve" smooth="yes"/>
      <point x="336" y="191" type="line"/>
      <point x="409" y="191" type="line" smooth="yes"/>
      <point x="415" y="191"/>
      <point x="427" y="190"/>
      <point x="444" y="189" type="curve" smooth="yes"/>
      <point x="462" y="188" type="line"/>
      <point x="478" y="243" type="line"/>
      <point x="474" y="248" type="line"/>
      <point x="346" y="248" type="line"/>
      <point x="429" y="694" type="line"/>
      <point x="421" y="699" type="line"/>
      <point x="352" y="684" type="line"/>
    </contour>
    <contour>
      <point x="345" y="621" type="line"/>
      <point x="278" y="248" type="line"/>
      <point x="75" y="248" type="line"/>
    </contour>
  </outline>
</glyph>
<glyph name="five" format="1">
  <advance width="500"/>
  <unicode hex="0035"/>
  <outline>
    <contour>
      <point x="115" y="329" type="line"/>
      <point x="158" y="373"/>
      <point x="189" y="389"/>
      <point x="235" y="389" type="curve" smooth="yes"/>
      <point x="314" y="389"/>
      <point x="359" y="337"/>
      <point x="359" y="247" type="curve" smooth="yes"/>
      <point x="359" y="177"/>
      <point x="335" y="111"/>
      <point x="293" y="68" type="curve" smooth="yes"/>
      <point x="266" y="40"/>
      <point x="230" y="25"/>
      <point x="187" y="25" type="curve" smooth="yes"/>
      <point x="113" y="25"/>
      <point x="63" y="69"/>
      <point x="63" y="136" type="curve" smooth="yes"/>
      <point x="63" y="146"/>
      <point x="64" y="159"/>
      <point x="66" y="175" type="curve"/>
      <point x="43" y="180" type="line"/>
      <point x="32" y="115"/>
      <point x="23" y="73"/>
      <point x="14" y="41" type="curve"/>
      <point x="62" y="4"/>
      <point x="106" y="-11"/>
      <point x="169" y="-11" type="curve" smooth="yes"/>
      <point x="270" y="-11"/>
      <point x="360" y="41"/>
      <point x="407" y="128" type="curve" smooth="yes"/>
      <point x="431" y="172"/>
      <point x="445" y="223"/>
      <point x="445" y="266" type="curve" smooth="yes"/>
      <point x="445" y="368"/>
      <point x="379" y="434"/>
      <point x="276" y="434" type="curve" smooth="yes"/>
      <point x="220" y="434"/>
      <point x="177" y="418"/>
      <point x="137" y="382" type="curve"/>
      <point x="188" y="623" type="line"/>
      <point x="229" y="620"/>
      <point x="271" y="618"/>
      <point x="309" y="618" type="curve" smooth="yes"/>
      <point x="350" y="618"/>
      <point x="405" y="620"/>
      <point x="456" y="623" type="curve"/>
      <point x="491" y="681" type="line"/>
      <point x="485" y="690" type="line"/>
      <point x="453" y="689" type="line" smooth="yes"/>
      <point x="415" y="687"/>
      <point x="357" y="686"/>
      <point x="333" y="686" type="curve" smooth="yes"/>
      <point x="292" y="686"/>
      <point x="248" y="688"/>
      <point x="187" y="692" type="curve" smooth="yes"/>
      <point x="166" y="693" type="line"/>
      <point x="158" y="688" type="line"/>
      <point x="94" y="338" type="line"/>
    </contour>
  </outline>
</glyph>
<glyph name="six" format="1">
  <advance width="500"/>
  <unicode hex="0036"/>
  <outline>
    <contour>
      <point x="469" y="694" type="line"/>
      <point x="455" y="697"/>
      <point x="440" y="699"/>
      <point x="421" y="699" type="curve" smooth="yes"/>
      <point x="329" y="699"/>
      <point x="256" y="659"/>
      <point x="182" y="568" type="curve" smooth="yes"/>
      <point x="96" y="463"/>
      <point x="49" y="332"/>
      <point x="49" y="200" type="curve" smooth="yes"/>
      <point x="49" y="68"/>
      <point x="106" y="-11"/>
      <point x="202" y="-11" type="curve" smooth="yes"/>
      <point x="282" y="-11"/>
      <point x="369" y="46"/>
      <point x="413" y="125" type="curve" smooth="yes"/>
      <point x="436" y="166"/>
      <point x="448" y="215"/>
      <point x="448" y="263" type="curve" smooth="yes"/>
      <point x="448" y="360"/>
      <point x="397" y="417"/>
      <point x="312" y="417" type="curve" smooth="yes"/>
      <point x="245" y="417"/>
      <point x="195" y="387"/>
      <point x="133" y="311" type="curve"/>
      <point x="155" y="411"/>
      <point x="177" y="475"/>
      <point x="209" y="531" type="curve" smooth="yes"/>
      <point x="254" y="610"/>
      <point x="314" y="653"/>
      <point x="380" y="653" type="curve" smooth="yes"/>
      <point x="403" y="653"/>
      <point x="414" y="650"/>
      <point x="445" y="635" type="curve"/>
      <point x="453" y="635" type="line"/>
    </contour>
    <contour>
      <point x="265" y="362" type="curve" smooth="yes"/>
      <point x="332" y="362"/>
      <point x="372" y="315"/>
      <point x="372" y="236" type="curve" smooth="yes"/>
      <point x="372" y="120"/>
      <point x="313" y="35"/>
      <point x="234" y="35" type="curve" smooth="yes"/>
      <point x="168" y="35"/>
      <point x="125" y="90"/>
      <point x="125" y="174" type="curve" smooth="yes"/>
      <point x="125" y="283"/>
      <point x="184" y="362"/>
    </contour>
  </outline>
</glyph>
<glyph name="seven" format="1">
  <advance width="500"/>
  <unicode hex="0037"/>
  <outline>
    <contour>
      <point x="53" y="5" type="line"/>
      <point x="58" y="-3" type="line"/>
      <point x="67" y="-2"/>
      <point x="74" y="-2"/>
      <point x="77" y="-2" type="curve"/>
      <point x="89" y="0"/>
      <point x="96" y="0"/>
      <point x="102" y="0" type="curve"/>
      <point x="116" y="-1"/>
      <point x="116" y="-1"/>
      <point x="140" y="-3" type="curve"/>
      <point x="214" y="163"/>
      <point x="297" y="323"/>
      <point x="376" y="450" type="curve" smooth="yes"/>
      <point x="502" y="653" type="line"/>
      <point x="502" y="688" type="line"/>
      <point x="480" y="688" type="line" smooth="yes"/>
      <point x="446" y="687"/>
      <point x="420" y="686"/>
      <point x="403" y="686" type="curve" smooth="yes"/>
      <point x="395" y="686" type="line"/>
      <point x="326" y="687" type="line"/>
      <point x="186" y="690" type="line" smooth="yes"/>
      <point x="177" y="690"/>
      <point x="145" y="691"/>
      <point x="101" y="692" type="curve"/>
      <point x="85" y="612" type="line"/>
      <point x="91" y="608" type="line"/>
      <point x="111" y="609" type="line" smooth="yes"/>
      <point x="161" y="612"/>
      <point x="172" y="613"/>
      <point x="190" y="613" type="curve" smooth="yes"/>
      <point x="432" y="613" type="line"/>
      <point x="154" y="164" type="line"/>
      <point x="74" y="37" type="line"/>
    </contour>
  </outline>
</glyph>
<glyph name="eight" format="1">
  <advance width="500"/>
  <unicode hex="0038"/>
  <outline>
    <contour>
      <point x="217" y="352" type="curve"/>
      <point x="155" y="322"/>
      <point x="129" y="304"/>
      <point x="98" y="272" type="curve" smooth="yes"/>
      <point x="57" y="229"/>
      <point x="36" y="181"/>
      <point x="36" y="130" type="curve" smooth="yes"/>
      <point x="36" y="45"/>
      <point x="96" y="-11"/>
      <point x="188" y="-11" type="curve" smooth="yes"/>
      <point x="316" y="-11"/>
      <point x="431" y="102"/>
      <point x="431" y="228" type="curve" smooth="yes"/>
      <point x="431" y="297"/>
      <point x="407" y="330"/>
      <point x="320" y="378" type="curve"/>
      <point x="434" y="454"/>
      <point x="469" y="500"/>
      <point x="469" y="576" type="curve" smooth="yes"/>
      <point x="469" y="651"/>
      <point x="417" y="699"/>
      <point x="336" y="699" type="curve" smooth="yes"/>
      <point x="228" y="699"/>
      <point x="117" y="594"/>
      <point x="117" y="490" type="curve" smooth="yes"/>
      <point x="117" y="434"/>
      <point x="148" y="391"/>
    </contour>
    <contour>
      <point x="273" y="321" type="line" smooth="yes"/>
      <point x="337" y="284"/>
      <point x="355" y="255"/>
      <point x="355" y="195" type="curve" smooth="yes"/>
      <point x="355" y="100"/>
      <point x="299" y="31"/>
      <point x="221" y="31" type="curve" smooth="yes"/>
      <point x="152" y="31"/>
      <point x="112" y="75"/>
      <point x="112" y="148" type="curve" smooth="yes"/>
      <point x="112" y="229"/>
      <point x="156" y="292"/>
      <point x="244" y="338" type="curve"/>
    </contour>
    <contour>
      <point x="257" y="413" type="line" smooth="yes"/>
      <point x="211" y="439"/>
      <point x="185" y="478"/>
      <point x="185" y="522" type="curve" smooth="yes"/>
      <point x="185" y="599"/>
      <point x="236" y="657"/>
      <point x="304" y="657" type="curve" smooth="yes"/>
      <point x="362" y="657"/>
      <point x="401" y="616"/>
      <point x="401" y="556" type="curve" smooth="yes"/>
      <point x="401" y="495"/>
      <point x="364" y="441"/>
      <point x="291" y="394" type="curve"/>
    </contour>
  </outline>
</glyph>
<glyph name="nine" format="1">
  <advance width="500"/>
  <unicode hex="0039"/>
  <outline>
    <contour>
      <point x="32" y="111" type="line"/>
      <point x="41" y="90"/>
      <point x="46" y="73"/>
      <point x="56" y="34" type="curve" smooth="yes"/>
      <point x="60" y="19"/>
      <point x="61" y="16"/>
      <point x="63" y="8" type="curve"/>
      <point x="89" y="-5"/>
      <point x="116" y="-11"/>
      <point x="142" y="-11" type="curve" smooth="yes"/>
      <point x="215" y="-11"/>
      <point x="293" y="36"/>
      <point x="355" y="118" type="curve" smooth="yes"/>
      <point x="427" y="213"/>
      <point x="468" y="345"/>
      <point x="468" y="481" type="curve" smooth="yes"/>
      <point x="468" y="623"/>
      <point x="414" y="699"/>
      <point x="312" y="699" type="curve" smooth="yes"/>
      <point x="183" y="699"/>
      <point x="71" y="579"/>
      <point x="71" y="440" type="curve" smooth="yes"/>
      <point x="71" y="341"/>
      <point x="130" y="276"/>
      <point x="219" y="276" type="curve" smooth="yes"/>
      <point x="282" y="276"/>
      <point x="327" y="303"/>
      <point x="386" y="377" type="curve"/>
      <point x="365" y="270"/>
      <point x="349" y="214"/>
      <point x="324" y="162" type="curve" smooth="yes"/>
      <point x="285" y="79"/>
      <point x="232" y="37"/>
      <point x="168" y="37" type="curve" smooth="yes"/>
      <point x="117" y="37"/>
      <point x="84" y="60"/>
      <point x="53" y="119" type="curve"/>
    </contour>
    <contour>
      <point x="283" y="654" type="curve" smooth="yes"/>
      <point x="349" y="654"/>
      <point x="392" y="596"/>
      <point x="392" y="508" type="curve" smooth="yes"/>
      <point x="392" y="405"/>
      <point x="336" y="330"/>
      <point x="259" y="330" type="curve" smooth="yes"/>
      <point x="188" y="330"/>
      <point x="147" y="381"/>
      <point x="147" y="469" type="curve" smooth="yes"/>
      <point x="147" y="577"/>
      <point x="204" y="654"/>
    </contour>
  </outline>
</glyph>
<glyph name="colon" format="1">
  <advance width="250"/>
  <unicode hex="003A"/>
  <outline>
    <contour>
      <point x="104" y="112" type="curve" smooth="yes"/>
      <point x="71" y="112"/>
      <point x="44" y="80"/>
      <point x="44" y="42" type="curve" smooth="yes"/>
      <point x="44" y="13"/>
      <point x="61" y="-5"/>
      <point x="88" y="-5" type="curve" smooth="yes"/>
      <point x="121" y="-5"/>
      <point x="149" y="27"/>
      <point x="149" y="64" type="curve" smooth="yes"/>
      <point x="149" y="91"/>
      <point x="129" y="112"/>
    </contour>
    <contour>
      <point x="162" y="458" type="curve" smooth="yes"/>
      <point x="129" y="458"/>
      <point x="102" y="426"/>
      <point x="102" y="388" type="curve" smooth="yes"/>
      <point x="102" y="359"/>
      <point x="119" y="341"/>
      <point x="146" y="341" type="curve" smooth="yes"/>
      <point x="180" y="341"/>
      <point x="207" y="372"/>
      <point x="207" y="410" type="curve" smooth="yes"/>
      <point x="207" y="437"/>
      <point x="187" y="458"/>
    </contour>
  </outline>
</glyph>
<glyph name="semicolon" format="1">
  <advance width="250"/>
  <unicode hex="003B"/>
  <outline>
    <contour>
      <point x="-2" y="-146" type="line"/>
      <point x="33" y="-133" type="line"/>
      <point x="106" y="-43"/>
      <point x="152" y="28"/>
      <point x="186" y="107" type="curve"/>
      <point x="177" y="120" type="line"/>
      <point x="86" y="91" type="line"/>
      <point x="78" y="59" type="line" smooth="yes"/>
      <point x="56" y="-30"/>
      <point x="31" y="-85"/>
      <point x="-9" y="-136" type="curve"/>
    </contour>
    <contour>
      <point x="174" y="456" type="curve" smooth="yes"/>
      <point x="141" y="456"/>
      <point x="114" y="424"/>
      <point x="114" y="386" type="curve" smooth="yes"/>
      <point x="114" y="357"/>
      <point x="131" y="339"/>
      <point x="158" y="339" type="curve" smooth="yes"/>
      <point x="192" y="339"/>
      <point x="219" y="370"/>
      <point x="219" y="408" type="curve" smooth="yes"/>
      <point x="219" y="435"/>
      <point x="199" y="456"/>
    </contour>
  </outline>
</glyph>
<glyph name="less" format="1">
  <advance width="606"/>
  <unicode hex="003C"/>
  <outline>
    <contour>
      <point x="554" y="-2" type="line"/>
      <point x="554" y="62" type="line"/>
      <point x="125" y="259" type="line"/>
      <point x="554" y="460" type="line"/>
      <point x="554" y="524" type="line"/>
      <point x="53" y="290" type="line"/>
      <point x="53" y="232" type="line"/>
    </contour>
  </outline>
</glyph>
<glyph name="equal" format="1">
  <advance width="606"/>
  <unicode hex="003D"/>
  <outline>
    <contour>
      <point x="555" y="378" type="line"/>
      <point x="51" y="378" type="line"/>
      <point x="51" y="322" type="line"/>
      <point x="555" y="322" type="line"/>
    </contour>
    <contour>
      <point x="555" y="182" type="line"/>
      <point x="51" y="182" type="line"/>
      <point x="51" y="126" type="line"/>
      <point x="555" y="126" type="line"/>
    </contour>
  </outline>
</glyph>
<glyph name="greater" format="1">
  <advance width="606"/>
  <unicode hex="003E"/>
  <outline>
    <contour>
      <point x="53" y="-2" type="line"/>
      <point x="554" y="232" type="line"/>
      <point x="554" y="290" type="line"/>
      <point x="53" y="524" type="line"/>
      <point x="53" y="460" type="line"/>
      <point x="482" y="259" type="line"/>
      <point x="53" y="62" type="line"/>
    </contour>
  </outline>
</glyph>
<glyph name="question" format="1">
  <advance width="500"/>
  <unicode hex="003F"/>
  <outline>
    <contour>
      <point x="137" y="565" type="line"/>
      <point x="157" y="595" type="line" smooth="yes"/>
      <point x="183" y="634"/>
      <point x="205" y="647"/>
      <point x="246" y="647" type="curve" smooth="yes"/>
      <point x="303" y="647"/>
      <point x="345" y="611"/>
      <point x="345" y="562" type="curve" smooth="yes"/>
      <point x="345" y="527"/>
      <point x="326" y="489"/>
      <point x="288" y="446" type="curve" smooth="yes"/>
      <point x="218" y="367" type="line" smooth="yes"/>
      <point x="179" y="323"/>
      <point x="163" y="291"/>
      <point x="163" y="256" type="curve" smooth="yes"/>
      <point x="163" y="230"/>
      <point x="176" y="209"/>
      <point x="201" y="193" type="curve"/>
      <point x="226" y="199" type="line"/>
      <point x="207" y="219"/>
      <point x="199" y="233"/>
      <point x="199" y="250" type="curve" smooth="yes"/>
      <point x="199" y="272"/>
      <point x="211" y="291"/>
      <point x="249" y="327" type="curve" smooth="yes"/>
      <point x="353" y="427" type="line" smooth="yes"/>
      <point x="405" y="477"/>
      <point x="427" y="520"/>
      <point x="427" y="572" type="curve" smooth="yes"/>
      <point x="427" y="652"/>
      <point x="364" y="706"/>
      <point x="270" y="706" type="curve" smooth="yes"/>
      <point x="230" y="706"/>
      <point x="199" y="696"/>
      <point x="155" y="669" type="curve"/>
      <point x="130" y="608" type="line"/>
      <point x="125" y="597" type="line" smooth="yes"/>
      <point x="120" y="585"/>
      <point x="117" y="577"/>
      <point x="115" y="571" type="curve"/>
    </contour>
    <contour>
      <point x="174" y="109" type="curve" smooth="yes"/>
      <point x="141" y="109"/>
      <point x="114" y="77"/>
      <point x="114" y="39" type="curve" smooth="yes"/>
      <point x="114" y="10"/>
      <point x="131" y="-8"/>
      <point x="158" y="-8" type="curve" smooth="yes"/>
      <point x="191" y="-8"/>
      <point x="219" y="24"/>
      <point x="219" y="61" type="curve" smooth="yes"/>
      <point x="219" y="88"/>
      <point x="199" y="109"/>
    </contour>
  </outline>
</glyph>
<glyph name="at" format="1">
  <advance width="747"/>
  <unicode hex="0040"/>
  <outline>
    <contour>
      <point x="666" y="176" type="line"/>
      <point x="635" y="132"/>
      <point x="618" y="114"/>
      <point x="589" y="92" type="curve" smooth="yes"/>
      <point x="533" y="48"/>
      <point x="470" y="27"/>
      <point x="399" y="27" type="curve" smooth="yes"/>
      <point x="212" y="27"/>
      <point x="72" y="163"/>
      <point x="72" y="344" type="curve" smooth="yes"/>
      <point x="72" y="523"/>
      <point x="210" y="661"/>
      <point x="391" y="661" type="curve" smooth="yes"/>
      <point x="551" y="661"/>
      <point x="677" y="550"/>
      <point x="677" y="410" type="curve" smooth="yes"/>
      <point x="677" y="339"/>
      <point x="648" y="270"/>
      <point x="597" y="217" type="curve" smooth="yes"/>
      <point x="568" y="188"/>
      <point x="530" y="165"/>
      <point x="508" y="165" type="curve" smooth="yes"/>
      <point x="491" y="165"/>
      <point x="477" y="181"/>
      <point x="477" y="202" type="curve" smooth="yes"/>
      <point x="477" y="206"/>
      <point x="478" y="214"/>
      <point x="479" y="218" type="curve" smooth="yes"/>
      <point x="558" y="509" type="line"/>
      <point x="483" y="509" type="line"/>
      <point x="463" y="433" type="line"/>
      <point x="451" y="493"/>
      <point x="424" y="518"/>
      <point x="374" y="518" type="curve" smooth="yes"/>
      <point x="266" y="518"/>
      <point x="160" y="406"/>
      <point x="160" y="292" type="curve" smooth="yes"/>
      <point x="160" y="209"/>
      <point x="218" y="144"/>
      <point x="292" y="144" type="curve" smooth="yes"/>
      <point x="340" y="144"/>
      <point x="365" y="161"/>
      <point x="414" y="226" type="curve"/>
      <point x="418" y="170"/>
      <point x="444" y="138"/>
      <point x="486" y="138" type="curve" smooth="yes"/>
      <point x="533" y="138"/>
      <point x="599" y="172"/>
      <point x="645" y="221" type="curve" smooth="yes"/>
      <point x="692" y="271"/>
      <point x="718" y="338"/>
      <point x="718" y="413" type="curve" smooth="yes"/>
      <point x="718" y="578"/>
      <point x="575" y="706"/>
      <point x="389" y="706" type="curve" smooth="yes"/>
      <point x="186" y="706"/>
      <point x="27" y="545"/>
      <point x="27" y="338" type="curve" smooth="yes"/>
      <point x="27" y="138"/>
      <point x="187" y="-18"/>
      <point x="394" y="-18" type="curve" smooth="yes"/>
      <point x="484" y="-18"/>
      <point x="568" y="14"/>
      <point x="636" y="75" type="curve" smooth="yes"/>
      <point x="667" y="103"/>
      <point x="683" y="124"/>
      <point x="713" y="176" type="curve"/>
    </contour>
    <contour>
      <point x="389" y="494" type="curve" smooth="yes"/>
      <point x="422" y="494"/>
      <point x="446" y="461"/>
      <point x="446" y="417" type="curve" smooth="yes"/>
      <point x="446" y="366"/>
      <point x="425" y="288"/>
      <point x="398" y="241" type="curve" smooth="yes"/>
      <point x="371" y="192"/>
      <point x="339" y="168"/>
      <point x="303" y="168" type="curve" smooth="yes"/>
      <point x="265" y="168"/>
      <point x="236" y="208"/>
      <point x="236" y="260" type="curve" smooth="yes"/>
      <point x="236" y="328"/>
      <point x="268" y="409"/>
      <point x="315" y="459" type="curve" smooth="yes"/>
      <point x="336" y="481"/>
      <point x="363" y="494"/>
    </contour>
  </outline>
</glyph>
<glyph name="B" format="1">
  <advance width="611"/>
  <unicode hex="0042"/>
  <outline>
    <contour>
      <point x="97" y="664" type="line"/>
      <point x="150" y="662" type="line" smooth="yes"/>
      <point x="174" y="661"/>
      <point x="185" y="653"/>
      <point x="185" y="635" type="curve" smooth="yes"/>
      <point x="185" y="621"/>
      <point x="181" y="589"/>
      <point x="176" y="559" type="curve" smooth="yes"/>
      <point x="89" y="55" type="line" smooth="yes"/>
      <point x="85" y="37"/>
      <point x="73" y="30"/>
      <point x="31" y="23" type="curve"/>
      <point x="26" y="-3" type="line"/>
      <point x="63" y="-2" type="line" smooth="yes"/>
      <point x="90" y="0"/>
      <point x="105" y="0"/>
      <point x="117" y="0" type="curve" smooth="yes"/>
      <point x="128" y="0"/>
      <point x="154" y="-1"/>
      <point x="180" y="-2" type="curve" smooth="yes"/>
      <point x="217" y="-3" type="line"/>
      <point x="237" y="-4" type="line" smooth="yes"/>
      <point x="256" y="-5"/>
      <point x="269" y="-6"/>
      <point x="277" y="-6" type="curve" smooth="yes"/>
      <point x="325" y="-6"/>
      <point x="373" y="8"/>
      <point x="420" y="36" type="curve" smooth="yes"/>
      <point x="499" y="83"/>
      <point x="543" y="151"/>
      <point x="543" y="227" type="curve" smooth="yes"/>
      <point x="543" y="270"/>
      <point x="529" y="303"/>
      <point x="502" y="325" type="curve" smooth="yes"/>
      <point x="476" y="346"/>
      <point x="446" y="355"/>
      <point x="377" y="365" type="curve"/>
      <point x="434" y="385"/>
      <point x="459" y="397"/>
      <point x="490" y="425" type="curve" smooth="yes"/>
      <point x="536" y="464"/>
      <point x="559" y="511"/>
      <point x="559" y="562" type="curve" smooth="yes"/>
      <point x="559" y="644"/>
      <point x="501" y="692"/>
      <point x="401" y="692" type="curve" smooth="yes"/>
      <point x="399" y="692"/>
      <point x="389" y="692"/>
      <point x="374" y="691" type="curve"/>
      <point x="311" y="690" type="line"/>
      <point x="299" y="689"/>
      <point x="263" y="689"/>
      <point x="251" y="689" type="curve" smooth="yes"/>
      <point x="232" y="689"/>
      <point x="201" y="690"/>
      <point x="152" y="691" type="curve" smooth="yes"/>
      <point x="100" y="692" type="line"/>
    </contour>
    <contour>
      <point x="217" y="340" type="line"/>
      <point x="302" y="340" type="line" smooth="yes"/>
      <point x="405" y="340"/>
      <point x="455" y="298"/>
      <point x="455" y="211" type="curve" smooth="yes"/>
      <point x="455" y="108"/>
      <point x="382" y="34"/>
      <point x="282" y="34" type="curve" smooth="yes"/>
      <point x="262" y="34"/>
      <point x="233" y="35"/>
      <point x="200" y="38" type="curve"/>
      <point x="194" y="39"/>
      <point x="182" y="40"/>
      <point x="166" y="41" type="curve"/>
    </contour>
    <contour>
      <point x="272" y="650" type="line"/>
      <point x="283" y="650"/>
      <point x="285" y="651"/>
      <point x="306" y="652" type="curve" smooth="yes"/>
      <point x="327" y="654"/>
      <point x="340" y="655"/>
      <point x="352" y="655" type="curve" smooth="yes"/>
      <point x="433" y="655"/>
      <point x="473" y="619"/>
      <point x="473" y="544" type="curve" smooth="yes"/>
      <point x="473" y="439"/>
      <point x="399" y="376"/>
      <point x="275" y="376" type="curve" smooth="yes"/>
      <point x="223" y="376" type="line"/>
    </contour>
  </outline>
</glyph>
<glyph name="C" format="1">
  <advance width="667"/>
  <unicode hex="0043"/>
  <outline>
    <contour>
      <point x="597" y="519" type="line"/>
      <point x="624" y="519" type="line"/>
      <point x="629" y="576"/>
      <point x="637" y="619"/>
      <point x="651" y="665" type="curve"/>
      <point x="575" y="694"/>
      <point x="518" y="706"/>
      <point x="456" y="706" type="curve" smooth="yes"/>
      <point x="374" y="706"/>
      <point x="292" y="681"/>
      <point x="222" y="634" type="curve" smooth="yes"/>
      <point x="105" y="555"/>
      <point x="45" y="437"/>
      <point x="45" y="284" type="curve" smooth="yes"/>
      <point x="45" y="90"/>
      <point x="152" y="-18"/>
      <point x="343" y="-18" type="curve" smooth="yes"/>
      <point x="439" y="-18"/>
      <point x="510" y="5"/>
      <point x="600" y="67" type="curve"/>
      <point x="610" y="103" type="line"/>
      <point x="600" y="110" type="line"/>
      <point x="506" y="53"/>
      <point x="454" y="35"/>
      <point x="376" y="35" type="curve" smooth="yes"/>
      <point x="219" y="35"/>
      <point x="133" y="131"/>
      <point x="133" y="309" type="curve" smooth="yes"/>
      <point x="133" y="420"/>
      <point x="167" y="519"/>
      <point x="228" y="581" type="curve" smooth="yes"/>
      <point x="275" y="629"/>
      <point x="339" y="653"/>
      <point x="418" y="653" type="curve" smooth="yes"/>
      <point x="489" y="653"/>
      <point x="541" y="639"/>
      <point x="597" y="603" type="curve"/>
    </contour>
  </outline>
</glyph>
<glyph name="F" format="1">
  <advance width="556"/>
  <unicode hex="0046"/>
  <outline>
    <contour>
      <point x="286" y="646" type="line"/>
      <point x="392" y="650" type="line" smooth="yes"/>
      <point x="454" y="650"/>
      <point x="494" y="641"/>
      <point x="495" y="626" type="curve" smooth="yes"/>
      <point x="503" y="537" type="line"/>
      <point x="527" y="537" type="line"/>
      <point x="530" y="600"/>
      <point x="537" y="651"/>
      <point x="548" y="689" type="curve"/>
      <point x="526" y="691"/>
      <point x="498" y="692"/>
      <point x="481" y="692" type="curve" smooth="yes"/>
      <point x="440" y="691" type="line"/>
      <point x="275" y="689" type="line"/>
      <point x="246" y="689" type="line" smooth="yes"/>
      <point x="221" y="689"/>
      <point x="181" y="690"/>
      <point x="143" y="691" type="curve" smooth="yes"/>
      <point x="94" y="692" type="line"/>
      <point x="91" y="664" type="line"/>
      <point x="147" y="662" type="line" smooth="yes"/>
      <point x="171" y="661"/>
      <point x="182" y="652"/>
      <point x="182" y="635" type="curve" smooth="yes"/>
      <point x="182" y="621"/>
      <point x="178" y="589"/>
      <point x="173" y="559" type="curve" smooth="yes"/>
      <point x="98" y="125" type="line" smooth="yes"/>
      <point x="81" y="33"/>
      <point x="81" y="32"/>
      <point x="40" y="28" type="curve" smooth="yes"/>
      <point x="4" y="25" type="line"/>
      <point x="0" y="-3" type="line"/>
      <point x="34" y="-2" type="line" smooth="yes"/>
      <point x="74" y="-1"/>
      <point x="106" y="0"/>
      <point x="127" y="0" type="curve" smooth="yes"/>
      <point x="145" y="0"/>
      <point x="174" y="-1"/>
      <point x="213" y="-2" type="curve" smooth="yes"/>
      <point x="265" y="-3" type="line"/>
      <point x="268" y="25" type="line"/>
      <point x="204" y="28" type="line" smooth="yes"/>
      <point x="177" y="29"/>
      <point x="168" y="37"/>
      <point x="168" y="57" type="curve" smooth="yes"/>
      <point x="168" y="63"/>
      <point x="169" y="74"/>
      <point x="170" y="78" type="curve"/>
      <point x="206" y="301" type="line"/>
      <point x="323" y="301" type="line" smooth="yes"/>
      <point x="350" y="301"/>
      <point x="381" y="300"/>
      <point x="429" y="298" type="curve" smooth="yes"/>
      <point x="455" y="297" type="line"/>
      <point x="474" y="342" type="line"/>
      <point x="470" y="349" type="line"/>
      <point x="389" y="345"/>
      <point x="329" y="343"/>
      <point x="251" y="343" type="curve" smooth="yes"/>
      <point x="214" y="343" type="line"/>
      <point x="260" y="614" type="line" smooth="yes"/>
      <point x="263" y="630"/>
      <point x="264" y="635"/>
      <point x="269" y="646" type="curve"/>
    </contour>
  </outline>
</glyph>
<glyph name="H" format="1">
  <advance width="778"/>
  <unicode hex="0048"/>
  <outline>
    <contour>
      <point x="221" y="385" type="line"/>
      <point x="263" y="613" type="line" smooth="yes"/>
      <point x="270" y="652"/>
      <point x="277" y="658"/>
      <point x="314" y="661" type="curve" smooth="yes"/>
      <point x="356" y="664" type="line"/>
      <point x="359" y="692" type="line"/>
      <point x="335" y="692" type="line"/>
      <point x="245" y="689" type="line" smooth="yes"/>
      <point x="229" y="689"/>
      <point x="211" y="689"/>
      <point x="168" y="690" type="curve" smooth="yes"/>
      <point x="104" y="692" type="line"/>
      <point x="101" y="664" type="line"/>
      <point x="148" y="662" type="line" smooth="yes"/>
      <point x="172" y="661"/>
      <point x="183" y="653"/>
      <point x="183" y="635" type="curve" smooth="yes"/>
      <point x="183" y="621"/>
      <point x="179" y="590"/>
      <point x="174" y="559" type="curve" smooth="yes"/>
      <point x="100" y="125" type="line" smooth="yes"/>
      <point x="83" y="33"/>
      <point x="82" y="32"/>
      <point x="42" y="28" type="curve" smooth="yes"/>
      <point x="1" y="25" type="line"/>
      <point x="-3" y="-3" type="line"/>
      <point x="39" y="-2" type="line" smooth="yes"/>
      <point x="87" y="-1"/>
      <point x="110" y="0"/>
      <point x="129" y="0" type="curve" smooth="yes"/>
      <point x="226" y="-3" type="line"/>
      <point x="252" y="-3" type="line"/>
      <point x="255" y="25" type="line"/>
      <point x="206" y="28" type="line" smooth="yes"/>
      <point x="179" y="30"/>
      <point x="170" y="37"/>
      <point x="170" y="58" type="curve" smooth="yes"/>
      <point x="170" y="67"/>
      <point x="171" y="74"/>
      <point x="174" y="93" type="curve" smooth="yes"/>
      <point x="216" y="340" type="line"/>
      <point x="277" y="341" type="line" smooth="yes"/>
      <point x="339" y="342"/>
      <point x="381" y="343"/>
      <point x="400" y="343" type="curve" smooth="yes"/>
      <point x="419" y="343"/>
      <point x="460" y="342"/>
      <point x="523" y="341" type="curve" smooth="yes"/>
      <point x="584" y="340" type="line"/>
      <point x="544" y="125" type="line" smooth="yes"/>
      <point x="535" y="76"/>
      <point x="528" y="48"/>
      <point x="523" y="42" type="curve"/>
      <point x="519" y="34"/>
      <point x="508" y="30"/>
      <point x="486" y="28" type="curve" smooth="yes"/>
      <point x="436" y="25" type="line"/>
      <point x="432" y="-3" type="line"/>
      <point x="488" y="-2" type="line" smooth="yes"/>
      <point x="532" y="-1"/>
      <point x="562" y="0"/>
      <point x="573" y="0" type="curve" smooth="yes"/>
      <point x="589" y="0"/>
      <point x="620" y="-1"/>
      <point x="663" y="-2" type="curve" smooth="yes"/>
      <point x="705" y="-3" type="line"/>
      <point x="708" y="25" type="line"/>
      <point x="650" y="28" type="line" smooth="yes"/>
      <point x="624" y="29"/>
      <point x="614" y="37"/>
      <point x="614" y="58" type="curve" smooth="yes"/>
      <point x="614" y="67"/>
      <point x="615" y="76"/>
      <point x="618" y="93" type="curve" smooth="yes"/>
      <point x="710" y="613" type="line" smooth="yes"/>
      <point x="717" y="652"/>
      <point x="723" y="657"/>
      <point x="761" y="661" type="curve" smooth="yes"/>
      <point x="797" y="664" type="line"/>
      <point x="800" y="692" type="line"/>
      <point x="784" y="692" type="line"/>
      <point x="693" y="689" type="line" smooth="yes"/>
      <point x="678" y="689"/>
      <point x="657" y="689"/>
      <point x="613" y="690" type="curve" smooth="yes"/>
      <point x="550" y="692" type="line"/>
      <point x="547" y="664" type="line"/>
      <point x="595" y="662" type="line" smooth="yes"/>
      <point x="619" y="661"/>
      <point x="630" y="653"/>
      <point x="630" y="635" type="curve" smooth="yes"/>
      <point x="630" y="621"/>
      <point x="626" y="589"/>
      <point x="621" y="559" type="curve" smooth="yes"/>
      <point x="591" y="385" type="line"/>
    </contour>
  </outline>
</glyph>
<glyph name="P" format="1">
  <advance width="611"/>
  <unicode hex="0050"/>
  <outline>
    <contour>
      <point x="105" y="664" type="line"/>
      <point x="160" y="662" type="line" smooth="yes"/>
      <point x="184" y="661"/>
      <point x="195" y="653"/>
      <point x="195" y="635" type="curve" smooth="yes"/>
      <point x="195" y="621"/>
      <point x="191" y="590"/>
      <point x="186" y="559" type="curve" smooth="yes"/>
      <point x="112" y="125" type="line" smooth="yes"/>
      <point x="95" y="34"/>
      <point x="94" y="31"/>
      <point x="54" y="28" type="curve" smooth="yes"/>
      <point x="13" y="25" type="line"/>
      <point x="9" y="-3" type="line"/>
      <point x="51" y="-2" type="line" smooth="yes"/>
      <point x="92" y="-1"/>
      <point x="123" y="0"/>
      <point x="141" y="0" type="curve" smooth="yes"/>
      <point x="158" y="0"/>
      <point x="187" y="-1"/>
      <point x="227" y="-2" type="curve" smooth="yes"/>
      <point x="280" y="-3" type="line"/>
      <point x="283" y="25" type="line"/>
      <point x="218" y="28" type="line" smooth="yes"/>
      <point x="192" y="29"/>
      <point x="182" y="37"/>
      <point x="182" y="58" type="curve" smooth="yes"/>
      <point x="182" y="67"/>
      <point x="183" y="74"/>
      <point x="186" y="93" type="curve" smooth="yes"/>
      <point x="268" y="580" type="line"/>
      <point x="268" y="581"/>
      <point x="272" y="601"/>
      <point x="277" y="620" type="curve"/>
      <point x="278" y="625"/>
      <point x="281" y="635"/>
      <point x="284" y="648" type="curve"/>
      <point x="320" y="654"/>
      <point x="336" y="656"/>
      <point x="355" y="656" type="curve" smooth="yes"/>
      <point x="457" y="656"/>
      <point x="506" y="612"/>
      <point x="506" y="519" type="curve" smooth="yes"/>
      <point x="506" y="411"/>
      <point x="434" y="323"/>
      <point x="346" y="323" type="curve" smooth="yes"/>
      <point x="324" y="323"/>
      <point x="304" y="328"/>
      <point x="267" y="342" type="curve"/>
      <point x="269" y="311" type="line"/>
      <point x="306" y="293"/>
      <point x="326" y="288"/>
      <point x="355" y="288" type="curve" smooth="yes"/>
      <point x="484" y="288"/>
      <point x="594" y="405"/>
      <point x="594" y="541" type="curve" smooth="yes"/>
      <point x="594" y="642"/>
      <point x="531" y="695"/>
      <point x="412" y="692" type="curve" smooth="yes"/>
      <point x="274" y="689" type="line"/>
      <point x="161" y="691" type="line"/>
      <point x="108" y="692" type="line"/>
    </contour>
  </outline>
</glyph>
<glyph name="Q" format="1">
  <advance width="778"/>
  <unicode hex="0051"/>
  <outline>
    <contour>
      <point x="151" y="-172" type="line"/>
      <point x="151" y="-95"/>
      <point x="175" y="-59"/>
      <point x="228" y="-59" type="curve" smooth="yes"/>
      <point x="257" y="-59"/>
      <point x="285" y="-67"/>
      <point x="324" y="-88" type="curve" smooth="yes"/>
      <point x="469" y="-164" type="line" smooth="yes"/>
      <point x="529" y="-195"/>
      <point x="547" y="-201"/>
      <point x="587" y="-201" type="curve" smooth="yes"/>
      <point x="662" y="-201"/>
      <point x="698" y="-158"/>
      <point x="708" y="-61" type="curve"/>
      <point x="683" y="-61" type="line"/>
      <point x="677" y="-115"/>
      <point x="655" y="-140"/>
      <point x="615" y="-140" type="curve" smooth="yes"/>
      <point x="598" y="-140"/>
      <point x="579" y="-135"/>
      <point x="553" y="-125" type="curve" smooth="yes"/>
      <point x="317" y="-29" type="line" smooth="yes"/>
      <point x="292" y="-19"/>
      <point x="274" y="-15"/>
      <point x="251" y="-15" type="curve" smooth="yes"/>
      <point x="177" y="-15"/>
      <point x="126" y="-66"/>
      <point x="126" y="-142" type="curve" smooth="yes"/>
      <point x="126" y="-144"/>
      <point x="126" y="-151"/>
      <point x="127" y="-159" type="curve"/>
    </contour>
    <contour>
      <point x="464" y="706" type="curve" smooth="yes"/>
      <point x="227" y="706"/>
      <point x="53" y="523"/>
      <point x="53" y="272" type="curve" smooth="yes"/>
      <point x="53" y="83"/>
      <point x="147" y="-18"/>
      <point x="323" y="-18" type="curve" smooth="yes"/>
      <point x="408" y="-18"/>
      <point x="479" y="1"/>
      <point x="544" y="42" type="curve" smooth="yes"/>
      <point x="670" y="120"/>
      <point x="748" y="267"/>
      <point x="748" y="425" type="curve" smooth="yes"/>
      <point x="748" y="603"/>
      <point x="644" y="706"/>
    </contour>
    <contour>
      <point x="433" y="664" type="curve" smooth="yes"/>
      <point x="481" y="664"/>
      <point x="530" y="652"/>
      <point x="563" y="632" type="curve" smooth="yes"/>
      <point x="628" y="594"/>
      <point x="660" y="519"/>
      <point x="660" y="409" type="curve" smooth="yes"/>
      <point x="660" y="283"/>
      <point x="620" y="170"/>
      <point x="552" y="100" type="curve" smooth="yes"/>
      <point x="503" y="50"/>
      <point x="438" y="24"/>
      <point x="360" y="24" type="curve" smooth="yes"/>
      <point x="216" y="24"/>
      <point x="141" y="110"/>
      <point x="141" y="277" type="curve" smooth="yes"/>
      <point x="141" y="407"/>
      <point x="181" y="524"/>
      <point x="250" y="593" type="curve" smooth="yes"/>
      <point x="297" y="641"/>
      <point x="357" y="664"/>
    </contour>
  </outline>
</glyph>
<glyph name="R" format="1">
  <advance width="667"/>
  <unicode hex="0052"/>
  <outline>
    <contour>
      <point x="105" y="664" type="line"/>
      <point x="161" y="662" type="line" smooth="yes"/>
      <point x="185" y="661"/>
      <point x="196" y="653"/>
      <point x="196" y="635" type="curve" smooth="yes"/>
      <point x="196" y="621"/>
      <point x="192" y="589"/>
      <point x="187" y="559" type="curve" smooth="yes"/>
      <point x="112" y="125" type="line" smooth="yes"/>
      <point x="96" y="34"/>
      <point x="94" y="32"/>
      <point x="54" y="28" type="curve" smooth="yes"/>
      <point x="13" y="25" type="line"/>
      <point x="9" y="-3" type="line"/>
      <point x="51" y="-2" type="line" smooth="yes"/>
      <point x="98" y="0"/>
      <point x="117" y="0"/>
      <point x="141" y="0" type="curve" smooth="yes"/>
      <point x="238" y="-3" type="line"/>
      <point x="264" y="-3" type="line"/>
      <point x="267" y="25" type="line"/>
      <point x="218" y="28" type="line" smooth="yes"/>
      <point x="191" y="30"/>
      <point x="182" y="38"/>
      <point x="182" y="58" type="curve" smooth="yes"/>
      <point x="182" y="67"/>
      <point x="183" y="76"/>
      <point x="186" y="93" type="curve" smooth="yes"/>
      <point x="271" y="580" type="line"/>
      <point x="271" y="582"/>
      <point x="276" y="602"/>
      <point x="280" y="620" type="curve" smooth="yes"/>
      <point x="282" y="628"/>
      <point x="284" y="635"/>
      <point x="287" y="648" type="curve"/>
      <point x="316" y="654"/>
      <point x="336" y="656"/>
      <point x="363" y="656" type="curve" smooth="yes"/>
      <point x="450" y="656"/>
      <point x="496" y="617"/>
      <point x="496" y="543" type="curve" smooth="yes"/>
      <point x="496" y="448"/>
      <point x="418" y="378"/>
      <point x="314" y="378" type="curve" smooth="yes"/>
      <point x="270" y="378" type="line"/>
      <point x="267" y="367" type="line"/>
      <point x="401" y="172"/>
      <point x="432" y="124"/>
      <point x="507" y="-3" type="curve"/>
      <point x="573" y="0" type="line"/>
      <point x="581" y="0" type="line"/>
      <point x="592" y="0" type="line" smooth="yes"/>
      <point x="593" y="0"/>
      <point x="607" y="-1"/>
      <point x="626" y="-3" type="curve"/>
      <point x="639" y="-3" type="line"/>
      <point x="639" y="24" type="line"/>
      <point x="599" y="29"/>
      <point x="588" y="37"/>
      <point x="559" y="79" type="curve" smooth="yes"/>
      <point x="375" y="354" type="line"/>
      <point x="430" y="364"/>
      <point x="459" y="376"/>
      <point x="495" y="402" type="curve" smooth="yes"/>
      <point x="553" y="444"/>
      <point x="584" y="499"/>
      <point x="584" y="560" type="curve" smooth="yes"/>
      <point x="584" y="646"/>
      <point x="520" y="694"/>
      <point x="409" y="692" type="curve"/>
      <point x="409" y="692"/>
      <point x="259" y="689"/>
      <point x="259" y="689" type="curve"/>
      <point x="244" y="689"/>
      <point x="226" y="689"/>
      <point x="108" y="692" type="curve"/>
    </contour>
  </outline>
</glyph>
<glyph name="S" format="1">
  <advance width="556"/>
  <unicode hex="0053"/>
  <outline>
    <contour>
      <point x="451" y="537" type="line"/>
      <point x="481" y="537" type="line"/>
      <point x="485" y="591"/>
      <point x="492" y="629"/>
      <point x="506" y="672" type="curve"/>
      <point x="461" y="696"/>
      <point x="421" y="706"/>
      <point x="374" y="706" type="curve" smooth="yes"/>
      <point x="301" y="706"/>
      <point x="225" y="675"/>
      <point x="172" y="621" type="curve" smooth="yes"/>
      <point x="129" y="580"/>
      <point x="108" y="529"/>
      <point x="108" y="471" type="curve" smooth="yes"/>
      <point x="108" y="386"/>
      <point x="146" y="339"/>
      <point x="230" y="319" type="curve" smooth="yes"/>
      <point x="325" y="296" type="line" smooth="yes"/>
      <point x="379" y="283"/>
      <point x="406" y="248"/>
      <point x="406" y="191" type="curve" smooth="yes"/>
      <point x="406" y="96"/>
      <point x="335" y="30"/>
      <point x="232" y="30" type="curve" smooth="yes"/>
      <point x="178" y="30"/>
      <point x="140" y="42"/>
      <point x="96" y="73" type="curve"/>
      <point x="96" y="172" type="line"/>
      <point x="66" y="172" type="line"/>
      <point x="60" y="117"/>
      <point x="53" y="72"/>
      <point x="42" y="20" type="curve"/>
      <point x="91" y="-5"/>
      <point x="144" y="-18"/>
      <point x="197" y="-18" type="curve" smooth="yes"/>
      <point x="352" y="-18"/>
      <point x="485" y="99"/>
      <point x="485" y="234" type="curve" smooth="yes"/>
      <point x="485" y="313"/>
      <point x="442" y="355"/>
      <point x="341" y="377" type="curve" smooth="yes"/>
      <point x="276" y="391" type="line" smooth="yes"/>
      <point x="210" y="405"/>
      <point x="180" y="442"/>
      <point x="180" y="508" type="curve" smooth="yes"/>
      <point x="180" y="595"/>
      <point x="247" y="658"/>
      <point x="339" y="658" type="curve" smooth="yes"/>
      <point x="388" y="658"/>
      <point x="421" y="645"/>
      <point x="451" y="613" type="curve"/>
    </contour>
  </outline>
</glyph>
<glyph name="V" format="1">
  <advance width="722"/>
  <unicode hex="0056"/>
  <outline>
    <contour>
      <point x="310" y="96" type="line"/>
      <point x="239" y="624" type="line"/>
      <point x="238" y="631" type="line" smooth="yes"/>
      <point x="236" y="650"/>
      <point x="251" y="661"/>
      <point x="281" y="662" type="curve" smooth="yes"/>
      <point x="323" y="664" type="line"/>
      <point x="323" y="692" type="line"/>
      <point x="282" y="691" type="line" smooth="yes"/>
      <point x="245" y="690"/>
      <point x="217" y="689"/>
      <point x="199" y="689" type="curve" smooth="yes"/>
      <point x="181" y="689"/>
      <point x="153" y="690"/>
      <point x="116" y="691" type="curve" smooth="yes"/>
      <point x="75" y="692" type="line"/>
      <point x="75" y="664" type="line"/>
      <point x="100" y="662" type="line" smooth="yes"/>
      <point x="144" y="659"/>
      <point x="152" y="651"/>
      <point x="159" y="614" type="curve" smooth="yes"/>
      <point x="247" y="-8" type="line"/>
      <point x="296" y="-8" type="line"/>
      <point x="674" y="611" type="line" smooth="yes"/>
      <point x="699" y="651"/>
      <point x="707" y="658"/>
      <point x="736" y="662" type="curve" smooth="yes"/>
      <point x="754" y="664" type="line"/>
      <point x="754" y="692" type="line"/>
      <point x="724" y="691" type="line" smooth="yes"/>
      <point x="697" y="690"/>
      <point x="674" y="689"/>
      <point x="658" y="689" type="curve" smooth="yes"/>
      <point x="648" y="689"/>
      <point x="621" y="690"/>
      <point x="580" y="691" type="curve" smooth="yes"/>
      <point x="534" y="692" type="line"/>
      <point x="534" y="664" type="line"/>
      <point x="560" y="662" type="line" smooth="yes"/>
      <point x="598" y="659"/>
      <point x="617" y="649"/>
      <point x="617" y="630" type="curve" smooth="yes"/>
      <point x="617" y="619"/>
      <point x="613" y="608"/>
      <point x="601" y="588" type="curve" smooth="yes"/>
    </contour>
  </outline>
</glyph>
<glyph name="W" format="1">
  <advance width="944"/>
  <unicode hex="0057"/>
  <outline>
    <contour>
      <point x="303" y="692" type="line"/>
      <point x="264" y="691" type="line" smooth="yes"/>
      <point x="226" y="689"/>
      <point x="202" y="689"/>
      <point x="182" y="689" type="curve" smooth="yes"/>
      <point x="170" y="689"/>
      <point x="148" y="690"/>
      <point x="110" y="691" type="curve" smooth="yes"/>
      <point x="71" y="692" type="line"/>
      <point x="71" y="664" type="line"/>
      <point x="89" y="662" type="line" smooth="yes"/>
      <point x="130" y="656"/>
      <point x="138" y="645"/>
      <point x="142" y="588" type="curve" smooth="yes"/>
      <point x="174" y="158" type="line" smooth="yes"/>
      <point x="179" y="92"/>
      <point x="181" y="44"/>
      <point x="182" y="-8" type="curve"/>
      <point x="232" y="-8" type="line"/>
      <point x="246" y="27"/>
      <point x="264" y="66"/>
      <point x="282" y="102" type="curve" smooth="yes"/>
      <point x="506" y="546" type="line"/>
      <point x="618" y="154" type="line" smooth="yes"/>
      <point x="633" y="102"/>
      <point x="644" y="53"/>
      <point x="657" y="-8" type="curve"/>
      <point x="708" y="-8" type="line"/>
      <point x="715" y="18" type="line" smooth="yes"/>
      <point x="725" y="58"/>
      <point x="733" y="85"/>
      <point x="746" y="124" type="curve" smooth="yes"/>
      <point x="917" y="631" type="line" smooth="yes"/>
      <point x="923" y="648"/>
      <point x="938" y="660"/>
      <point x="960" y="662" type="curve" smooth="yes"/>
      <point x="980" y="664" type="line"/>
      <point x="980" y="692" type="line"/>
      <point x="948" y="691" type="line" smooth="yes"/>
      <point x="919" y="690"/>
      <point x="897" y="689"/>
      <point x="883" y="689" type="curve" smooth="yes"/>
      <point x="870" y="689"/>
      <point x="848" y="690"/>
      <point x="818" y="691" type="curve" smooth="yes"/>
      <point x="785" y="692" type="line"/>
      <point x="780" y="664" type="line"/>
      <point x="819" y="662" type="line" smooth="yes"/>
      <point x="848" y="661"/>
      <point x="860" y="653"/>
      <point x="860" y="639" type="curve" smooth="yes"/>
      <point x="860" y="626"/>
      <point x="857" y="608"/>
      <point x="851" y="590" type="curve" smooth="yes"/>
      <point x="704" y="128" type="line"/>
      <point x="546" y="700" type="line"/>
      <point x="528" y="700" type="line"/>
      <point x="516" y="673"/>
      <point x="494" y="624"/>
      <point x="476" y="588" type="curve" smooth="yes"/>
      <point x="252" y="132" type="line"/>
      <point x="221" y="616" type="line"/>
      <point x="221" y="646"/>
      <point x="234" y="660"/>
      <point x="266" y="662" type="curve" smooth="yes"/>
      <point x="303" y="664" type="line"/>
    </contour>
  </outline>
</glyph>
<glyph name="X" format="1">
  <advance width="722"/>
  <unicode hex="0058"/>
  <outline>
    <contour>
      <point x="416" y="25" type="line"/>
      <point x="416" y="-3" type="line"/>
      <point x="464" y="-1"/>
      <point x="509" y="0"/>
      <point x="551" y="0" type="curve" smooth="yes"/>
      <point x="591" y="0"/>
      <point x="636" y="-1"/>
      <point x="684" y="-3" type="curve"/>
      <point x="684" y="25" type="line"/>
      <point x="659" y="27" type="line" smooth="yes"/>
      <point x="618" y="30"/>
      <point x="605" y="37"/>
      <point x="591" y="61" type="curve" smooth="yes"/>
      <point x="420" y="368" type="line"/>
      <point x="641" y="620" type="line" smooth="yes"/>
      <point x="671" y="653"/>
      <point x="680" y="659"/>
      <point x="706" y="662" type="curve" smooth="yes"/>
      <point x="734" y="664" type="line"/>
      <point x="734" y="692" type="line"/>
      <point x="734" y="692"/>
      <point x="620" y="689"/>
      <point x="620" y="689" type="curve"/>
      <point x="608" y="689"/>
      <point x="594" y="689"/>
      <point x="505" y="692" type="curve"/>
      <point x="505" y="664" type="line"/>
      <point x="538" y="662" type="line" smooth="yes"/>
      <point x="570" y="660"/>
      <point x="583" y="655"/>
      <point x="583" y="643" type="curve" smooth="yes"/>
      <point x="583" y="632"/>
      <point x="578" y="623"/>
      <point x="560" y="601" type="curve" smooth="yes"/>
      <point x="399" y="405" type="line"/>
      <point x="295" y="604" type="line" smooth="yes"/>
      <point x="286" y="622"/>
      <point x="281" y="634"/>
      <point x="281" y="642" type="curve" smooth="yes"/>
      <point x="281" y="654"/>
      <point x="294" y="660"/>
      <point x="324" y="662" type="curve" smooth="yes"/>
      <point x="361" y="664" type="line"/>
      <point x="361" y="692" type="line"/>
      <point x="315" y="691" type="line" smooth="yes"/>
      <point x="274" y="690"/>
      <point x="244" y="689"/>
      <point x="228" y="689" type="curve" smooth="yes"/>
      <point x="211" y="689"/>
      <point x="181" y="690"/>
      <point x="140" y="691" type="curve" smooth="yes"/>
      <point x="95" y="692" type="line"/>
      <point x="95" y="664" type="line"/>
      <point x="121" y="662" type="line" smooth="yes"/>
      <point x="170" y="657"/>
      <point x="182" y="650"/>
      <point x="202" y="613" type="curve" smooth="yes"/>
      <point x="348" y="343" type="line"/>
      <point x="110" y="61" type="line" smooth="yes"/>
      <point x="95" y="43"/>
      <point x="72" y="31"/>
      <point x="48" y="28" type="curve" smooth="yes"/>
      <point x="20" y="25" type="line"/>
      <point x="20" y="-3" type="line"/>
      <point x="69" y="-1"/>
      <point x="110" y="0"/>
      <point x="145" y="0" type="curve" smooth="yes"/>
      <point x="181" y="0"/>
      <point x="221" y="-1"/>
      <point x="264" y="-3" type="curve"/>
      <point x="264" y="25" type="line"/>
      <point x="232" y="28" type="line" smooth="yes"/>
      <point x="194" y="32"/>
      <point x="177" y="38"/>
      <point x="177" y="50" type="curve" smooth="yes"/>
      <point x="177" y="58"/>
      <point x="181" y="67"/>
      <point x="187" y="75" type="curve" smooth="yes"/>
      <point x="369" y="306" type="line"/>
      <point x="488" y="80" type="line" smooth="yes"/>
      <point x="497" y="62"/>
      <point x="502" y="49"/>
      <point x="502" y="40" type="curve" smooth="yes"/>
      <point x="502" y="32"/>
      <point x="495" y="29"/>
      <point x="470" y="29" type="curve"/>
      <point x="454" y="28" type="line"/>
    </contour>
  </outline>
</glyph>
<glyph name="Y" format="1">
  <advance width="667"/>
  <unicode hex="0059"/>
  <outline>
    <contour>
      <point x="52" y="647" type="line"/>
      <point x="55" y="623" type="line"/>
      <point x="78" y="632"/>
      <point x="89" y="635"/>
      <point x="100" y="635" type="curve" smooth="yes"/>
      <point x="147" y="635"/>
      <point x="183" y="589"/>
      <point x="224" y="477" type="curve" smooth="yes"/>
      <point x="248" y="410"/>
      <point x="287" y="273"/>
      <point x="286" y="257" type="curve"/>
      <point x="286" y="257"/>
      <point x="286" y="254"/>
      <point x="285" y="251" type="curve"/>
      <point x="264" y="125" type="line" smooth="yes"/>
      <point x="247" y="34"/>
      <point x="246" y="31"/>
      <point x="206" y="28" type="curve" smooth="yes"/>
      <point x="158" y="25" type="line"/>
      <point x="154" y="-3" type="line"/>
      <point x="207" y="-2" type="line" smooth="yes"/>
      <point x="254" y="-1"/>
      <point x="277" y="0"/>
      <point x="293" y="0" type="curve" smooth="yes"/>
      <point x="390" y="-3" type="line"/>
      <point x="416" y="-3" type="line"/>
      <point x="419" y="25" type="line"/>
      <point x="370" y="28" type="line" smooth="yes"/>
      <point x="343" y="30"/>
      <point x="334" y="37"/>
      <point x="334" y="57" type="curve" smooth="yes"/>
      <point x="334" y="63"/>
      <point x="335" y="73"/>
      <point x="336" y="78" type="curve" smooth="yes"/>
      <point x="362" y="246" type="line" smooth="yes"/>
      <point x="371" y="301"/>
      <point x="436" y="419"/>
      <point x="510" y="512" type="curve" smooth="yes"/>
      <point x="568" y="586"/>
      <point x="610" y="616"/>
      <point x="669" y="626" type="curve"/>
      <point x="675" y="697" type="line"/>
      <point x="602" y="678"/>
      <point x="549" y="636"/>
      <point x="474" y="536" type="curve" smooth="yes"/>
      <point x="413" y="452"/>
      <point x="374" y="384"/>
      <point x="346" y="310" type="curve"/>
      <point x="271" y="616"/>
      <point x="223" y="704"/>
      <point x="131" y="705" type="curve"/>
      <point x="127" y="702" type="line"/>
      <point x="124" y="699"/>
      <point x="121" y="697"/>
      <point x="118" y="695" type="curve"/>
      <point x="107" y="686"/>
      <point x="86" y="670"/>
      <point x="67" y="658" type="curve"/>
    </contour>
  </outline>
</glyph>
<glyph name="Z" format="1">
  <advance width="667"/>
  <unicode hex="005A"/>
  <outline>
    <contour>
      <point x="20" y="-3" type="line"/>
      <point x="116" y="-1"/>
      <point x="174" y="0"/>
      <point x="261" y="0" type="curve" smooth="yes"/>
      <point x="339" y="0"/>
      <point x="456" y="-1"/>
      <point x="517" y="-2" type="curve" smooth="yes"/>
      <point x="583" y="-3" type="line"/>
      <point x="585" y="38"/>
      <point x="593" y="95"/>
      <point x="606" y="164" type="curve"/>
      <point x="580" y="164" type="line"/>
      <point x="573" y="142" type="line"/>
      <point x="549" y="74" type="line"/>
      <point x="541" y="52" type="line"/>
      <point x="496" y="43"/>
      <point x="458" y="39"/>
      <point x="414" y="39" type="curve" smooth="yes"/>
      <point x="133" y="39" type="line"/>
      <point x="637" y="672" type="line"/>
      <point x="637" y="692" type="line"/>
      <point x="475" y="689" type="line"/>
      <point x="449" y="689" type="line"/>
      <point x="238" y="691" type="line"/>
      <point x="120" y="692" type="line"/>
      <point x="120" y="645"/>
      <point x="117" y="606"/>
      <point x="109" y="533" type="curve"/>
      <point x="135" y="533" type="line"/>
      <point x="138" y="555"/>
      <point x="144" y="580"/>
      <point x="156" y="619" type="curve" smooth="yes"/>
      <point x="162" y="639" type="line"/>
      <point x="218" y="649"/>
      <point x="256" y="652"/>
      <point x="342" y="652" type="curve" smooth="yes"/>
      <point x="522" y="652" type="line"/>
      <point x="20" y="19" type="line"/>
    </contour>
  </outline>
</glyph>
<glyph name="bracketleft" format="1">
  <advance width="333"/>
  <unicode hex="005B"/>
  <outline>
    <contour>
      <point x="326" y="733" type="line"/>
      <point x="309" y="733" type="line" smooth="yes"/>
      <point x="308" y="733"/>
      <point x="299" y="733"/>
      <point x="285" y="732" type="curve"/>
      <point x="279" y="731"/>
      <point x="254" y="731"/>
      <point x="240" y="731" type="curve" smooth="yes"/>
      <point x="226" y="731"/>
      <point x="202" y="731"/>
      <point x="195" y="732" type="curve"/>
      <point x="182" y="733"/>
      <point x="172" y="733"/>
      <point x="171" y="733" type="curve" smooth="yes"/>
      <point x="154" y="733" type="line"/>
      <point x="146" y="729" type="line"/>
      <point x="136" y="621"/>
      <point x="97" y="347"/>
      <point x="69" y="190" type="curve" smooth="yes"/>
      <point x="18" y="-95" type="line"/>
      <point x="20" y="-100" type="line"/>
      <point x="53" y="-98" type="line"/>
      <point x="53" y="-98"/>
      <point x="114" y="-97"/>
      <point x="114" y="-97" type="curve"/>
      <point x="129" y="-97"/>
      <point x="146" y="-97"/>
      <point x="166" y="-98" type="curve" smooth="yes"/>
      <point x="208" y="-100" type="line"/>
      <point x="213" y="-72" type="line"/>
      <point x="134" y="-65" type="line" smooth="yes"/>
      <point x="115" y="-63"/>
      <point x="106" y="-56"/>
      <point x="106" y="-44" type="curve" smooth="yes"/>
      <point x="106" y="-38"/>
      <point x="107" y="-29"/>
      <point x="109" y="-14" type="curve" smooth="yes"/>
      <point x="160" y="329" type="line" smooth="yes"/>
      <point x="170" y="399"/>
      <point x="196" y="560"/>
      <point x="201" y="582" type="curve" smooth="yes"/>
      <point x="217" y="667" type="line" smooth="yes"/>
      <point x="222" y="691"/>
      <point x="225" y="697"/>
      <point x="238" y="698" type="curve" smooth="yes"/>
      <point x="326" y="705" type="line"/>
    </contour>
  </outline>
</glyph>
<glyph name="backslash" format="1">
  <advance width="606"/>
  <unicode hex="005C"/>
  <outline>
    <contour>
      <point x="453" y="0" type="line"/>
      <point x="513" y="0" type="line"/>
      <point x="141" y="733" type="line"/>
      <point x="81" y="733" type="line"/>
    </contour>
  </outline>
</glyph>
<glyph name="bracketright" format="1">
  <advance width="333"/>
  <unicode hex="005D"/>
  <outline>
    <contour>
      <point x="7" y="-100" type="line"/>
      <point x="24" y="-100" type="line" smooth="yes"/>
      <point x="25" y="-100"/>
      <point x="34" y="-100"/>
      <point x="47" y="-99" type="curve"/>
      <point x="47" y="-99"/>
      <point x="93" y="-98"/>
      <point x="93" y="-98" type="curve"/>
      <point x="93" y="-98"/>
      <point x="138" y="-99"/>
      <point x="138" y="-99" type="curve"/>
      <point x="151" y="-100"/>
      <point x="161" y="-100"/>
      <point x="162" y="-100" type="curve" smooth="yes"/>
      <point x="179" y="-100" type="line"/>
      <point x="187" y="-96" type="line"/>
      <point x="196" y="-1"/>
      <point x="237" y="292"/>
      <point x="264" y="443" type="curve" smooth="yes"/>
      <point x="315" y="728" type="line"/>
      <point x="313" y="733" type="line"/>
      <point x="280" y="731" type="line"/>
      <point x="280" y="731"/>
      <point x="219" y="730"/>
      <point x="219" y="730" type="curve"/>
      <point x="204" y="730"/>
      <point x="187" y="730"/>
      <point x="167" y="731" type="curve" smooth="yes"/>
      <point x="125" y="733" type="line"/>
      <point x="120" y="705" type="line"/>
      <point x="199" y="698" type="line" smooth="yes"/>
      <point x="218" y="696"/>
      <point x="227" y="689"/>
      <point x="227" y="677" type="curve" smooth="yes"/>
      <point x="227" y="671"/>
      <point x="226" y="658"/>
      <point x="224" y="647" type="curve"/>
      <point x="223" y="644"/>
      <point x="223" y="644"/>
      <point x="223" y="642" type="curve"/>
      <point x="222" y="632"/>
      <point x="217" y="601"/>
      <point x="210" y="557" type="curve" smooth="yes"/>
      <point x="209" y="552"/>
      <point x="204" y="516"/>
      <point x="198" y="473" type="curve" smooth="yes"/>
      <point x="174" y="309"/>
      <point x="146" y="126"/>
      <point x="132" y="51" type="curve" smooth="yes"/>
      <point x="116" y="-34" type="line" smooth="yes"/>
      <point x="111" y="-58"/>
      <point x="108" y="-64"/>
      <point x="95" y="-65" type="curve" smooth="yes"/>
      <point x="7" y="-72" type="line"/>
    </contour>
  </outline>
</glyph>
<glyph name="grave" format="1">
  <advance width="333"/>
  <unicode hex="0060"/>
  <outline>
    <contour>
      <point x="276" y="518" type="line"/>
      <point x="310" y="518" type="line"/>
      <point x="157" y="669" type="line" smooth="yes"/>
      <point x="145" y="680"/>
      <point x="134" y="687"/>
      <point x="124" y="687" type="curve" smooth="yes"/>
      <point x="104" y="687"/>
      <point x="86" y="673"/>
      <point x="86" y="656" type="curve" smooth="yes"/>
      <point x="86" y="641"/>
      <point x="93" y="632"/>
      <point x="114" y="619" type="curve" smooth="yes"/>
    </contour>
  </outline>
</glyph>
<glyph name="b" format="1">
  <advance width="463"/>
  <unicode hex="0062"/>
  <outline>
    <contour>
      <point x="235" y="722" type="line"/>
      <point x="223" y="733" type="line"/>
      <point x="171" y="707"/>
      <point x="135" y="698"/>
      <point x="63" y="691" type="curve"/>
      <point x="59" y="670" type="line"/>
      <point x="107" y="670" type="line" smooth="yes"/>
      <point x="131" y="670"/>
      <point x="141" y="663"/>
      <point x="141" y="646" type="curve" smooth="yes"/>
      <point x="141" y="639"/>
      <point x="140" y="628"/>
      <point x="139" y="622" type="curve" smooth="yes"/>
      <point x="38" y="71" type="line"/>
      <point x="37" y="68"/>
      <point x="37" y="64"/>
      <point x="37" y="61" type="curve" smooth="yes"/>
      <point x="37" y="22"/>
      <point x="85" y="-11"/>
      <point x="140" y="-11" type="curve" smooth="yes"/>
      <point x="177" y="-11"/>
      <point x="228" y="8"/>
      <point x="271" y="39" type="curve" smooth="yes"/>
      <point x="367" y="107"/>
      <point x="433" y="244"/>
      <point x="433" y="376" type="curve" smooth="yes"/>
      <point x="433" y="414"/>
      <point x="424" y="453"/>
      <point x="412" y="468" type="curve" smooth="yes"/>
      <point x="405" y="477"/>
      <point x="392" y="482"/>
      <point x="377" y="482" type="curve" smooth="yes"/>
      <point x="353" y="482"/>
      <point x="323" y="474"/>
      <point x="295" y="460" type="curve" smooth="yes"/>
      <point x="244" y="433"/>
      <point x="211" y="403"/>
      <point x="149" y="324" type="curve"/>
    </contour>
    <contour>
      <point x="322" y="424" type="curve" smooth="yes"/>
      <point x="348" y="424"/>
      <point x="361" y="401"/>
      <point x="361" y="352" type="curve" smooth="yes"/>
      <point x="361" y="288"/>
      <point x="340" y="202"/>
      <point x="310" y="137" type="curve" smooth="yes"/>
      <point x="277" y="68"/>
      <point x="237" y="36"/>
      <point x="183" y="36" type="curve" smooth="yes"/>
      <point x="137" y="36"/>
      <point x="112" y="59"/>
      <point x="112" y="101" type="curve" smooth="yes"/>
      <point x="112" y="126"/>
      <point x="116" y="154"/>
      <point x="125" y="191" type="curve" smooth="yes"/>
      <point x="144" y="271"/>
      <point x="168" y="319"/>
      <point x="208" y="361" type="curve" smooth="yes"/>
      <point x="241" y="395"/>
      <point x="293" y="424"/>
    </contour>
  </outline>
</glyph>
<glyph name="e" format="1">
  <advance width="389"/>
  <unicode hex="0065"/>
  <outline>
    <contour>
      <point x="328" y="111" type="line"/>
      <point x="304" y="94" type="line" smooth="yes"/>
      <point x="251" y="56"/>
      <point x="203" y="36"/>
      <point x="167" y="36" type="curve" smooth="yes"/>
      <point x="120" y="36"/>
      <point x="91" y="73"/>
      <point x="91" y="133" type="curve" smooth="yes"/>
      <point x="91" y="158"/>
      <point x="94" y="185"/>
      <point x="99" y="214" type="curve"/>
      <point x="181" y="234" type="line" smooth="yes"/>
      <point x="198" y="238"/>
      <point x="225" y="248"/>
      <point x="250" y="259" type="curve" smooth="yes"/>
      <point x="335" y="296"/>
      <point x="374" y="342"/>
      <point x="374" y="404" type="curve" smooth="yes"/>
      <point x="374" y="451"/>
      <point x="340" y="482"/>
      <point x="290" y="482" type="curve" smooth="yes"/>
      <point x="225" y="482"/>
      <point x="114" y="413"/>
      <point x="75" y="349" type="curve" smooth="yes"/>
      <point x="45" y="299"/>
      <point x="15" y="180"/>
      <point x="15" y="113" type="curve" smooth="yes"/>
      <point x="15" y="35"/>
      <point x="59" y="-11"/>
      <point x="131" y="-11" type="curve" smooth="yes"/>
      <point x="188" y="-11"/>
      <point x="244" y="17"/>
      <point x="336" y="92" type="curve"/>
    </contour>
    <contour>
      <point x="113" y="274" type="line" smooth="yes"/>
      <point x="130" y="343"/>
      <point x="150" y="386"/>
      <point x="179" y="412" type="curve" smooth="yes"/>
      <point x="197" y="428"/>
      <point x="228" y="440"/>
      <point x="252" y="440" type="curve" smooth="yes"/>
      <point x="281" y="440"/>
      <point x="300" y="420"/>
      <point x="300" y="388" type="curve" smooth="yes"/>
      <point x="300" y="344"/>
      <point x="265" y="297"/>
      <point x="213" y="272" type="curve" smooth="yes"/>
      <point x="185" y="258"/>
      <point x="149" y="247"/>
      <point x="104" y="237" type="curve"/>
    </contour>
  </outline>
</glyph>
<glyph name="f" format="1">
  <advance width="278"/>
  <unicode hex="0066"/>
  <outline>
    <contour>
      <point x="286" y="383" type="line"/>
      <point x="290" y="402"/>
      <point x="297" y="425"/>
      <point x="303" y="439" type="curve"/>
      <point x="299" y="446" type="line"/>
      <point x="292" y="444" type="line" smooth="yes"/>
      <point x="268" y="438"/>
      <point x="257" y="437"/>
      <point x="208" y="437" type="curve" smooth="yes"/>
      <point x="192" y="437" type="line"/>
      <point x="213" y="549" type="line" smooth="yes"/>
      <point x="229" y="635"/>
      <point x="257" y="673"/>
      <point x="303" y="673" type="curve" smooth="yes"/>
      <point x="333" y="673"/>
      <point x="360" y="658"/>
      <point x="375" y="634" type="curve"/>
      <point x="385" y="638" type="line"/>
      <point x="390" y="654"/>
      <point x="400" y="685"/>
      <point x="408" y="705" type="curve"/>
      <point x="413" y="720" type="line"/>
      <point x="397" y="727"/>
      <point x="366" y="733"/>
      <point x="343" y="733" type="curve" smooth="yes"/>
      <point x="332" y="733"/>
      <point x="316" y="730"/>
      <point x="308" y="726" type="curve" smooth="yes"/>
      <point x="284" y="715"/>
      <point x="202" y="654"/>
      <point x="179" y="630" type="curve" smooth="yes"/>
      <point x="157" y="608"/>
      <point x="145" y="578"/>
      <point x="134" y="521" type="curve" smooth="yes"/>
      <point x="119" y="442" type="line"/>
      <point x="78" y="422"/>
      <point x="58" y="414"/>
      <point x="33" y="405" type="curve"/>
      <point x="28" y="383" type="line"/>
      <point x="109" y="383" type="line"/>
      <point x="100" y="327" type="line" smooth="yes"/>
      <point x="70" y="132"/>
      <point x="33" y="-54"/>
      <point x="11" y="-123" type="curve" smooth="yes"/>
      <point x="-7" y="-182"/>
      <point x="-37" y="-213"/>
      <point x="-73" y="-213" type="curve" smooth="yes"/>
      <point x="-96" y="-213"/>
      <point x="-107" y="-206"/>
      <point x="-125" y="-184" type="curve"/>
      <point x="-139" y="-188" type="line"/>
      <point x="-143" y="-211"/>
      <point x="-157" y="-259"/>
      <point x="-162" y="-268" type="curve"/>
      <point x="-153" y="-273"/>
      <point x="-138" y="-276"/>
      <point x="-127" y="-276" type="curve" smooth="yes"/>
      <point x="-86" y="-276"/>
      <point x="-32" y="-245"/>
      <point x="7" y="-198" type="curve" smooth="yes"/>
      <point x="68" y="-126"/>
      <point x="90" y="-56"/>
      <point x="163" y="295" type="curve" smooth="yes"/>
      <point x="166" y="307"/>
      <point x="174" y="345"/>
      <point x="182" y="383" type="curve"/>
    </contour>
  </outline>
</glyph>
<glyph name="i" format="1">
  <advance width="278"/>
  <unicode hex="0069"/>
  <outline>
    <contour>
      <point x="34" y="388" type="line"/>
      <point x="41" y="368" type="line"/>
      <point x="73" y="389" type="line" smooth="yes"/>
      <point x="110" y="412"/>
      <point x="113" y="414"/>
      <point x="120" y="414" type="curve" smooth="yes"/>
      <point x="130" y="414"/>
      <point x="138" y="404"/>
      <point x="138" y="391" type="curve" smooth="yes"/>
      <point x="138" y="384"/>
      <point x="134" y="361"/>
      <point x="130" y="347" type="curve" smooth="yes"/>
      <point x="64" y="107" type="line" smooth="yes"/>
      <point x="56" y="76"/>
      <point x="51" y="49"/>
      <point x="51" y="30" type="curve" smooth="yes"/>
      <point x="51" y="6"/>
      <point x="62" y="-9"/>
      <point x="81" y="-9" type="curve" smooth="yes"/>
      <point x="107" y="-9"/>
      <point x="143" y="12"/>
      <point x="241" y="85" type="curve"/>
      <point x="231" y="103" type="line"/>
      <point x="205" y="86" type="line" smooth="yes"/>
      <point x="176" y="67"/>
      <point x="153" y="56"/>
      <point x="144" y="56" type="curve" smooth="yes"/>
      <point x="137" y="56"/>
      <point x="131" y="66"/>
      <point x="131" y="76" type="curve" smooth="yes"/>
      <point x="131" y="86"/>
      <point x="133" y="95"/>
      <point x="138" y="116" type="curve" smooth="yes"/>
      <point x="215" y="420" type="line" smooth="yes"/>
      <point x="219" y="437"/>
      <point x="221" y="448"/>
      <point x="221" y="456" type="curve" smooth="yes"/>
      <point x="221" y="473"/>
      <point x="212" y="482"/>
      <point x="196" y="482" type="curve" smooth="yes"/>
      <point x="174" y="482"/>
      <point x="137" y="461"/>
      <point x="62" y="408" type="curve" smooth="yes"/>
    </contour>
    <contour>
      <point x="228" y="712" type="curve" smooth="yes"/>
      <point x="199" y="712"/>
      <point x="170" y="679"/>
      <point x="170" y="645" type="curve" smooth="yes"/>
      <point x="170" y="620"/>
      <point x="185" y="604"/>
      <point x="209" y="604" type="curve" smooth="yes"/>
      <point x="240" y="604"/>
      <point x="264" y="633"/>
      <point x="264" y="671" type="curve" smooth="yes"/>
      <point x="264" y="695"/>
      <point x="249" y="712"/>
    </contour>
  </outline>
</glyph>
<glyph name="j" format="1">
  <advance width="278"/>
  <unicode hex="006A"/>
  <outline>
    <contour>
      <point x="-70" y="-269" type="line"/>
      <point x="-60" y="-274"/>
      <point x="-47" y="-276"/>
      <point x="-32" y="-276" type="curve" smooth="yes"/>
      <point x="8" y="-276"/>
      <point x="48" y="-233"/>
      <point x="84" y="-152" type="curve" smooth="yes"/>
      <point x="104" y="-107"/>
      <point x="118" y="-57"/>
      <point x="146" y="70" type="curve" smooth="yes"/>
      <point x="222" y="420" type="line" smooth="yes"/>
      <point x="226" y="438"/>
      <point x="228" y="451"/>
      <point x="228" y="457" type="curve" smooth="yes"/>
      <point x="228" y="473"/>
      <point x="219" y="482"/>
      <point x="203" y="482" type="curve" smooth="yes"/>
      <point x="181" y="482"/>
      <point x="144" y="461"/>
      <point x="69" y="408" type="curve" smooth="yes"/>
      <point x="41" y="388" type="line"/>
      <point x="48" y="368" type="line"/>
      <point x="80" y="389" type="line" smooth="yes"/>
      <point x="117" y="412"/>
      <point x="120" y="414"/>
      <point x="127" y="414" type="curve" smooth="yes"/>
      <point x="137" y="414"/>
      <point x="145" y="404"/>
      <point x="145" y="391" type="curve" smooth="yes"/>
      <point x="145" y="387"/>
      <point x="143" y="374"/>
      <point x="140" y="363" type="curve"/>
      <point x="139" y="357"/>
      <point x="138" y="353"/>
      <point x="138" y="351" type="curve"/>
      <point x="38" y="-144" type="line" smooth="yes"/>
      <point x="27" y="-196"/>
      <point x="9" y="-231"/>
      <point x="-9" y="-231" type="curve" smooth="yes"/>
      <point x="-23" y="-231"/>
      <point x="-41" y="-225"/>
      <point x="-62" y="-212" type="curve"/>
    </contour>
    <contour>
      <point x="229" y="712" type="curve" smooth="yes"/>
      <point x="200" y="712"/>
      <point x="171" y="679"/>
      <point x="171" y="645" type="curve" smooth="yes"/>
      <point x="171" y="620"/>
      <point x="186" y="604"/>
      <point x="210" y="604" type="curve" smooth="yes"/>
      <point x="241" y="604"/>
      <point x="265" y="633"/>
      <point x="265" y="671" type="curve" smooth="yes"/>
      <point x="265" y="695"/>
      <point x="250" y="712"/>
    </contour>
  </outline>
</glyph>
<glyph name="k" format="1">
  <advance width="444"/>
  <unicode hex="006B"/>
  <outline>
    <contour>
      <point x="234" y="722" type="line"/>
      <point x="222" y="733" type="line"/>
      <point x="170" y="707"/>
      <point x="134" y="698"/>
      <point x="62" y="691" type="curve"/>
      <point x="58" y="670" type="line"/>
      <point x="106" y="670" type="line" smooth="yes"/>
      <point x="130" y="670"/>
      <point x="140" y="663"/>
      <point x="140" y="646" type="curve" smooth="yes"/>
      <point x="140" y="638"/>
      <point x="139" y="629"/>
      <point x="138" y="622" type="curve" smooth="yes"/>
      <point x="90" y="354" type="line" smooth="yes"/>
      <point x="76" y="279"/>
      <point x="60" y="210"/>
      <point x="8" y="1" type="curve"/>
      <point x="17" y="-9" type="line"/>
      <point x="84" y="8" type="line"/>
      <point x="107" y="132" type="line" smooth="yes"/>
      <point x="116" y="180"/>
      <point x="140" y="225"/>
      <point x="174" y="259" type="curve"/>
      <point x="243" y="59"/>
      <point x="275" y="-9"/>
      <point x="300" y="-9" type="curve" smooth="yes"/>
      <point x="313" y="-9"/>
      <point x="337" y="4"/>
      <point x="381" y="35" type="curve" smooth="yes"/>
      <point x="427" y="67" type="line"/>
      <point x="419" y="86" type="line"/>
      <point x="376" y="62" type="line" smooth="yes"/>
      <point x="362" y="54"/>
      <point x="355" y="52"/>
      <point x="347" y="52" type="curve" smooth="yes"/>
      <point x="337" y="52"/>
      <point x="330" y="58"/>
      <point x="321" y="75" type="curve" smooth="yes"/>
      <point x="286" y="139"/>
      <point x="264" y="193"/>
      <point x="225" y="316" type="curve"/>
      <point x="239" y="330" type="line" smooth="yes"/>
      <point x="300" y="391"/>
      <point x="346" y="416"/>
      <point x="396" y="416" type="curve" smooth="yes"/>
      <point x="404" y="416"/>
      <point x="415" y="414"/>
      <point x="432" y="410" type="curve"/>
      <point x="449" y="473" type="line"/>
      <point x="431" y="479"/>
      <point x="413" y="482"/>
      <point x="401" y="482" type="curve" smooth="yes"/>
      <point x="335" y="482"/>
      <point x="252" y="405"/>
      <point x="127" y="230" type="curve"/>
    </contour>
  </outline>
</glyph>
<glyph name="m" format="1">
  <advance width="778"/>
  <unicode hex="006D"/>
  <outline>
    <contour>
      <point x="730" y="103" type="line"/>
      <point x="704" y="86" type="line" smooth="yes"/>
      <point x="675" y="67"/>
      <point x="653" y="56"/>
      <point x="643" y="56" type="curve" smooth="yes"/>
      <point x="636" y="56"/>
      <point x="630" y="65"/>
      <point x="630" y="76" type="curve" smooth="yes"/>
      <point x="630" y="86"/>
      <point x="632" y="95"/>
      <point x="637" y="116" type="curve" smooth="yes"/>
      <point x="712" y="413" type="line" smooth="yes"/>
      <point x="716" y="430"/>
      <point x="719" y="446"/>
      <point x="719" y="454" type="curve" smooth="yes"/>
      <point x="719" y="471"/>
      <point x="709" y="482"/>
      <point x="693" y="482" type="curve" smooth="yes"/>
      <point x="664" y="482"/>
      <point x="626" y="464"/>
      <point x="565" y="421" type="curve" smooth="yes"/>
      <point x="502" y="376"/>
      <point x="467" y="341"/>
      <point x="418" y="272" type="curve"/>
      <point x="448" y="409" type="line" smooth="yes"/>
      <point x="452" y="429"/>
      <point x="455" y="444"/>
      <point x="455" y="451" type="curve" smooth="yes"/>
      <point x="455" y="470"/>
      <point x="445" y="482"/>
      <point x="429" y="482" type="curve" smooth="yes"/>
      <point x="399" y="482"/>
      <point x="353" y="460"/>
      <point x="298" y="418" type="curve" smooth="yes"/>
      <point x="254" y="384"/>
      <point x="234" y="363"/>
      <point x="169" y="275" type="curve"/>
      <point x="202" y="408" type="line" smooth="yes"/>
      <point x="206" y="424"/>
      <point x="208" y="439"/>
      <point x="208" y="451" type="curve" smooth="yes"/>
      <point x="208" y="470"/>
      <point x="199" y="482"/>
      <point x="185" y="482" type="curve" smooth="yes"/>
      <point x="164" y="482"/>
      <point x="126" y="461"/>
      <point x="52" y="408" type="curve" smooth="yes"/>
      <point x="24" y="388" type="line"/>
      <point x="31" y="368" type="line"/>
      <point x="63" y="389" type="line" smooth="yes"/>
      <point x="100" y="412"/>
      <point x="103" y="414"/>
      <point x="110" y="414" type="curve" smooth="yes"/>
      <point x="121" y="414"/>
      <point x="128" y="404"/>
      <point x="128" y="389" type="curve" smooth="yes"/>
      <point x="128" y="338"/>
      <point x="87" y="145"/>
      <point x="46" y="2" type="curve"/>
      <point x="49" y="-9" type="line"/>
      <point x="117" y="6" type="line"/>
      <point x="139" y="108" type="line" smooth="yes"/>
      <point x="163" y="219"/>
      <point x="190" y="278"/>
      <point x="245" y="338" type="curve" smooth="yes"/>
      <point x="287" y="384"/>
      <point x="332" y="414"/>
      <point x="360" y="414" type="curve" smooth="yes"/>
      <point x="367" y="414"/>
      <point x="371" y="406"/>
      <point x="371" y="393" type="curve" smooth="yes"/>
      <point x="371" y="358"/>
      <point x="349" y="244"/>
      <point x="308" y="69" type="curve" smooth="yes"/>
      <point x="292" y="2" type="line"/>
      <point x="297" y="-9" type="line"/>
      <point x="366" y="6" type="line"/>
      <point x="387" y="113" type="line" smooth="yes"/>
      <point x="403" y="194"/>
      <point x="437" y="269"/>
      <point x="481" y="318" type="curve" smooth="yes"/>
      <point x="536" y="379"/>
      <point x="586" y="414"/>
      <point x="618" y="414" type="curve" smooth="yes"/>
      <point x="626" y="414"/>
      <point x="631" y="405"/>
      <point x="631" y="389" type="curve" smooth="yes"/>
      <point x="631" y="365"/>
      <point x="628" y="351"/>
      <point x="606" y="264" type="curve" smooth="yes"/>
      <point x="590" y="201"/>
      <point x="573" y="141"/>
      <point x="563" y="107" type="curve" smooth="yes"/>
      <point x="554" y="79"/>
      <point x="550" y="53"/>
      <point x="550" y="31" type="curve" smooth="yes"/>
      <point x="550" y="6"/>
      <point x="561" y="-9"/>
      <point x="580" y="-9" type="curve" smooth="yes"/>
      <point x="606" y="-9"/>
      <point x="642" y="12"/>
      <point x="740" y="85" type="curve"/>
    </contour>
  </outline>
</glyph>
<glyph name="o" format="1">
  <advance width="444"/>
  <unicode hex="006F"/>
  <outline>
    <contour>
      <point x="278" y="482" type="curve" smooth="yes"/>
      <point x="235" y="482"/>
      <point x="188" y="465"/>
      <point x="143" y="433" type="curve" smooth="yes"/>
      <point x="62" y="375"/>
      <point x="17" y="274"/>
      <point x="17" y="152" type="curve" smooth="yes"/>
      <point x="17" y="46"/>
      <point x="62" y="-11"/>
      <point x="145" y="-11" type="curve" smooth="yes"/>
      <point x="200" y="-11"/>
      <point x="260" y="15"/>
      <point x="305" y="57" type="curve" smooth="yes"/>
      <point x="367" y="116"/>
      <point x="411" y="230"/>
      <point x="411" y="331" type="curve" smooth="yes"/>
      <point x="411" y="425"/>
      <point x="361" y="482"/>
    </contour>
    <contour>
      <point x="241" y="444" type="curve" smooth="yes"/>
      <point x="302" y="444"/>
      <point x="335" y="399"/>
      <point x="335" y="315" type="curve" smooth="yes"/>
      <point x="335" y="219"/>
      <point x="304" y="113"/>
      <point x="260" y="60" type="curve" smooth="yes"/>
      <point x="242" y="39"/>
      <point x="216" y="27"/>
      <point x="185" y="27" type="curve" smooth="yes"/>
      <point x="127" y="27"/>
      <point x="93" y="72"/>
      <point x="93" y="151" type="curve" smooth="yes"/>
      <point x="93" y="264"/>
      <point x="132" y="387"/>
      <point x="181" y="427" type="curve" smooth="yes"/>
      <point x="194" y="438"/>
      <point x="217" y="444"/>
    </contour>
  </outline>
</glyph>
<glyph name="q" format="1">
  <advance width="463"/>
  <unicode hex="0071"/>
  <outline>
    <contour>
      <point x="385" y="458" type="line"/>
      <point x="342" y="475"/>
      <point x="313" y="482"/>
      <point x="284" y="482" type="curve" smooth="yes"/>
      <point x="257" y="482"/>
      <point x="233" y="474"/>
      <point x="205" y="457" type="curve" smooth="yes"/>
      <point x="169" y="435"/>
      <point x="125" y="399"/>
      <point x="103" y="374" type="curve" smooth="yes"/>
      <point x="63" y="327"/>
      <point x="24" y="181"/>
      <point x="24" y="78" type="curve" smooth="yes"/>
      <point x="24" y="19"/>
      <point x="36" y="-11"/>
      <point x="60" y="-11" type="curve" smooth="yes"/>
      <point x="82" y="-11"/>
      <point x="101" y="-3"/>
      <point x="133" y="19" type="curve" smooth="yes"/>
      <point x="141" y="25" type="line" smooth="yes"/>
      <point x="206" y="71"/>
      <point x="271" y="143"/>
      <point x="308" y="209" type="curve"/>
      <point x="232" y="-205" type="line" smooth="yes"/>
      <point x="227" y="-229"/>
      <point x="217" y="-249"/>
      <point x="205" y="-262" type="curve"/>
      <point x="214" y="-276" type="line"/>
      <point x="245" y="-268"/>
      <point x="276" y="-262"/>
      <point x="300" y="-259" type="curve"/>
      <point x="304" y="-205"/>
      <point x="310" y="-150"/>
      <point x="319" y="-100" type="curve" smooth="yes"/>
      <point x="405" y="356" type="line" smooth="yes"/>
      <point x="416" y="417"/>
      <point x="422" y="443"/>
      <point x="432" y="474" type="curve"/>
      <point x="418" y="480" type="line"/>
    </contour>
    <contour>
      <point x="330" y="311" type="line" smooth="yes"/>
      <point x="319" y="260"/>
      <point x="297" y="216"/>
      <point x="260" y="170" type="curve" smooth="yes"/>
      <point x="208" y="106"/>
      <point x="147" y="59"/>
      <point x="118" y="59" type="curve" smooth="yes"/>
      <point x="104" y="59"/>
      <point x="96" y="80"/>
      <point x="96" y="113" type="curve" smooth="yes"/>
      <point x="96" y="209"/>
      <point x="139" y="359"/>
      <point x="181" y="409" type="curve" smooth="yes"/>
      <point x="193" y="424"/>
      <point x="222" y="433"/>
      <point x="254" y="433" type="curve" smooth="yes"/>
      <point x="282" y="433"/>
      <point x="303" y="427"/>
      <point x="351" y="406" type="curve"/>
    </contour>
  </outline>
</glyph>
<glyph name="r" format="1">
  <advance width="389"/>
  <unicode hex="0072"/>
  <outline>
    <contour>
      <point x="368" y="365" type="line"/>
      <point x="371" y="403"/>
      <point x="376" y="435"/>
      <point x="384" y="476" type="curve"/>
      <point x="373" y="481"/>
      <point x="369" y="482"/>
      <point x="364" y="482" type="curve" smooth="yes"/>
      <point x="333" y="482"/>
      <point x="302" y="458"/>
      <point x="266" y="407" type="curve" smooth="yes"/>
      <point x="239" y="368" type="line" smooth="yes"/>
      <point x="200" y="312"/>
      <point x="188" y="291"/>
      <point x="172" y="256" type="curve"/>
      <point x="180" y="297" type="line" smooth="yes"/>
      <point x="184" y="320"/>
      <point x="192" y="360"/>
      <point x="198" y="382" type="curve" smooth="yes"/>
      <point x="204" y="408" type="line" smooth="yes"/>
      <point x="208" y="425"/>
      <point x="210" y="438"/>
      <point x="210" y="450" type="curve" smooth="yes"/>
      <point x="210" y="470"/>
      <point x="202" y="482"/>
      <point x="187" y="482" type="curve" smooth="yes"/>
      <point x="166" y="482"/>
      <point x="128" y="461"/>
      <point x="54" y="408" type="curve" smooth="yes"/>
      <point x="26" y="388" type="line"/>
      <point x="33" y="368" type="line"/>
      <point x="65" y="389" type="line" smooth="yes"/>
      <point x="93" y="407"/>
      <point x="104" y="412"/>
      <point x="113" y="412" type="curve" smooth="yes"/>
      <point x="123" y="412"/>
      <point x="130" y="403"/>
      <point x="130" y="390" type="curve" smooth="yes"/>
      <point x="130" y="332"/>
      <point x="87" y="126"/>
      <point x="47" y="-2" type="curve"/>
      <point x="57" y="-9" type="line"/>
      <point x="72" y="-4"/>
      <point x="88" y="-1"/>
      <point x="111" y="4" type="curve"/>
      <point x="124" y="6" type="line"/>
      <point x="150" y="126" type="line" smooth="yes"/>
      <point x="168" y="209"/>
      <point x="191" y="262"/>
      <point x="235" y="319" type="curve" smooth="yes"/>
      <point x="269" y="363"/>
      <point x="296" y="384"/>
      <point x="318" y="384" type="curve" smooth="yes"/>
      <point x="333" y="384"/>
      <point x="343" y="379"/>
      <point x="354" y="365" type="curve"/>
    </contour>
  </outline>
</glyph>
<glyph name="v" format="1">
  <advance width="500"/>
  <unicode hex="0076"/>
  <outline>
    <contour>
      <point x="332" y="423" type="line"/>
      <point x="343" y="404" type="line"/>
      <point x="352" y="410"/>
      <point x="361" y="413"/>
      <point x="370" y="413" type="curve" smooth="yes"/>
      <point x="397" y="413"/>
      <point x="413" y="390"/>
      <point x="413" y="350" type="curve" smooth="yes"/>
      <point x="413" y="202"/>
      <point x="316" y="39"/>
      <point x="228" y="39" type="curve" smooth="yes"/>
      <point x="179" y="39"/>
      <point x="148" y="81"/>
      <point x="148" y="146" type="curve" smooth="yes"/>
      <point x="148" y="251"/>
      <point x="187" y="342"/>
      <point x="285" y="464" type="curve"/>
      <point x="275" y="482" type="line"/>
      <point x="255" y="473"/>
      <point x="242" y="470"/>
      <point x="214" y="470" type="curve" smooth="yes"/>
      <point x="186" y="470"/>
      <point x="144" y="472"/>
      <point x="115" y="475" type="curve" smooth="yes"/>
      <point x="103" y="476" type="line"/>
      <point x="97" y="477"/>
      <point x="92" y="477"/>
      <point x="91" y="477" type="curve" smooth="yes"/>
      <point x="79" y="477"/>
      <point x="70" y="475"/>
      <point x="59" y="470" type="curve"/>
      <point x="45" y="443"/>
      <point x="34" y="407"/>
      <point x="21" y="352" type="curve"/>
      <point x="43" y="352" type="line"/>
      <point x="60" y="394" type="line" smooth="yes"/>
      <point x="67" y="411"/>
      <point x="87" y="422"/>
      <point x="111" y="422" type="curve" smooth="yes"/>
      <point x="116" y="422"/>
      <point x="125" y="422"/>
      <point x="138" y="421" type="curve" smooth="yes"/>
      <point x="146" y="420"/>
      <point x="153" y="420"/>
      <point x="166" y="420" type="curve" smooth="yes"/>
      <point x="187" y="420"/>
      <point x="203" y="421"/>
      <point x="229" y="424" type="curve"/>
      <point x="118" y="304"/>
      <point x="76" y="221"/>
      <point x="76" y="121" type="curve" smooth="yes"/>
      <point x="76" y="44"/>
      <point x="122" y="-11"/>
      <point x="186" y="-11" type="curve" smooth="yes"/>
      <point x="228" y="-11"/>
      <point x="266" y="7"/>
      <point x="312" y="48" type="curve" smooth="yes"/>
      <point x="359" y="91"/>
      <point x="407" y="158"/>
      <point x="438" y="227" type="curve" smooth="yes"/>
      <point x="460" y="277"/>
      <point x="477" y="344"/>
      <point x="477" y="384" type="curve" smooth="yes"/>
      <point x="477" y="441"/>
      <point x="451" y="482"/>
      <point x="415" y="482" type="curve" smooth="yes"/>
      <point x="402" y="482"/>
      <point x="390" y="478"/>
      <point x="382" y="470" type="curve" smooth="yes"/>
    </contour>
  </outline>
</glyph>
<glyph name="w" format="1">
  <advance width="722"/>
  <unicode hex="0077"/>
  <outline>
    <contour>
      <point x="554" y="423" type="line"/>
      <point x="565" y="404" type="line"/>
      <point x="574" y="410"/>
      <point x="583" y="413"/>
      <point x="592" y="413" type="curve" smooth="yes"/>
      <point x="619" y="413"/>
      <point x="635" y="390"/>
      <point x="635" y="350" type="curve" smooth="yes"/>
      <point x="635" y="205"/>
      <point x="538" y="39"/>
      <point x="453" y="39" type="curve" smooth="yes"/>
      <point x="424" y="39"/>
      <point x="403" y="79"/>
      <point x="403" y="134" type="curve" smooth="yes"/>
      <point x="403" y="181"/>
      <point x="412" y="247"/>
      <point x="424" y="290" type="curve" smooth="yes"/>
      <point x="476" y="474" type="line"/>
      <point x="469" y="482" type="line"/>
      <point x="395" y="460" type="line"/>
      <point x="366" y="311" type="line" smooth="yes"/>
      <point x="354" y="249"/>
      <point x="340" y="209"/>
      <point x="311" y="155" type="curve" smooth="yes"/>
      <point x="271" y="80"/>
      <point x="233" y="39"/>
      <point x="203" y="39" type="curve" smooth="yes"/>
      <point x="168" y="39"/>
      <point x="145" y="78"/>
      <point x="145" y="136" type="curve" smooth="yes"/>
      <point x="145" y="255"/>
      <point x="186" y="352"/>
      <point x="285" y="464" type="curve"/>
      <point x="275" y="482" type="line"/>
      <point x="255" y="473"/>
      <point x="242" y="470"/>
      <point x="214" y="470" type="curve" smooth="yes"/>
      <point x="186" y="470"/>
      <point x="144" y="472"/>
      <point x="115" y="475" type="curve" smooth="yes"/>
      <point x="103" y="476" type="line"/>
      <point x="97" y="477"/>
      <point x="92" y="477"/>
      <point x="91" y="477" type="curve" smooth="yes"/>
      <point x="79" y="477"/>
      <point x="70" y="475"/>
      <point x="59" y="470" type="curve"/>
      <point x="45" y="443"/>
      <point x="34" y="407"/>
      <point x="21" y="352" type="curve"/>
      <point x="43" y="352" type="line"/>
      <point x="60" y="394" type="line" smooth="yes"/>
      <point x="67" y="411"/>
      <point x="87" y="422"/>
      <point x="111" y="422" type="curve" smooth="yes"/>
      <point x="116" y="422"/>
      <point x="125" y="422"/>
      <point x="138" y="421" type="curve" smooth="yes"/>
      <point x="146" y="420"/>
      <point x="154" y="420"/>
      <point x="167" y="420" type="curve" smooth="yes"/>
      <point x="188" y="420"/>
      <point x="201" y="421"/>
      <point x="226" y="424" type="curve"/>
      <point x="223" y="420" type="line" smooth="yes"/>
      <point x="217" y="412"/>
      <point x="213" y="407"/>
      <point x="196" y="388" type="curve" smooth="yes"/>
      <point x="106" y="283"/>
      <point x="72" y="211"/>
      <point x="72" y="126" type="curve" smooth="yes"/>
      <point x="72" y="44"/>
      <point x="107" y="-11"/>
      <point x="160" y="-11" type="curve" smooth="yes"/>
      <point x="224" y="-11"/>
      <point x="276" y="44"/>
      <point x="350" y="187" type="curve"/>
      <point x="341" y="143"/>
      <point x="338" y="118"/>
      <point x="338" y="95" type="curve" smooth="yes"/>
      <point x="338" y="32"/>
      <point x="367" y="-11"/>
      <point x="412" y="-11" type="curve" smooth="yes"/>
      <point x="493" y="-11"/>
      <point x="598" y="90"/>
      <point x="660" y="227" type="curve" smooth="yes"/>
      <point x="682" y="277"/>
      <point x="699" y="344"/>
      <point x="699" y="384" type="curve" smooth="yes"/>
      <point x="699" y="441"/>
      <point x="673" y="482"/>
      <point x="637" y="482" type="curve" smooth="yes"/>
      <point x="624" y="482"/>
      <point x="612" y="478"/>
      <point x="604" y="470" type="curve" smooth="yes"/>
    </contour>
  </outline>
</glyph>
<glyph name="braceleft" format="1">
  <advance width="333"/>
  <unicode hex="007B"/>
  <outline>
    <contour>
      <point x="45" y="46" type="line" smooth="yes"/>
      <point x="42" y="27"/>
      <point x="40" y="8"/>
      <point x="40" y="-10" type="curve" smooth="yes"/>
      <point x="40" y="-50"/>
      <point x="53" y="-75"/>
      <point x="80" y="-87" type="curve" smooth="yes"/>
      <point x="101" y="-96"/>
      <point x="123" y="-99"/>
      <point x="175" y="-100" type="curve"/>
      <point x="126" y="-87"/>
      <point x="109" y="-66"/>
      <point x="109" y="-17" type="curve" smooth="yes"/>
      <point x="109" y="-3"/>
      <point x="110" y="7"/>
      <point x="112" y="20" type="curve" smooth="yes"/>
      <point x="140" y="182" type="line" smooth="yes"/>
      <point x="144" y="205"/>
      <point x="146" y="225"/>
      <point x="146" y="241" type="curve" smooth="yes"/>
      <point x="146" y="281"/>
      <point x="128" y="300"/>
      <point x="79" y="315" type="curve"/>
      <point x="147" y="332"/>
      <point x="171" y="360"/>
      <point x="185" y="441" type="curve" smooth="yes"/>
      <point x="215" y="613" type="line" smooth="yes"/>
      <point x="228" y="686"/>
      <point x="255" y="717"/>
      <point x="319" y="733" type="curve"/>
      <point x="201" y="733"/>
      <point x="159" y="702"/>
      <point x="140" y="599" type="curve" smooth="yes"/>
      <point x="111" y="427" type="line" smooth="yes"/>
      <point x="100" y="360"/>
      <point x="77" y="333"/>
      <point x="15" y="315" type="curve"/>
      <point x="61" y="300"/>
      <point x="76" y="284"/>
      <point x="76" y="247" type="curve" smooth="yes"/>
      <point x="76" y="232"/>
      <point x="75" y="218"/>
      <point x="72" y="202" type="curve" smooth="yes"/>
    </contour>
  </outline>
</glyph>
<glyph name="braceright" format="1">
  <advance width="333"/>
  <unicode hex="007D"/>
  <outline>
    <contour>
      <point x="288" y="587" type="line" smooth="yes"/>
      <point x="291" y="606"/>
      <point x="293" y="625"/>
      <point x="293" y="642" type="curve" smooth="yes"/>
      <point x="293" y="683"/>
      <point x="280" y="708"/>
      <point x="253" y="720" type="curve" smooth="yes"/>
      <point x="232" y="729"/>
      <point x="210" y="732"/>
      <point x="158" y="733" type="curve"/>
      <point x="207" y="720"/>
      <point x="224" y="699"/>
      <point x="224" y="650" type="curve" smooth="yes"/>
      <point x="224" y="636"/>
      <point x="223" y="625"/>
      <point x="221" y="613" type="curve" smooth="yes"/>
      <point x="193" y="451" type="line" smooth="yes"/>
      <point x="189" y="428"/>
      <point x="187" y="408"/>
      <point x="187" y="392" type="curve" smooth="yes"/>
      <point x="187" y="352"/>
      <point x="205" y="332"/>
      <point x="254" y="318" type="curve"/>
      <point x="186" y="301"/>
      <point x="162" y="273"/>
      <point x="148" y="192" type="curve" smooth="yes"/>
      <point x="118" y="20" type="line" smooth="yes"/>
      <point x="105" y="-53"/>
      <point x="78" y="-84"/>
      <point x="14" y="-100" type="curve"/>
      <point x="132" y="-100"/>
      <point x="174" y="-69"/>
      <point x="193" y="34" type="curve" smooth="yes"/>
      <point x="222" y="206" type="line" smooth="yes"/>
      <point x="233" y="273"/>
      <point x="256" y="300"/>
      <point x="318" y="318" type="curve"/>
      <point x="272" y="332"/>
      <point x="257" y="349"/>
      <point x="257" y="385" type="curve" smooth="yes"/>
      <point x="257" y="401"/>
      <point x="258" y="415"/>
      <point x="261" y="431" type="curve" smooth="yes"/>
    </contour>
  </outline>
</glyph>
<glyph name="asciitilde" format="1">
  <advance width="606"/>
  <unicode hex="007E"/>
  <outline>
    <contour>
      <point x="521" y="328" type="line"/>
      <point x="490" y="273"/>
      <point x="453" y="244"/>
      <point x="416" y="244" type="curve" smooth="yes"/>
      <point x="397" y="244"/>
      <point x="379" y="250"/>
      <point x="318" y="277" type="curve" smooth="yes"/>
      <point x="247" y="308"/>
      <point x="220" y="316"/>
      <point x="190" y="316" type="curve" smooth="yes"/>
      <point x="139" y="316"/>
      <point x="100" y="283"/>
      <point x="51" y="196" type="curve"/>
      <point x="85" y="169" type="line"/>
      <point x="125" y="237"/>
      <point x="151" y="259"/>
      <point x="191" y="259" type="curve" smooth="yes"/>
      <point x="215" y="259"/>
      <point x="224" y="256"/>
      <point x="287" y="229" type="curve" smooth="yes"/>
      <point x="363" y="197"/>
      <point x="391" y="188"/>
      <point x="417" y="188" type="curve" smooth="yes"/>
      <point x="468" y="188"/>
      <point x="512" y="223"/>
      <point x="555" y="301" type="curve"/>
    </contour>
  </outline>
</glyph>
<glyph name="exclamdown" format="1">
  <advance width="333"/>
  <unicode hex="00A1"/>
  <outline>
    <contour>
      <point x="188" y="467" type="curve" smooth="yes"/>
      <point x="155" y="467"/>
      <point x="128" y="435"/>
      <point x="128" y="397" type="curve" smooth="yes"/>
      <point x="128" y="368"/>
      <point x="145" y="350"/>
      <point x="172" y="350" type="curve" smooth="yes"/>
      <point x="206" y="350"/>
      <point x="233" y="381"/>
      <point x="233" y="419" type="curve" smooth="yes"/>
      <point x="233" y="446"/>
      <point x="213" y="467"/>
    </contour>
    <contour>
      <point x="111" y="-250" type="line"/>
      <point x="118" y="-179" type="line" smooth="yes"/>
      <point x="127" y="-102"/>
      <point x="144" y="42"/>
      <point x="153" y="109" type="curve" smooth="yes"/>
      <point x="174" y="263" type="line"/>
      <point x="168" y="266" type="line"/>
      <point x="138" y="249" type="line"/>
      <point x="76" y="-27"/>
      <point x="62" y="-86"/>
      <point x="15" y="-267" type="curve"/>
      <point x="26" y="-276" type="line"/>
    </contour>
  </outline>
</glyph>
<glyph name="cent" format="1">
  <advance width="500"/>
  <unicode hex="00A2"/>
  <outline>
    <contour>
      <point x="316" y="480" type="line"/>
      <point x="272" y="474"/>
      <point x="226" y="452"/>
      <point x="170" y="413" type="curve" smooth="yes"/>
      <point x="105" y="367"/>
      <point x="56" y="250"/>
      <point x="56" y="140" type="curve" smooth="yes"/>
      <point x="56" y="102"/>
      <point x="62" y="69"/>
      <point x="75" y="45" type="curve" smooth="yes"/>
      <point x="88" y="18"/>
      <point x="101" y="7"/>
      <point x="132" y="-2" type="curve"/>
      <point x="97" y="-96" type="line"/>
      <point x="129" y="-96" type="line"/>
      <point x="163" y="-11" type="line"/>
      <point x="225" y="-10"/>
      <point x="280" y="9"/>
      <point x="326" y="46" type="curve" smooth="yes"/>
      <point x="386" y="95" type="line"/>
      <point x="379" y="115" type="line"/>
      <point x="310" y="63"/>
      <point x="259" y="40"/>
      <point x="210" y="40" type="curve" smooth="yes"/>
      <point x="202" y="40"/>
      <point x="193" y="42"/>
      <point x="184" y="45" type="curve"/>
      <point x="330" y="427" type="line"/>
      <point x="363" y="415"/>
      <point x="374" y="407"/>
      <point x="374" y="394" type="curve" smooth="yes"/>
      <point x="374" y="330" type="line"/>
      <point x="397" y="330" type="line"/>
      <point x="399" y="365"/>
      <point x="405" y="400"/>
      <point x="418" y="458" type="curve"/>
      <point x="396" y="473"/>
      <point x="374" y="480"/>
      <point x="349" y="480" type="curve"/>
      <point x="376" y="551" type="line"/>
      <point x="343" y="551" type="line"/>
    </contour>
    <contour>
      <point x="157" y="64" type="line"/>
      <point x="139" y="85"/>
      <point x="130" y="113"/>
      <point x="130" y="149" type="curve" smooth="yes"/>
      <point x="130" y="211"/>
      <point x="163" y="341"/>
      <point x="189" y="382" type="curve" smooth="yes"/>
      <point x="208" y="413"/>
      <point x="246" y="433"/>
      <point x="283" y="433" type="curve" smooth="yes"/>
      <point x="286" y="433"/>
      <point x="291" y="433"/>
      <point x="297" y="432" type="curve"/>
    </contour>
  </outline>
</glyph>
<glyph name="sterling" format="1">
  <advance width="500"/>
  <unicode hex="00A3"/>
  <outline>
    <contour>
      <point x="477" y="159" type="line"/>
      <point x="453" y="159" type="line"/>
      <point x="431" y="99" type="line" smooth="yes"/>
      <point x="423" y="77"/>
      <point x="411" y="65"/>
      <point x="395" y="63" type="curve" smooth="yes"/>
      <point x="389" y="62"/>
      <point x="384" y="62"/>
      <point x="369" y="62" type="curve" smooth="yes"/>
      <point x="339" y="62" type="line" smooth="yes"/>
      <point x="330" y="62"/>
      <point x="308" y="64"/>
      <point x="295" y="66" type="curve" smooth="yes"/>
      <point x="236" y="74" type="line"/>
      <point x="220" y="77"/>
      <point x="189" y="79"/>
      <point x="176" y="79" type="curve" smooth="yes"/>
      <point x="150" y="79"/>
      <point x="129" y="75"/>
      <point x="91" y="64" type="curve"/>
      <point x="136" y="110"/>
      <point x="162" y="169"/>
      <point x="201" y="322" type="curve"/>
      <point x="344" y="322" type="line"/>
      <point x="351" y="357" type="line"/>
      <point x="209" y="357" type="line"/>
      <point x="219" y="400" type="line"/>
      <point x="250" y="544" type="line"/>
      <point x="255" y="569" type="line" smooth="yes"/>
      <point x="267" y="631"/>
      <point x="300" y="663"/>
      <point x="349" y="663" type="curve" smooth="yes"/>
      <point x="396" y="663"/>
      <point x="437" y="639"/>
      <point x="437" y="612" type="curve" smooth="yes"/>
      <point x="437" y="558" type="line"/>
      <point x="460" y="558" type="line"/>
      <point x="461" y="607"/>
      <point x="466" y="641"/>
      <point x="479" y="680" type="curve"/>
      <point x="445" y="701"/>
      <point x="421" y="708"/>
      <point x="385" y="708" type="curve" smooth="yes"/>
      <point x="333" y="708"/>
      <point x="289" y="684"/>
      <point x="243" y="632" type="curve" smooth="yes"/>
      <point x="186" y="567"/>
      <point x="159" y="499"/>
      <point x="135" y="357" type="curve"/>
      <point x="41" y="357" type="line"/>
      <point x="34" y="322" type="line"/>
      <point x="129" y="322" type="line"/>
      <point x="126" y="299" type="line" smooth="yes"/>
      <point x="108" y="131"/>
      <point x="79" y="68"/>
      <point x="2" y="27" type="curve"/>
      <point x="2" y="8"/>
      <point x="11" y="-13"/>
      <point x="23" y="-18" type="curve"/>
      <point x="37" y="-10"/>
      <point x="53" y="1"/>
      <point x="64" y="10" type="curve"/>
      <point x="83" y="24"/>
      <point x="88" y="26"/>
      <point x="116" y="26" type="curve" smooth="yes"/>
      <point x="136" y="26"/>
      <point x="168" y="22"/>
      <point x="213" y="14" type="curve" smooth="yes"/>
      <point x="219" y="13" type="line"/>
      <point x="225" y="12" type="line"/>
      <point x="230" y="11" type="line" smooth="yes"/>
      <point x="336" y="-9"/>
      <point x="364" y="-14"/>
      <point x="382" y="-14" type="curve" smooth="yes"/>
      <point x="405" y="-14"/>
      <point x="425" y="-9"/>
      <point x="441" y="1" type="curve"/>
    </contour>
  </outline>
</glyph>
<glyph name="currency" format="1">
  <advance width="500"/>
  <unicode hex="00A4"/>
  <outline>
    <contour>
      <point x="14" y="545" type="line"/>
      <point x="70" y="489" type="line"/>
      <point x="33" y="446"/>
      <point x="17" y="404"/>
      <point x="17" y="346" type="curve" smooth="yes"/>
      <point x="17" y="292"/>
      <point x="32" y="251"/>
      <point x="68" y="203" type="curve"/>
      <point x="14" y="149" type="line"/>
      <point x="45" y="118" type="line"/>
      <point x="100" y="171" type="line"/>
      <point x="149" y="131"/>
      <point x="192" y="115"/>
      <point x="250" y="115" type="curve" smooth="yes"/>
      <point x="308" y="115"/>
      <point x="351" y="131"/>
      <point x="400" y="171" type="curve"/>
      <point x="455" y="118" type="line"/>
      <point x="486" y="149" type="line"/>
      <point x="432" y="203" type="line"/>
      <point x="468" y="251"/>
      <point x="483" y="292"/>
      <point x="483" y="346" type="curve" smooth="yes"/>
      <point x="483" y="403"/>
      <point x="467" y="446"/>
      <point x="430" y="489" type="curve"/>
      <point x="486" y="545" type="line"/>
      <point x="455" y="577" type="line"/>
      <point x="398" y="521" type="line"/>
      <point x="353" y="559"/>
      <point x="307" y="575"/>
      <point x="250" y="575" type="curve" smooth="yes"/>
      <point x="192" y="575"/>
      <point x="147" y="559"/>
      <point x="102" y="521" type="curve"/>
      <point x="45" y="577" type="line"/>
    </contour>
    <contour>
      <point x="251" y="523" type="curve" smooth="yes"/>
      <point x="351" y="523"/>
      <point x="431" y="444"/>
      <point x="431" y="345" type="curve" smooth="yes"/>
      <point x="431" y="246"/>
      <point x="351" y="167"/>
      <point x="250" y="167" type="curve" smooth="yes"/>
      <point x="149" y="167"/>
      <point x="69" y="246"/>
      <point x="69" y="345" type="curve" smooth="yes"/>
      <point x="69" y="446"/>
      <point x="148" y="523"/>
    </contour>
  </outline>
</glyph>
<glyph name="yen" format="1">
  <advance width="500"/>
  <unicode hex="00A5"/>
  <outline>
    <contour>
      <point x="270" y="203" type="line"/>
      <point x="380" y="203" type="line"/>
      <point x="386" y="237" type="line"/>
      <point x="275" y="237" type="line"/>
      <point x="279" y="274"/>
      <point x="283" y="293"/>
      <point x="290" y="310" type="curve"/>
      <point x="392" y="310" type="line"/>
      <point x="398" y="344" type="line"/>
      <point x="302" y="344" type="line"/>
      <point x="321" y="387" type="line" smooth="yes"/>
      <point x="328" y="404"/>
      <point x="337" y="421"/>
      <point x="356" y="457" type="curve"/>
      <point x="362" y="467" type="line" smooth="yes"/>
      <point x="420" y="572"/>
      <point x="455" y="609"/>
      <point x="508" y="621" type="curve"/>
      <point x="512" y="691" type="line"/>
      <point x="429" y="666"/>
      <point x="356" y="557"/>
      <point x="261" y="319" type="curve"/>
      <point x="209" y="596"/>
      <point x="163" y="701"/>
      <point x="96" y="699" type="curve"/>
      <point x="72" y="674"/>
      <point x="55" y="659"/>
      <point x="35" y="642" type="curve"/>
      <point x="35" y="618" type="line"/>
      <point x="53" y="627"/>
      <point x="63" y="630"/>
      <point x="71" y="630" type="curve" smooth="yes"/>
      <point x="117" y="630"/>
      <point x="149" y="562"/>
      <point x="187" y="386" type="curve" smooth="yes"/>
      <point x="196" y="344" type="line"/>
      <point x="112" y="344" type="line"/>
      <point x="106" y="310" type="line"/>
      <point x="205" y="310" type="line"/>
      <point x="210" y="287"/>
      <point x="212" y="272"/>
      <point x="212" y="259" type="curve" smooth="yes"/>
      <point x="212" y="253"/>
      <point x="212" y="248"/>
      <point x="210" y="237" type="curve"/>
      <point x="96" y="237" type="line"/>
      <point x="90" y="203" type="line"/>
      <point x="205" y="203" type="line"/>
      <point x="192" y="125" type="line" smooth="yes"/>
      <point x="184" y="80"/>
      <point x="178" y="49"/>
      <point x="174" y="43" type="curve"/>
      <point x="170" y="34"/>
      <point x="161" y="30"/>
      <point x="142" y="28" type="curve" smooth="yes"/>
      <point x="101" y="25" type="line"/>
      <point x="98" y="-3" type="line"/>
      <point x="144" y="-2" type="line" smooth="yes"/>
      <point x="183" y="-1"/>
      <point x="204" y="0"/>
      <point x="216" y="0" type="curve" smooth="yes"/>
      <point x="298" y="-3" type="line"/>
      <point x="321" y="-3" type="line"/>
      <point x="323" y="25" type="line"/>
      <point x="282" y="28" type="line" smooth="yes"/>
      <point x="259" y="30"/>
      <point x="251" y="37"/>
      <point x="251" y="58" type="curve" smooth="yes"/>
      <point x="251" y="69"/>
      <point x="252" y="77"/>
      <point x="254" y="93" type="curve" smooth="yes"/>
    </contour>
  </outline>
</glyph>
<glyph name="brokenbar" format="1">
  <advance width="606"/>
  <unicode hex="00A6"/>
  <outline>
    <contour>
      <point x="275" y="0" type="line"/>
      <point x="331" y="0" type="line"/>
      <point x="331" y="293" type="line"/>
      <point x="275" y="293" type="line"/>
    </contour>
    <contour>
      <point x="275" y="733" type="line"/>
      <point x="275" y="440" type="line"/>
      <point x="331" y="440" type="line"/>
      <point x="331" y="733" type="line"/>
    </contour>
  </outline>
</glyph>
<glyph name="section" format="1">
  <advance width="500"/>
  <unicode hex="00A7"/>
  <outline>
    <contour>
      <point x="71" y="-29" type="line"/>
      <point x="47" y="-27" type="line"/>
      <point x="14" y="-168" type="line"/>
      <point x="56" y="-203"/>
      <point x="103" y="-220"/>
      <point x="159" y="-220" type="curve" smooth="yes"/>
      <point x="215" y="-220"/>
      <point x="263" y="-199"/>
      <point x="312" y="-155" type="curve" smooth="yes"/>
      <point x="363" y="-107"/>
      <point x="390" y="-56"/>
      <point x="390" y="-3" type="curve" smooth="yes"/>
      <point x="390" y="37"/>
      <point x="378" y="60"/>
      <point x="339" y="95" type="curve"/>
      <point x="412" y="140"/>
      <point x="446" y="190"/>
      <point x="446" y="252" type="curve" smooth="yes"/>
      <point x="446" y="281"/>
      <point x="437" y="306"/>
      <point x="420" y="327" type="curve" smooth="yes"/>
      <point x="407" y="343"/>
      <point x="390" y="356"/>
      <point x="343" y="385" type="curve" smooth="yes"/>
      <point x="220" y="461" type="line" smooth="yes"/>
      <point x="191" y="479"/>
      <point x="174" y="509"/>
      <point x="174" y="543" type="curve" smooth="yes"/>
      <point x="174" y="609"/>
      <point x="231" y="661"/>
      <point x="304" y="661" type="curve" smooth="yes"/>
      <point x="347" y="661"/>
      <point x="382" y="647"/>
      <point x="412" y="617" type="curve"/>
      <point x="407" y="537" type="line"/>
      <point x="432" y="537" type="line"/>
      <point x="463" y="666" type="line"/>
      <point x="424" y="694"/>
      <point x="388" y="706"/>
      <point x="336" y="706" type="curve" smooth="yes"/>
      <point x="277" y="706"/>
      <point x="237" y="689"/>
      <point x="191" y="644" type="curve" smooth="yes"/>
      <point x="139" y="594"/>
      <point x="117" y="550"/>
      <point x="117" y="497" type="curve" smooth="yes"/>
      <point x="117" y="470"/>
      <point x="130" y="444"/>
      <point x="158" y="413" type="curve"/>
      <point x="75" y="353"/>
      <point x="49" y="316"/>
      <point x="49" y="255" type="curve" smooth="yes"/>
      <point x="49" y="195"/>
      <point x="83" y="156"/>
      <point x="185" y="100" type="curve" smooth="yes"/>
      <point x="236" y="72" type="line" smooth="yes"/>
      <point x="308" y="33"/>
      <point x="330" y="5"/>
      <point x="330" y="-44" type="curve" smooth="yes"/>
      <point x="330" y="-117"/>
      <point x="269" y="-174"/>
      <point x="191" y="-174" type="curve" smooth="yes"/>
      <point x="137" y="-174"/>
      <point x="101" y="-157"/>
      <point x="65" y="-115" type="curve"/>
    </contour>
    <contour>
      <point x="296" y="329" type="line" smooth="yes"/>
      <point x="360" y="291"/>
      <point x="384" y="261"/>
      <point x="384" y="217" type="curve" smooth="yes"/>
      <point x="384" y="179"/>
      <point x="366" y="150"/>
      <point x="318" y="111" type="curve"/>
      <point x="202" y="177" type="line" smooth="yes"/>
      <point x="139" y="213"/>
      <point x="112" y="246"/>
      <point x="112" y="288" type="curve" smooth="yes"/>
      <point x="112" y="328"/>
      <point x="131" y="361"/>
      <point x="177" y="399" type="curve"/>
    </contour>
  </outline>
</glyph>
<glyph name="dieresis" format="1">
  <advance width="333"/>
  <unicode hex="00A8"/>
  <outline>
    <contour>
      <point x="128" y="637" type="curve" smooth="yes"/>
      <point x="102" y="637"/>
      <point x="78" y="614"/>
      <point x="78" y="588" type="curve" smooth="yes"/>
      <point x="78" y="562"/>
      <point x="102" y="537"/>
      <point x="128" y="537" type="curve" smooth="yes"/>
      <point x="154" y="537"/>
      <point x="178" y="562"/>
      <point x="178" y="588" type="curve" smooth="yes"/>
      <point x="178" y="613"/>
      <point x="154" y="637"/>
    </contour>
    <contour>
      <point x="328" y="637" type="curve" smooth="yes"/>
      <point x="302" y="637"/>
      <point x="278" y="614"/>
      <point x="278" y="588" type="curve" smooth="yes"/>
      <point x="278" y="562"/>
      <point x="302" y="537"/>
      <point x="328" y="537" type="curve" smooth="yes"/>
      <point x="354" y="537"/>
      <point x="378" y="562"/>
      <point x="378" y="588" type="curve" smooth="yes"/>
      <point x="378" y="613"/>
      <point x="354" y="637"/>
    </contour>
  </outline>
</glyph>
<glyph name="copyright" format="1">
  <advance width="747"/>
  <unicode hex="00A9"/>
  <outline>
    <contour>
      <point x="527" y="522" type="line"/>
      <point x="470" y="540"/>
      <point x="428" y="548"/>
      <point x="386" y="548" type="curve" smooth="yes"/>
      <point x="262" y="548"/>
      <point x="178" y="465"/>
      <point x="178" y="341" type="curve" smooth="yes"/>
      <point x="178" y="220"/>
      <point x="258" y="135"/>
      <point x="372" y="135" type="curve" smooth="yes"/>
      <point x="450" y="135"/>
      <point x="507" y="169"/>
      <point x="537" y="234" type="curve"/>
      <point x="516" y="243" type="line"/>
      <point x="488" y="190"/>
      <point x="449" y="166"/>
      <point x="394" y="166" type="curve" smooth="yes"/>
      <point x="309" y="166"/>
      <point x="246" y="245"/>
      <point x="246" y="350" type="curve" smooth="yes"/>
      <point x="246" y="453"/>
      <point x="305" y="522"/>
      <point x="394" y="522" type="curve" smooth="yes"/>
      <point x="462" y="522"/>
      <point x="497" y="488"/>
      <point x="501" y="415" type="curve"/>
      <point x="527" y="415" type="line"/>
    </contour>
    <contour>
      <point x="375" y="706" type="curve" smooth="yes"/>
      <point x="173" y="706"/>
      <point x="11" y="545"/>
      <point x="11" y="344" type="curve" smooth="yes"/>
      <point x="11" y="145"/>
      <point x="174" y="-18"/>
      <point x="373" y="-18" type="curve" smooth="yes"/>
      <point x="573" y="-18"/>
      <point x="736" y="145"/>
      <point x="736" y="344" type="curve" smooth="yes"/>
      <point x="736" y="542"/>
      <point x="573" y="706"/>
    </contour>
    <contour>
      <point x="373" y="662" type="curve" smooth="yes"/>
      <point x="548" y="662"/>
      <point x="692" y="518"/>
      <point x="692" y="344" type="curve" smooth="yes"/>
      <point x="692" y="169"/>
      <point x="548" y="26"/>
      <point x="372" y="26" type="curve" smooth="yes"/>
      <point x="198" y="26"/>
      <point x="55" y="169"/>
      <point x="55" y="343" type="curve" smooth="yes"/>
      <point x="55" y="519"/>
      <point x="197" y="662"/>
    </contour>
  </outline>
</glyph>
<glyph name="ordfeminine" format="1">
  <advance width="333"/>
  <unicode hex="00AA"/>
  <outline>
    <contour>
      <point x="319" y="694" type="line"/>
      <point x="312" y="699" type="line"/>
      <point x="291" y="688" type="line"/>
      <point x="265" y="697"/>
      <point x="253" y="699"/>
      <point x="235" y="699" type="curve" smooth="yes"/>
      <point x="198" y="699"/>
      <point x="160" y="682"/>
      <point x="125" y="650" type="curve" smooth="yes"/>
      <point x="96" y="623"/>
      <point x="60" y="514"/>
      <point x="60" y="454" type="curve" smooth="yes"/>
      <point x="60" y="425"/>
      <point x="70" y="404"/>
      <point x="82" y="404" type="curve" smooth="yes"/>
      <point x="91" y="404"/>
      <point x="104" y="410"/>
      <point x="123" y="422" type="curve" smooth="yes"/>
      <point x="159" y="445"/>
      <point x="183" y="470"/>
      <point x="231" y="535" type="curve"/>
      <point x="215" y="457" type="line" smooth="yes"/>
      <point x="213" y="446"/>
      <point x="211" y="433"/>
      <point x="211" y="426" type="curve" smooth="yes"/>
      <point x="211" y="412"/>
      <point x="217" y="404"/>
      <point x="227" y="404" type="curve" smooth="yes"/>
      <point x="240" y="404"/>
      <point x="266" y="420"/>
      <point x="321" y="461" type="curve"/>
      <point x="317" y="473" type="line"/>
      <point x="313" y="471" type="line"/>
      <point x="310" y="468"/>
      <point x="307" y="466"/>
      <point x="303" y="463" type="curve" smooth="yes"/>
      <point x="286" y="450"/>
      <point x="278" y="446"/>
      <point x="271" y="446" type="curve" smooth="yes"/>
      <point x="264" y="446"/>
      <point x="259" y="453"/>
      <point x="259" y="463" type="curve" smooth="yes"/>
      <point x="259" y="465"/>
      <point x="259" y="468"/>
      <point x="260" y="471" type="curve"/>
    </contour>
    <contour>
      <point x="141" y="613" type="line" smooth="yes"/>
      <point x="158" y="660"/>
      <point x="170" y="670"/>
      <point x="208" y="670" type="curve" smooth="yes"/>
      <point x="224" y="670"/>
      <point x="238" y="667"/>
      <point x="265" y="659" type="curve"/>
      <point x="248" y="599"/>
      <point x="239" y="574"/>
      <point x="221" y="543" type="curve" smooth="yes"/>
      <point x="197" y="500"/>
      <point x="140" y="447"/>
      <point x="118" y="447" type="curve" smooth="yes"/>
      <point x="111" y="447"/>
      <point x="107" y="454"/>
      <point x="107" y="468" type="curve" smooth="yes"/>
      <point x="107" y="496"/>
      <point x="115" y="539"/>
      <point x="124" y="566" type="curve" smooth="yes"/>
    </contour>
  </outline>
</glyph>
<glyph name="guillemotleft" format="1">
  <advance width="500"/>
  <unicode hex="00AB"/>
  <outline>
    <contour>
      <point x="208" y="70" type="line"/>
      <point x="228" y="85" type="line"/>
      <point x="133" y="256" type="line"/>
      <point x="270" y="424" type="line"/>
      <point x="251" y="440" type="line"/>
      <point x="57" y="267" type="line"/>
      <point x="57" y="251" type="line"/>
    </contour>
    <contour>
      <point x="375" y="70" type="line"/>
      <point x="395" y="85" type="line"/>
      <point x="300" y="256" type="line"/>
      <point x="437" y="424" type="line"/>
      <point x="418" y="440" type="line"/>
      <point x="224" y="267" type="line"/>
      <point x="224" y="251" type="line"/>
    </contour>
  </outline>
</glyph>
<glyph name="logicalnot" format="1">
  <advance width="606"/>
  <unicode hex="00AC"/>
  <outline>
    <contour>
      <point x="499" y="118" type="line"/>
      <point x="555" y="118" type="line"/>
      <point x="555" y="378" type="line"/>
      <point x="51" y="378" type="line"/>
      <point x="51" y="322" type="line"/>
      <point x="499" y="322" type="line"/>
    </contour>
  </outline>
</glyph>
<glyph name="registered" format="1">
  <advance width="747"/>
  <unicode hex="00AE"/>
  <outline>
    <contour>
      <point x="205" y="554" type="line"/>
      <point x="205" y="537" type="line"/>
      <point x="222" y="537" type="line" smooth="yes"/>
      <point x="243" y="537"/>
      <point x="254" y="527"/>
      <point x="254" y="507" type="curve" smooth="yes"/>
      <point x="254" y="204" type="line" smooth="yes"/>
      <point x="254" y="179"/>
      <point x="248" y="173"/>
      <point x="222" y="173" type="curve" smooth="yes"/>
      <point x="206" y="173" type="line"/>
      <point x="206" y="157" type="line"/>
      <point x="358" y="157" type="line"/>
      <point x="358" y="174" type="line"/>
      <point x="337" y="174" type="line" smooth="yes"/>
      <point x="315" y="174"/>
      <point x="309" y="182"/>
      <point x="309" y="211" type="curve" smooth="yes"/>
      <point x="309" y="340" type="line"/>
      <point x="343" y="340" type="line" smooth="yes"/>
      <point x="385" y="340"/>
      <point x="398" y="329"/>
      <point x="419" y="277" type="curve" smooth="yes"/>
      <point x="431" y="247" type="line" smooth="yes"/>
      <point x="466" y="161"/>
      <point x="471" y="157"/>
      <point x="536" y="157" type="curve" smooth="yes"/>
      <point x="563" y="157" type="line"/>
      <point x="563" y="173" type="line"/>
      <point x="530" y="174"/>
      <point x="519" y="184"/>
      <point x="497" y="235" type="curve" smooth="yes"/>
      <point x="492" y="246" type="line" smooth="yes"/>
      <point x="463" y="316"/>
      <point x="439" y="344"/>
      <point x="401" y="350" type="curve"/>
      <point x="479" y="363"/>
      <point x="516" y="398"/>
      <point x="516" y="456" type="curve" smooth="yes"/>
      <point x="516" y="524"/>
      <point x="469" y="554"/>
      <point x="361" y="554" type="curve" smooth="yes"/>
    </contour>
    <contour>
      <point x="309" y="360" type="line"/>
      <point x="309" y="506" type="line" smooth="yes"/>
      <point x="309" y="527"/>
      <point x="317" y="535"/>
      <point x="337" y="535" type="curve" smooth="yes"/>
      <point x="366" y="535" type="line" smooth="yes"/>
      <point x="426" y="535"/>
      <point x="460" y="504"/>
      <point x="460" y="449" type="curve" smooth="yes"/>
      <point x="460" y="388"/>
      <point x="421" y="360"/>
      <point x="336" y="360" type="curve" smooth="yes"/>
    </contour>
    <contour>
      <point x="375" y="706" type="curve" smooth="yes"/>
      <point x="173" y="706"/>
      <point x="11" y="545"/>
      <point x="11" y="344" type="curve" smooth="yes"/>
      <point x="11" y="145"/>
      <point x="174" y="-18"/>
      <point x="373" y="-18" type="curve" smooth="yes"/>
      <point x="573" y="-18"/>
      <point x="736" y="145"/>
      <point x="736" y="344" type="curve" smooth="yes"/>
      <point x="736" y="542"/>
      <point x="573" y="706"/>
    </contour>
    <contour>
      <point x="373" y="662" type="curve" smooth="yes"/>
      <point x="548" y="662"/>
      <point x="692" y="518"/>
      <point x="692" y="344" type="curve" smooth="yes"/>
      <point x="692" y="169"/>
      <point x="548" y="26"/>
      <point x="372" y="26" type="curve" smooth="yes"/>
      <point x="198" y="26"/>
      <point x="55" y="169"/>
      <point x="55" y="343" type="curve" smooth="yes"/>
      <point x="55" y="519"/>
      <point x="197" y="662"/>
    </contour>
  </outline>
</glyph>
<glyph name="macron" format="1">
  <advance width="333"/>
  <unicode hex="00AF"/>
  <outline>
    <contour>
      <point x="386" y="589" type="line"/>
      <point x="85" y="589" type="line"/>
      <point x="74" y="538" type="line"/>
      <point x="375" y="538" type="line"/>
    </contour>
  </outline>
</glyph>
<glyph name="degree" format="1">
  <advance width="400"/>
  <unicode hex="00B0"/>
  <outline>
    <contour>
      <point x="240" y="689" type="curve" smooth="yes"/>
      <point x="157" y="689"/>
      <point x="90" y="622"/>
      <point x="90" y="540" type="curve" smooth="yes"/>
      <point x="90" y="456"/>
      <point x="157" y="389"/>
      <point x="240" y="389" type="curve" smooth="yes"/>
      <point x="322" y="389"/>
      <point x="390" y="457"/>
      <point x="390" y="537" type="curve" smooth="yes"/>
      <point x="390" y="621"/>
      <point x="323" y="689"/>
    </contour>
    <contour>
      <point x="239" y="649" type="curve" smooth="yes"/>
      <point x="300" y="649"/>
      <point x="350" y="599"/>
      <point x="350" y="538" type="curve" smooth="yes"/>
      <point x="350" y="479"/>
      <point x="300" y="429"/>
      <point x="240" y="429" type="curve" smooth="yes"/>
      <point x="179" y="429"/>
      <point x="130" y="478"/>
      <point x="130" y="540" type="curve" smooth="yes"/>
      <point x="130" y="600"/>
      <point x="179" y="649"/>
    </contour>
  </outline>
</glyph>
<glyph name="plusminus" format="1">
  <advance width="606"/>
  <unicode hex="00B1"/>
  <outline>
    <contour>
      <point x="275" y="289" type="line"/>
      <point x="51" y="289" type="line"/>
      <point x="51" y="233" type="line"/>
      <point x="275" y="233" type="line"/>
      <point x="275" y="97" type="line"/>
      <point x="331" y="97" type="line"/>
      <point x="331" y="233" type="line"/>
      <point x="555" y="233" type="line"/>
      <point x="555" y="289" type="line"/>
      <point x="331" y="289" type="line"/>
      <point x="331" y="512" type="line"/>
      <point x="275" y="512" type="line"/>
    </contour>
    <contour>
      <point x="555" y="0" type="line"/>
      <point x="555" y="56" type="line"/>
      <point x="51" y="56" type="line"/>
      <point x="51" y="0" type="line"/>
    </contour>
  </outline>
</glyph>
<glyph name="acute" format="1">
  <advance width="333"/>
  <unicode hex="00B4"/>
  <outline>
    <contour>
      <point x="122" y="518" type="line"/>
      <point x="156" y="518" type="line"/>
      <point x="318" y="619" type="line" smooth="yes"/>
      <point x="339" y="632"/>
      <point x="346" y="641"/>
      <point x="346" y="656" type="curve" smooth="yes"/>
      <point x="346" y="672"/>
      <point x="328" y="687"/>
      <point x="308" y="687" type="curve" smooth="yes"/>
      <point x="298" y="687"/>
      <point x="287" y="681"/>
      <point x="275" y="669" type="curve" smooth="yes"/>
    </contour>
  </outline>
</glyph>
<glyph name="paragraph" format="1">
  <advance width="500"/>
  <unicode hex="00B6"/>
  <outline>
    <contour>
      <point x="87" y="-194" type="line"/>
      <point x="82" y="-224" type="line"/>
      <point x="137" y="-223" type="line" smooth="yes"/>
      <point x="200" y="-222"/>
      <point x="245" y="-221"/>
      <point x="270" y="-221" type="curve" smooth="yes"/>
      <point x="291" y="-221"/>
      <point x="335" y="-222"/>
      <point x="397" y="-223" type="curve" smooth="yes"/>
      <point x="470" y="-224" type="line"/>
      <point x="475" y="-194" type="line"/>
      <point x="432" y="-194" type="line" smooth="yes"/>
      <point x="393" y="-194"/>
      <point x="380" y="-184"/>
      <point x="380" y="-155" type="curve" smooth="yes"/>
      <point x="380" y="-151"/>
      <point x="381" y="-143"/>
      <point x="382" y="-137" type="curve" smooth="yes"/>
      <point x="507" y="592" type="line" smooth="yes"/>
      <point x="517" y="649"/>
      <point x="531" y="662"/>
      <point x="583" y="662" type="curve" smooth="yes"/>
      <point x="606" y="662" type="line"/>
      <point x="611" y="692" type="line"/>
      <point x="543" y="691" type="line" smooth="yes"/>
      <point x="470" y="689"/>
      <point x="433" y="689"/>
      <point x="410" y="689" type="curve" smooth="yes"/>
      <point x="365" y="690" type="line"/>
      <point x="308" y="690" type="line" smooth="yes"/>
      <point x="298" y="690"/>
      <point x="279" y="690"/>
      <point x="250" y="691" type="curve" smooth="yes"/>
      <point x="234" y="692"/>
      <point x="224" y="692"/>
      <point x="209" y="692" type="curve" smooth="yes"/>
      <point x="94" y="692"/>
      <point x="33" y="631"/>
      <point x="33" y="516" type="curve" smooth="yes"/>
      <point x="33" y="430"/>
      <point x="70" y="350"/>
      <point x="133" y="298" type="curve" smooth="yes"/>
      <point x="168" y="269"/>
      <point x="195" y="257"/>
      <point x="243" y="250" type="curve"/>
      <point x="180" y="-119" type="line" smooth="yes"/>
      <point x="170" y="-180"/>
      <point x="158" y="-194"/>
      <point x="117" y="-194" type="curve" smooth="yes"/>
    </contour>
    <contour>
      <point x="451" y="657" type="line"/>
      <point x="304" y="-189" type="line"/>
      <point x="236" y="-189" type="line"/>
      <point x="383" y="657" type="line"/>
    </contour>
    <contour>
      <point x="249" y="288" type="line"/>
      <point x="180" y="307"/>
      <point x="143" y="378"/>
      <point x="143" y="493" type="curve" smooth="yes"/>
      <point x="143" y="605"/>
      <point x="179" y="657"/>
      <point x="256" y="657" type="curve" smooth="yes"/>
      <point x="270" y="657"/>
      <point x="287" y="655"/>
      <point x="312" y="652" type="curve"/>
    </contour>
  </outline>
</glyph>
<glyph name="periodcentered" format="1">
  <advance width="250"/>
  <unicode hex="00B7"/>
  <outline>
    <contour>
      <point x="113" y="312" type="curve" smooth="yes"/>
      <point x="80" y="312"/>
      <point x="53" y="280"/>
      <point x="53" y="242" type="curve" smooth="yes"/>
      <point x="53" y="213"/>
      <point x="70" y="195"/>
      <point x="97" y="195" type="curve" smooth="yes"/>
      <point x="131" y="195"/>
      <point x="158" y="226"/>
      <point x="158" y="264" type="curve" smooth="yes"/>
      <point x="158" y="291"/>
      <point x="138" y="312"/>
    </contour>
  </outline>
</glyph>
<glyph name="cedilla" format="1">
  <advance width="333"/>
  <unicode hex="00B8"/>
  <outline>
    <contour>
      <point x="50" y="-104" type="line"/>
      <point x="57" y="-102" type="line" smooth="yes"/>
      <point x="67" y="-99"/>
      <point x="76" y="-98"/>
      <point x="83" y="-98" type="curve" smooth="yes"/>
      <point x="111" y="-98"/>
      <point x="130" y="-114"/>
      <point x="130" y="-136" type="curve" smooth="yes"/>
      <point x="130" y="-162"/>
      <point x="108" y="-181"/>
      <point x="77" y="-181" type="curve" smooth="yes"/>
      <point x="58" y="-181"/>
      <point x="43" y="-178"/>
      <point x="8" y="-167" type="curve"/>
      <point x="-9" y="-196" type="line"/>
      <point x="33" y="-212"/>
      <point x="52" y="-216"/>
      <point x="79" y="-216" type="curve" smooth="yes"/>
      <point x="154" y="-216"/>
      <point x="202" y="-183"/>
      <point x="202" y="-132" type="curve" smooth="yes"/>
      <point x="202" y="-89"/>
      <point x="170" y="-62"/>
      <point x="120" y="-62" type="curve" smooth="yes"/>
      <point x="114" y="-62"/>
      <point x="107" y="-63"/>
      <point x="96" y="-64" type="curve"/>
      <point x="140" y="0" type="line"/>
      <point x="102" y="0" type="line"/>
      <point x="41" y="-96" type="line"/>
    </contour>
  </outline>
</glyph>
<glyph name="ordmasculine" format="1">
  <advance width="333"/>
  <unicode hex="00BA"/>
  <outline>
    <contour>
      <point x="235" y="699" type="curve" smooth="yes"/>
      <point x="141" y="699"/>
      <point x="66" y="610"/>
      <point x="66" y="500" type="curve" smooth="yes"/>
      <point x="66" y="439"/>
      <point x="96" y="404"/>
      <point x="149" y="404" type="curve" smooth="yes"/>
      <point x="243" y="404"/>
      <point x="322" y="497"/>
      <point x="322" y="609" type="curve" smooth="yes"/>
      <point x="322" y="666"/>
      <point x="290" y="699"/>
    </contour>
    <contour>
      <point x="212" y="676" type="curve" smooth="yes"/>
      <point x="251" y="676"/>
      <point x="273" y="649"/>
      <point x="273" y="601" type="curve" smooth="yes"/>
      <point x="273" y="557"/>
      <point x="260" y="504"/>
      <point x="243" y="473" type="curve" smooth="yes"/>
      <point x="225" y="442"/>
      <point x="203" y="427"/>
      <point x="175" y="427" type="curve" smooth="yes"/>
      <point x="136" y="427"/>
      <point x="115" y="454"/>
      <point x="115" y="506" type="curve" smooth="yes"/>
      <point x="115" y="606"/>
      <point x="155" y="676"/>
    </contour>
  </outline>
</glyph>
<glyph name="guillemotright" format="1">
  <advance width="500"/>
  <unicode hex="00BB"/>
  <outline>
    <contour>
      <point x="125" y="440" type="line"/>
      <point x="105" y="425" type="line"/>
      <point x="200" y="254" type="line"/>
      <point x="63" y="86" type="line"/>
      <point x="82" y="70" type="line"/>
      <point x="276" y="243" type="line"/>
      <point x="276" y="259" type="line"/>
    </contour>
    <contour>
      <point x="292" y="440" type="line"/>
      <point x="272" y="425" type="line"/>
      <point x="367" y="254" type="line"/>
      <point x="230" y="86" type="line"/>
      <point x="249" y="70" type="line"/>
      <point x="443" y="243" type="line"/>
      <point x="443" y="259" type="line"/>
    </contour>
  </outline>
</glyph>
<glyph name="onequarter" format="1">
  <advance width="750"/>
  <unicode hex="00BC"/>
  <outline>
    <contour>
      <point x="410" y="138" type="line"/>
      <point x="410" y="113" type="line"/>
      <point x="575" y="113" type="line"/>
      <point x="562" y="62" type="line" smooth="yes"/>
      <point x="555" y="35"/>
      <point x="547" y="26"/>
      <point x="526" y="25" type="curve" smooth="yes"/>
      <point x="475" y="22" type="line"/>
      <point x="472" y="-2" type="line"/>
      <point x="494" y="-2" type="line" smooth="yes"/>
      <point x="495" y="-2"/>
      <point x="507" y="-2"/>
      <point x="524" y="-1" type="curve"/>
      <point x="532" y="0"/>
      <point x="562" y="0"/>
      <point x="580" y="0" type="curve" smooth="yes"/>
      <point x="598" y="0"/>
      <point x="627" y="0"/>
      <point x="636" y="-1" type="curve"/>
      <point x="653" y="-2"/>
      <point x="664" y="-2"/>
      <point x="665" y="-2" type="curve" smooth="yes"/>
      <point x="687" y="-2" type="line"/>
      <point x="691" y="22" type="line"/>
      <point x="637" y="25" type="line" smooth="yes"/>
      <point x="623" y="26"/>
      <point x="616" y="34"/>
      <point x="616" y="50" type="curve" smooth="yes"/>
      <point x="616" y="60"/>
      <point x="618" y="77"/>
      <point x="620" y="85" type="curve" smooth="yes"/>
      <point x="627" y="113" type="line"/>
      <point x="670" y="113" type="line" smooth="yes"/>
      <point x="680" y="113"/>
      <point x="690" y="112"/>
      <point x="704" y="110" type="curve"/>
      <point x="715" y="142" type="line"/>
      <point x="712" y="150" type="line"/>
      <point x="636" y="150" type="line"/>
      <point x="683" y="416" type="line"/>
      <point x="674" y="423" type="line"/>
      <point x="629" y="414" type="line"/>
    </contour>
    <contour>
      <point x="447" y="150" type="line"/>
      <point x="632" y="386" type="line"/>
      <point x="584" y="150" type="line"/>
    </contour>
    <contour>
      <point x="243" y="693" type="line"/>
      <point x="233" y="699" type="line"/>
      <point x="164" y="675" type="line" smooth="yes"/>
      <point x="129" y="663"/>
      <point x="109" y="657"/>
      <point x="57" y="646" type="curve"/>
      <point x="50" y="603" type="line"/>
      <point x="55" y="600" type="line"/>
      <point x="109" y="624" type="line"/>
      <point x="112" y="625"/>
      <point x="123" y="630"/>
      <point x="140" y="637" type="curve"/>
      <point x="145" y="638"/>
      <point x="157" y="643"/>
      <point x="170" y="649" type="curve"/>
      <point x="116" y="349" type="line" smooth="yes"/>
      <point x="110" y="319"/>
      <point x="105" y="311"/>
      <point x="85" y="308" type="curve" smooth="yes"/>
      <point x="36" y="302" type="line"/>
      <point x="31" y="278" type="line"/>
      <point x="83" y="279" type="line"/>
      <point x="93" y="280"/>
      <point x="132" y="280"/>
      <point x="141" y="280" type="curve" smooth="yes"/>
      <point x="150" y="280"/>
      <point x="189" y="280"/>
      <point x="199" y="279" type="curve"/>
      <point x="251" y="278" type="line"/>
      <point x="255" y="302" type="line"/>
      <point x="213" y="305" type="line" smooth="yes"/>
      <point x="183" y="307"/>
      <point x="175" y="313"/>
      <point x="175" y="333" type="curve" smooth="yes"/>
      <point x="175" y="338"/>
      <point x="176" y="348"/>
      <point x="177" y="353" type="curve" smooth="yes"/>
      <point x="229" y="633" type="line" smooth="yes"/>
      <point x="231" y="646"/>
      <point x="236" y="665"/>
      <point x="239" y="679" type="curve"/>
    </contour>
    <contour>
      <point x="210" y="0" type="line"/>
      <point x="661" y="699" type="line"/>
      <point x="605" y="699" type="line"/>
      <point x="154" y="0" type="line"/>
    </contour>
  </outline>
</glyph>
<glyph name="onehalf" format="1">
  <advance width="750"/>
  <unicode hex="00BD"/>
  <outline>
    <contour>
      <point x="186" y="0" type="line"/>
      <point x="637" y="699" type="line"/>
      <point x="581" y="699" type="line"/>
      <point x="130" y="0" type="line"/>
    </contour>
    <contour>
      <point x="243" y="693" type="line"/>
      <point x="233" y="699" type="line"/>
      <point x="164" y="675" type="line" smooth="yes"/>
      <point x="129" y="663"/>
      <point x="109" y="657"/>
      <point x="57" y="646" type="curve"/>
      <point x="50" y="603" type="line"/>
      <point x="55" y="600" type="line"/>
      <point x="109" y="624" type="line"/>
      <point x="112" y="625"/>
      <point x="123" y="630"/>
      <point x="140" y="637" type="curve"/>
      <point x="145" y="638"/>
      <point x="157" y="643"/>
      <point x="170" y="649" type="curve"/>
      <point x="116" y="349" type="line" smooth="yes"/>
      <point x="110" y="319"/>
      <point x="105" y="311"/>
      <point x="85" y="308" type="curve" smooth="yes"/>
      <point x="36" y="302" type="line"/>
      <point x="31" y="278" type="line"/>
      <point x="83" y="279" type="line"/>
      <point x="93" y="280"/>
      <point x="132" y="280"/>
      <point x="141" y="280" type="curve" smooth="yes"/>
      <point x="150" y="280"/>
      <point x="189" y="280"/>
      <point x="199" y="279" type="curve"/>
      <point x="251" y="278" type="line"/>
      <point x="255" y="302" type="line"/>
      <point x="213" y="305" type="line" smooth="yes"/>
      <point x="183" y="307"/>
      <point x="175" y="313"/>
      <point x="175" y="333" type="curve" smooth="yes"/>
      <point x="175" y="338"/>
      <point x="176" y="348"/>
      <point x="177" y="353" type="curve" smooth="yes"/>
      <point x="229" y="633" type="line" smooth="yes"/>
      <point x="231" y="646"/>
      <point x="236" y="665"/>
      <point x="239" y="679" type="curve"/>
    </contour>
    <contour>
      <point x="486" y="321" type="line"/>
      <point x="504" y="311" type="line"/>
      <point x="533" y="358"/>
      <point x="553" y="372"/>
      <point x="593" y="372" type="curve" smooth="yes"/>
      <point x="635" y="372"/>
      <point x="657" y="351"/>
      <point x="657" y="313" type="curve" smooth="yes"/>
      <point x="657" y="248"/>
      <point x="610" y="182"/>
      <point x="444" y="19" type="curve"/>
      <point x="444" y="-2" type="line"/>
      <point x="470" y="-2" type="line" smooth="yes"/>
      <point x="472" y="-2"/>
      <point x="485" y="-2"/>
      <point x="506" y="-1" type="curve" smooth="yes"/>
      <point x="517" y="0"/>
      <point x="554" y="0"/>
      <point x="576" y="0" type="curve" smooth="yes"/>
      <point x="598" y="0"/>
      <point x="634" y="0"/>
      <point x="644" y="-1" type="curve"/>
      <point x="665" y="-2"/>
      <point x="678" y="-2"/>
      <point x="680" y="-2" type="curve" smooth="yes"/>
      <point x="706" y="-2" type="line"/>
      <point x="717" y="39" type="line"/>
      <point x="713" y="50" type="line"/>
      <point x="687" y="44"/>
      <point x="666" y="41"/>
      <point x="639" y="41" type="curve" smooth="yes"/>
      <point x="503" y="41" type="line"/>
      <point x="663" y="199" type="line" smooth="yes"/>
      <point x="700" y="236"/>
      <point x="721" y="280"/>
      <point x="721" y="321" type="curve" smooth="yes"/>
      <point x="721" y="381"/>
      <point x="678" y="419"/>
      <point x="611" y="419" type="curve" smooth="yes"/>
      <point x="578" y="419"/>
      <point x="553" y="412"/>
      <point x="525" y="393" type="curve"/>
    </contour>
  </outline>
</glyph>
<glyph name="threequarters" format="1">
  <advance width="750"/>
  <unicode hex="00BE"/>
  <outline>
    <contour>
      <point x="35" y="299" type="line"/>
      <point x="65" y="280"/>
      <point x="92" y="273"/>
      <point x="130" y="273" type="curve" smooth="yes"/>
      <point x="230" y="273"/>
      <point x="311" y="339"/>
      <point x="311" y="421" type="curve" smooth="yes"/>
      <point x="311" y="474"/>
      <point x="283" y="500"/>
      <point x="210" y="515" type="curve"/>
      <point x="279" y="547"/>
      <point x="306" y="577"/>
      <point x="306" y="621" type="curve" smooth="yes"/>
      <point x="306" y="667"/>
      <point x="265" y="699"/>
      <point x="207" y="699" type="curve" smooth="yes"/>
      <point x="183" y="699"/>
      <point x="164" y="694"/>
      <point x="131" y="680" type="curve"/>
      <point x="93" y="617" type="line"/>
      <point x="108" y="607" type="line"/>
      <point x="121" y="624" type="line" smooth="yes"/>
      <point x="139" y="647"/>
      <point x="159" y="658"/>
      <point x="185" y="658" type="curve" smooth="yes"/>
      <point x="221" y="658"/>
      <point x="248" y="637"/>
      <point x="248" y="610" type="curve" smooth="yes"/>
      <point x="248" y="561"/>
      <point x="207" y="523"/>
      <point x="154" y="523" type="curve" smooth="yes"/>
      <point x="152" y="523"/>
      <point x="147" y="523"/>
      <point x="140" y="524" type="curve"/>
      <point x="124" y="524" type="line"/>
      <point x="113" y="494" type="line"/>
      <point x="117" y="481" type="line"/>
      <point x="140" y="489"/>
      <point x="151" y="491"/>
      <point x="166" y="491" type="curve" smooth="yes"/>
      <point x="219" y="491"/>
      <point x="249" y="464"/>
      <point x="249" y="417" type="curve" smooth="yes"/>
      <point x="249" y="353"/>
      <point x="203" y="299"/>
      <point x="149" y="299" type="curve" smooth="yes"/>
      <point x="100" y="299"/>
      <point x="72" y="320"/>
      <point x="72" y="357" type="curve" smooth="yes"/>
      <point x="72" y="365"/>
      <point x="73" y="374"/>
      <point x="75" y="383" type="curve"/>
      <point x="53" y="386" type="line"/>
    </contour>
    <contour>
      <point x="210" y="0" type="line"/>
      <point x="661" y="699" type="line"/>
      <point x="605" y="699" type="line"/>
      <point x="154" y="0" type="line"/>
    </contour>
    <contour>
      <point x="410" y="138" type="line"/>
      <point x="410" y="113" type="line"/>
      <point x="575" y="113" type="line"/>
      <point x="562" y="62" type="line" smooth="yes"/>
      <point x="555" y="35"/>
      <point x="547" y="26"/>
      <point x="526" y="25" type="curve" smooth="yes"/>
      <point x="475" y="22" type="line"/>
      <point x="472" y="-2" type="line"/>
      <point x="494" y="-2" type="line" smooth="yes"/>
      <point x="495" y="-2"/>
      <point x="507" y="-2"/>
      <point x="524" y="-1" type="curve"/>
      <point x="532" y="0"/>
      <point x="562" y="0"/>
      <point x="580" y="0" type="curve" smooth="yes"/>
      <point x="598" y="0"/>
      <point x="627" y="0"/>
      <point x="636" y="-1" type="curve"/>
      <point x="653" y="-2"/>
      <point x="664" y="-2"/>
      <point x="665" y="-2" type="curve" smooth="yes"/>
      <point x="687" y="-2" type="line"/>
      <point x="691" y="22" type="line"/>
      <point x="637" y="25" type="line" smooth="yes"/>
      <point x="623" y="26"/>
      <point x="616" y="34"/>
      <point x="616" y="50" type="curve" smooth="yes"/>
      <point x="616" y="60"/>
      <point x="618" y="77"/>
      <point x="620" y="85" type="curve" smooth="yes"/>
      <point x="627" y="113" type="line"/>
      <point x="670" y="113" type="line" smooth="yes"/>
      <point x="680" y="113"/>
      <point x="690" y="112"/>
      <point x="704" y="110" type="curve"/>
      <point x="715" y="142" type="line"/>
      <point x="712" y="150" type="line"/>
      <point x="636" y="150" type="line"/>
      <point x="683" y="416" type="line"/>
      <point x="674" y="423" type="line"/>
      <point x="629" y="414" type="line"/>
    </contour>
    <contour>
      <point x="447" y="150" type="line"/>
      <point x="632" y="386" type="line"/>
      <point x="584" y="150" type="line"/>
    </contour>
  </outline>
</glyph>
<glyph name="questiondown" format="1">
  <advance width="500"/>
  <unicode hex="00BF"/>
  <outline>
    <contour>
      <point x="347" y="-105" type="line"/>
      <point x="327" y="-135" type="line" smooth="yes"/>
      <point x="301" y="-174"/>
      <point x="279" y="-187"/>
      <point x="238" y="-187" type="curve" smooth="yes"/>
      <point x="181" y="-187"/>
      <point x="139" y="-151"/>
      <point x="139" y="-102" type="curve" smooth="yes"/>
      <point x="139" y="-67"/>
      <point x="157" y="-30"/>
      <point x="196" y="14" type="curve" smooth="yes"/>
      <point x="266" y="93" type="line" smooth="yes"/>
      <point x="305" y="137"/>
      <point x="321" y="170"/>
      <point x="321" y="204" type="curve" smooth="yes"/>
      <point x="321" y="230"/>
      <point x="308" y="250"/>
      <point x="283" y="267" type="curve"/>
      <point x="258" y="261" type="line"/>
      <point x="278" y="241"/>
      <point x="285" y="227"/>
      <point x="285" y="210" type="curve" smooth="yes"/>
      <point x="285" y="188"/>
      <point x="273" y="169"/>
      <point x="235" y="133" type="curve" smooth="yes"/>
      <point x="131" y="33" type="line" smooth="yes"/>
      <point x="79" y="-17"/>
      <point x="57" y="-60"/>
      <point x="57" y="-112" type="curve" smooth="yes"/>
      <point x="57" y="-192"/>
      <point x="120" y="-246"/>
      <point x="214" y="-246" type="curve" smooth="yes"/>
      <point x="254" y="-246"/>
      <point x="285" y="-236"/>
      <point x="329" y="-209" type="curve"/>
      <point x="355" y="-145" type="line"/>
      <point x="356" y="-144"/>
      <point x="357" y="-141"/>
      <point x="359" y="-137" type="curve"/>
      <point x="363" y="-127"/>
      <point x="367" y="-118"/>
      <point x="369" y="-111" type="curve"/>
    </contour>
    <contour>
      <point x="325" y="467" type="curve" smooth="yes"/>
      <point x="292" y="467"/>
      <point x="265" y="435"/>
      <point x="265" y="397" type="curve" smooth="yes"/>
      <point x="265" y="368"/>
      <point x="282" y="350"/>
      <point x="309" y="350" type="curve" smooth="yes"/>
      <point x="343" y="350"/>
      <point x="370" y="381"/>
      <point x="370" y="419" type="curve" smooth="yes"/>
      <point x="370" y="446"/>
      <point x="350" y="467"/>
    </contour>
  </outline>
</glyph>
<glyph name="Aacute" format="1">
  <advance width="722"/>
  <unicode hex="00C1"/>
  <outline>
    <contour>
      <point x="462" y="705" type="line"/>
      <point x="89" y="112" type="line" smooth="yes"/>
      <point x="53" y="56"/>
      <point x="35" y="40"/>
      <point x="1" y="32" type="curve" smooth="yes"/>
      <point x="-19" y="27" type="line"/>
      <point x="-19" y="-3" type="line"/>
      <point x="73" y="0"/>
      <point x="73" y="0"/>
      <point x="93" y="0" type="curve" smooth="yes"/>
      <point x="112" y="0"/>
      <point x="114" y="0"/>
      <point x="200" y="-3" type="curve"/>
      <point x="200" y="25" type="line"/>
      <point x="148" y="28" type="line" smooth="yes"/>
      <point x="132" y="29"/>
      <point x="117" y="38"/>
      <point x="117" y="47" type="curve" smooth="yes"/>
      <point x="117" y="55"/>
      <point x="124" y="69"/>
      <point x="143" y="102" type="curve" smooth="yes"/>
      <point x="245" y="277" type="line"/>
      <point x="491" y="277" type="line"/>
      <point x="516" y="89" type="line"/>
      <point x="516" y="86" type="line" smooth="yes"/>
      <point x="516" y="85"/>
      <point x="517" y="82"/>
      <point x="518" y="77" type="curve"/>
      <point x="519" y="69"/>
      <point x="520" y="59"/>
      <point x="520" y="55" type="curve" smooth="yes"/>
      <point x="520" y="39"/>
      <point x="505" y="30"/>
      <point x="477" y="28" type="curve" smooth="yes"/>
      <point x="433" y="25" type="line"/>
      <point x="433" y="-3" type="line"/>
      <point x="535" y="0"/>
      <point x="535" y="0"/>
      <point x="555" y="0" type="curve" smooth="yes"/>
      <point x="575" y="0"/>
      <point x="575" y="0"/>
      <point x="677" y="-3" type="curve"/>
      <point x="677" y="25" type="line"/>
      <point x="651" y="28" type="line" smooth="yes"/>
      <point x="604" y="35"/>
      <point x="603" y="35"/>
      <point x="595" y="80" type="curve" smooth="yes"/>
      <point x="508" y="705" type="line"/>
    </contour>
    <contour>
      <point x="449" y="601" type="line"/>
      <point x="486" y="313" type="line"/>
      <point x="270" y="313" type="line"/>
    </contour>
    <contour>
      <point x="393" y="728" type="line"/>
      <point x="427" y="728" type="line"/>
      <point x="589" y="829" type="line" smooth="yes"/>
      <point x="610" y="842"/>
      <point x="617" y="851"/>
      <point x="617" y="866" type="curve" smooth="yes"/>
      <point x="617" y="882"/>
      <point x="599" y="897"/>
      <point x="579" y="897" type="curve" smooth="yes"/>
      <point x="569" y="897"/>
      <point x="558" y="891"/>
      <point x="546" y="879" type="curve" smooth="yes"/>
    </contour>
  </outline>
</glyph>
<glyph name="Acircumflex" format="1">
  <advance width="722"/>
  <unicode hex="00C2"/>
  <outline>
    <contour>
      <point x="462" y="705" type="line"/>
      <point x="89" y="112" type="line" smooth="yes"/>
      <point x="53" y="56"/>
      <point x="35" y="40"/>
      <point x="1" y="32" type="curve" smooth="yes"/>
      <point x="-19" y="27" type="line"/>
      <point x="-19" y="-3" type="line"/>
      <point x="73" y="0"/>
      <point x="73" y="0"/>
      <point x="93" y="0" type="curve" smooth="yes"/>
      <point x="112" y="0"/>
      <point x="114" y="0"/>
      <point x="200" y="-3" type="curve"/>
      <point x="200" y="25" type="line"/>
      <point x="148" y="28" type="line" smooth="yes"/>
      <point x="132" y="29"/>
      <point x="117" y="38"/>
      <point x="117" y="47" type="curve" smooth="yes"/>
      <point x="117" y="55"/>
      <point x="124" y="69"/>
      <point x="143" y="102" type="curve" smooth="yes"/>
      <point x="245" y="277" type="line"/>
      <point x="491" y="277" type="line"/>
      <point x="516" y="89" type="line"/>
      <point x="516" y="86" type="line" smooth="yes"/>
      <point x="516" y="85"/>
      <point x="517" y="82"/>
      <point x="518" y="77" type="curve"/>
      <point x="519" y="69"/>
      <point x="520" y="59"/>
      <point x="520" y="55" type="curve" smooth="yes"/>
      <point x="520" y="39"/>
      <point x="505" y="30"/>
      <point x="477" y="28" type="curve" smooth="yes"/>
      <point x="433" y="25" type="line"/>
      <point x="433" y="-3" type="line"/>
      <point x="535" y="0"/>
      <point x="535" y="0"/>
      <point x="555" y="0" type="curve" smooth="yes"/>
      <point x="575" y="0"/>
      <point x="575" y="0"/>
      <point x="677" y="-3" type="curve"/>
      <point x="677" y="25" type="line"/>
      <point x="651" y="28" type="line" smooth="yes"/>
      <point x="604" y="35"/>
      <point x="603" y="35"/>
      <point x="595" y="80" type="curve" smooth="yes"/>
      <point x="508" y="705" type="line"/>
    </contour>
    <contour>
      <point x="449" y="601" type="line"/>
      <point x="486" y="313" type="line"/>
      <point x="270" y="313" type="line"/>
    </contour>
    <contour>
      <point x="542" y="889" type="line"/>
      <point x="493" y="889" type="line"/>
      <point x="336" y="720" type="line"/>
      <point x="375" y="720" type="line"/>
      <point x="512" y="824" type="line"/>
      <point x="594" y="720" type="line"/>
      <point x="630" y="720" type="line"/>
    </contour>
  </outline>
</glyph>
<glyph name="Atilde" format="1">
  <advance width="722"/>
  <unicode hex="00C3"/>
  <outline>
    <contour>
      <point x="462" y="705" type="line"/>
      <point x="89" y="112" type="line" smooth="yes"/>
      <point x="53" y="56"/>
      <point x="35" y="40"/>
      <point x="1" y="32" type="curve" smooth="yes"/>
      <point x="-19" y="27" type="line"/>
      <point x="-19" y="-3" type="line"/>
      <point x="73" y="0"/>
      <point x="73" y="0"/>
      <point x="93" y="0" type="curve" smooth="yes"/>
      <point x="112" y="0"/>
      <point x="114" y="0"/>
      <point x="200" y="-3" type="curve"/>
      <point x="200" y="25" type="line"/>
      <point x="148" y="28" type="line" smooth="yes"/>
      <point x="132" y="29"/>
      <point x="117" y="38"/>
      <point x="117" y="47" type="curve" smooth="yes"/>
      <point x="117" y="55"/>
      <point x="124" y="69"/>
      <point x="143" y="102" type="curve" smooth="yes"/>
      <point x="245" y="277" type="line"/>
      <point x="491" y="277" type="line"/>
      <point x="516" y="89" type="line"/>
      <point x="516" y="86" type="line" smooth="yes"/>
      <point x="516" y="85"/>
      <point x="517" y="82"/>
      <point x="518" y="77" type="curve"/>
      <point x="519" y="69"/>
      <point x="520" y="59"/>
      <point x="520" y="55" type="curve" smooth="yes"/>
      <point x="520" y="39"/>
      <point x="505" y="30"/>
      <point x="477" y="28" type="curve" smooth="yes"/>
      <point x="433" y="25" type="line"/>
      <point x="433" y="-3" type="line"/>
      <point x="535" y="0"/>
      <point x="535" y="0"/>
      <point x="555" y="0" type="curve" smooth="yes"/>
      <point x="575" y="0"/>
      <point x="575" y="0"/>
      <point x="677" y="-3" type="curve"/>
      <point x="677" y="25" type="line"/>
      <point x="651" y="28" type="line" smooth="yes"/>
      <point x="604" y="35"/>
      <point x="603" y="35"/>
      <point x="595" y="80" type="curve" smooth="yes"/>
      <point x="508" y="705" type="line"/>
    </contour>
    <contour>
      <point x="449" y="601" type="line"/>
      <point x="486" y="313" type="line"/>
      <point x="270" y="313" type="line"/>
    </contour>
    <contour>
      <point x="352" y="763" type="line"/>
      <point x="367" y="797"/>
      <point x="379" y="807"/>
      <point x="404" y="807" type="curve" smooth="yes"/>
      <point x="415" y="807"/>
      <point x="425" y="805"/>
      <point x="442" y="798" type="curve"/>
      <point x="445" y="796"/>
      <point x="448" y="795"/>
      <point x="449" y="795" type="curve"/>
      <point x="451" y="794" type="line"/>
      <point x="489" y="779" type="line" smooth="yes"/>
      <point x="512" y="770"/>
      <point x="540" y="763"/>
      <point x="553" y="763" type="curve" smooth="yes"/>
      <point x="602" y="763"/>
      <point x="638" y="801"/>
      <point x="650" y="866" type="curve"/>
      <point x="622" y="866" type="line"/>
      <point x="602" y="832"/>
      <point x="591" y="823"/>
      <point x="571" y="823" type="curve" smooth="yes"/>
      <point x="562" y="823"/>
      <point x="551" y="825"/>
      <point x="544" y="828" type="curve" smooth="yes"/>
      <point x="484" y="852" type="line" smooth="yes"/>
      <point x="461" y="861"/>
      <point x="440" y="866"/>
      <point x="421" y="866" type="curve" smooth="yes"/>
      <point x="372" y="866"/>
      <point x="343" y="836"/>
      <point x="323" y="763" type="curve"/>
    </contour>
  </outline>
</glyph>
<glyph name="Aring" format="1">
  <advance width="722"/>
  <unicode hex="00C5"/>
  <outline>
    <contour>
      <point x="462" y="705" type="line"/>
      <point x="89" y="112" type="line" smooth="yes"/>
      <point x="53" y="56"/>
      <point x="35" y="40"/>
      <point x="1" y="32" type="curve" smooth="yes"/>
      <point x="-19" y="27" type="line"/>
      <point x="-19" y="-3" type="line"/>
      <point x="73" y="0"/>
      <point x="73" y="0"/>
      <point x="93" y="0" type="curve" smooth="yes"/>
      <point x="112" y="0"/>
      <point x="114" y="0"/>
      <point x="200" y="-3" type="curve"/>
      <point x="200" y="25" type="line"/>
      <point x="148" y="28" type="line" smooth="yes"/>
      <point x="132" y="29"/>
      <point x="117" y="38"/>
      <point x="117" y="47" type="curve" smooth="yes"/>
      <point x="117" y="55"/>
      <point x="124" y="69"/>
      <point x="143" y="102" type="curve" smooth="yes"/>
      <point x="245" y="277" type="line"/>
      <point x="491" y="277" type="line"/>
      <point x="516" y="89" type="line"/>
      <point x="516" y="86" type="line" smooth="yes"/>
      <point x="516" y="85"/>
      <point x="517" y="82"/>
      <point x="518" y="77" type="curve"/>
      <point x="519" y="69"/>
      <point x="520" y="59"/>
      <point x="520" y="55" type="curve" smooth="yes"/>
      <point x="520" y="39"/>
      <point x="505" y="30"/>
      <point x="477" y="28" type="curve" smooth="yes"/>
      <point x="433" y="25" type="line"/>
      <point x="433" y="-3" type="line"/>
      <point x="535" y="0"/>
      <point x="535" y="0"/>
      <point x="555" y="0" type="curve" smooth="yes"/>
      <point x="575" y="0"/>
      <point x="575" y="0"/>
      <point x="677" y="-3" type="curve"/>
      <point x="677" y="25" type="line"/>
      <point x="651" y="28" type="line" smooth="yes"/>
      <point x="604" y="35"/>
      <point x="603" y="35"/>
      <point x="595" y="80" type="curve" smooth="yes"/>
      <point x="508" y="705" type="line"/>
    </contour>
    <contour>
      <point x="449" y="601" type="line"/>
      <point x="486" y="313" type="line"/>
      <point x="270" y="313" type="line"/>
    </contour>
    <contour>
      <point x="495" y="937" type="curve" smooth="yes"/>
      <point x="439" y="937"/>
      <point x="394" y="893"/>
      <point x="394" y="837" type="curve" smooth="yes"/>
      <point x="394" y="781"/>
      <point x="438" y="737"/>
      <point x="494" y="737" type="curve" smooth="yes"/>
      <point x="549" y="737"/>
      <point x="594" y="781"/>
      <point x="594" y="837" type="curve" smooth="yes"/>
      <point x="594" y="892"/>
      <point x="549" y="937"/>
    </contour>
    <contour>
      <point x="494" y="901" type="curve" smooth="yes"/>
      <point x="531" y="901"/>
      <point x="556" y="875"/>
      <point x="556" y="837" type="curve" smooth="yes"/>
      <point x="556" y="799"/>
      <point x="531" y="773"/>
      <point x="494" y="773" type="curve" smooth="yes"/>
      <point x="457" y="773"/>
      <point x="432" y="799"/>
      <point x="432" y="837" type="curve" smooth="yes"/>
      <point x="432" y="875"/>
      <point x="457" y="901"/>
    </contour>
  </outline>
</glyph>
<glyph name="AE" format="1">
  <advance width="941"/>
  <unicode hex="00C6"/>
  <outline>
    <contour>
      <point x="486" y="279" type="line"/>
      <point x="448" y="66" type="line" smooth="yes"/>
      <point x="442" y="38"/>
      <point x="431" y="30"/>
      <point x="389" y="23" type="curve"/>
      <point x="384" y="-3" type="line"/>
      <point x="425" y="-2" type="line" smooth="yes"/>
      <point x="468" y="-1"/>
      <point x="502" y="0"/>
      <point x="532" y="0" type="curve" smooth="yes"/>
      <point x="548" y="0"/>
      <point x="567" y="0"/>
      <point x="588" y="-1" type="curve" smooth="yes"/>
      <point x="702" y="-2"/>
      <point x="734" y="-3"/>
      <point x="742" y="-3" type="curve" smooth="yes"/>
      <point x="756" y="-3"/>
      <point x="778" y="-2"/>
      <point x="813" y="-1" type="curve" smooth="yes"/>
      <point x="846" y="0" type="line"/>
      <point x="850" y="36" type="line" smooth="yes"/>
      <point x="852" y="56"/>
      <point x="857" y="86"/>
      <point x="866" y="135" type="curve" smooth="yes"/>
      <point x="871" y="161" type="line"/>
      <point x="844" y="161" type="line"/>
      <point x="828" y="101" type="line" smooth="yes"/>
      <point x="818" y="65"/>
      <point x="809" y="53"/>
      <point x="787" y="48" type="curve" smooth="yes"/>
      <point x="771" y="44"/>
      <point x="685" y="39"/>
      <point x="640" y="39" type="curve" smooth="yes"/>
      <point x="620" y="39"/>
      <point x="588" y="41"/>
      <point x="554" y="44" type="curve" smooth="yes"/>
      <point x="528" y="46" type="line"/>
      <point x="528" y="50" type="line" smooth="yes"/>
      <point x="528" y="64"/>
      <point x="529" y="72"/>
      <point x="530" y="81" type="curve"/>
      <point x="573" y="334" type="line"/>
      <point x="670" y="334" type="line" smooth="yes"/>
      <point x="697" y="334"/>
      <point x="728" y="333"/>
      <point x="776" y="331" type="curve" smooth="yes"/>
      <point x="802" y="330" type="line"/>
      <point x="821" y="375" type="line"/>
      <point x="817" y="382" type="line"/>
      <point x="736" y="378"/>
      <point x="676" y="376"/>
      <point x="598" y="376" type="curve" smooth="yes"/>
      <point x="581" y="376" type="line"/>
      <point x="623" y="614" type="line" smooth="yes"/>
      <point x="626" y="630"/>
      <point x="628" y="638"/>
      <point x="632" y="646" type="curve"/>
      <point x="655" y="647"/>
      <point x="672" y="648"/>
      <point x="679" y="648" type="curve" smooth="yes"/>
      <point x="710" y="649"/>
      <point x="738" y="650"/>
      <point x="755" y="650" type="curve" smooth="yes"/>
      <point x="809" y="650"/>
      <point x="848" y="640"/>
      <point x="849" y="626" type="curve" smooth="yes"/>
      <point x="857" y="537" type="line"/>
      <point x="881" y="537" type="line"/>
      <point x="884" y="601"/>
      <point x="891" y="651"/>
      <point x="902" y="689" type="curve"/>
      <point x="881" y="691"/>
      <point x="851" y="692"/>
      <point x="833" y="692" type="curve" smooth="yes"/>
      <point x="830" y="692"/>
      <point x="819" y="692"/>
      <point x="795" y="691" type="curve" smooth="yes"/>
      <point x="675" y="690" type="line"/>
      <point x="662" y="689"/>
      <point x="605" y="689"/>
      <point x="587" y="689" type="curve" smooth="yes"/>
      <point x="531" y="689"/>
      <point x="489" y="689"/>
      <point x="404" y="691" type="curve" smooth="yes"/>
      <point x="344" y="692" type="line"/>
      <point x="344" y="662" type="line"/>
      <point x="410" y="662" type="line" smooth="yes"/>
      <point x="429" y="662"/>
      <point x="447" y="653"/>
      <point x="447" y="643" type="curve" smooth="yes"/>
      <point x="447" y="634"/>
      <point x="441" y="618"/>
      <point x="434" y="607" type="curve" smooth="yes"/>
      <point x="66" y="62" type="line" smooth="yes"/>
      <point x="54" y="44"/>
      <point x="41" y="33"/>
      <point x="30" y="32" type="curve"/>
      <point x="-4" y="27" type="line"/>
      <point x="-4" y="-3" type="line"/>
      <point x="44" y="-2" type="line" smooth="yes"/>
      <point x="80" y="0"/>
      <point x="100" y="0"/>
      <point x="114" y="0" type="curve" smooth="yes"/>
      <point x="145" y="0" type="line"/>
      <point x="221" y="-3" type="line"/>
      <point x="221" y="27" type="line"/>
      <point x="197" y="27" type="line" smooth="yes"/>
      <point x="156" y="27"/>
      <point x="136" y="36"/>
      <point x="136" y="54" type="curve" smooth="yes"/>
      <point x="136" y="62"/>
      <point x="140" y="72"/>
      <point x="152" y="91" type="curve"/>
      <point x="154" y="95"/>
      <point x="155" y="97"/>
      <point x="156" y="98" type="curve"/>
      <point x="232" y="227" type="line"/>
      <point x="246" y="249" type="line"/>
      <point x="264" y="279" type="line"/>
    </contour>
    <contour>
      <point x="290" y="319" type="line"/>
      <point x="495" y="620" type="line" smooth="yes"/>
      <point x="513" y="647"/>
      <point x="522" y="655"/>
      <point x="532" y="655" type="curve" smooth="yes"/>
      <point x="546" y="655" type="line"/>
      <point x="492" y="319" type="line"/>
    </contour>
  </outline>
</glyph>
<glyph name="Ccedilla" format="1">
  <advance width="667"/>
  <unicode hex="00C7"/>
  <outline>
    <contour>
      <point x="335" y="-18" type="line"/>
      <point x="338" y="-18" type="line"/>
      <point x="343" y="-18" type="line" smooth="yes"/>
      <point x="439" y="-18"/>
      <point x="509" y="5"/>
      <point x="600" y="67" type="curve"/>
      <point x="610" y="103" type="line"/>
      <point x="600" y="110" type="line"/>
      <point x="506" y="53"/>
      <point x="454" y="35"/>
      <point x="376" y="35" type="curve" smooth="yes"/>
      <point x="219" y="35"/>
      <point x="133" y="131"/>
      <point x="133" y="309" type="curve" smooth="yes"/>
      <point x="133" y="420"/>
      <point x="167" y="519"/>
      <point x="228" y="581" type="curve" smooth="yes"/>
      <point x="275" y="629"/>
      <point x="339" y="653"/>
      <point x="418" y="653" type="curve" smooth="yes"/>
      <point x="489" y="653"/>
      <point x="541" y="639"/>
      <point x="597" y="603" type="curve"/>
      <point x="597" y="519" type="line"/>
      <point x="624" y="519" type="line"/>
      <point x="629" y="576"/>
      <point x="637" y="619"/>
      <point x="651" y="665" type="curve"/>
      <point x="575" y="694"/>
      <point x="518" y="706"/>
      <point x="456" y="706" type="curve" smooth="yes"/>
      <point x="374" y="706"/>
      <point x="292" y="681"/>
      <point x="222" y="634" type="curve" smooth="yes"/>
      <point x="105" y="555"/>
      <point x="45" y="437"/>
      <point x="45" y="284" type="curve" smooth="yes"/>
      <point x="45" y="107"/>
      <point x="134" y="1"/>
      <point x="296" y="-15" type="curve"/>
      <point x="299" y="-16" type="line"/>
      <point x="248" y="-96" type="line"/>
      <point x="257" y="-104" type="line"/>
      <point x="274" y="-99"/>
      <point x="282" y="-98"/>
      <point x="290" y="-98" type="curve" smooth="yes"/>
      <point x="318" y="-98"/>
      <point x="337" y="-114"/>
      <point x="337" y="-136" type="curve" smooth="yes"/>
      <point x="337" y="-162"/>
      <point x="315" y="-181"/>
      <point x="284" y="-181" type="curve" smooth="yes"/>
      <point x="265" y="-181"/>
      <point x="250" y="-178"/>
      <point x="215" y="-167" type="curve"/>
      <point x="198" y="-196" type="line"/>
      <point x="240" y="-212"/>
      <point x="259" y="-216"/>
      <point x="286" y="-216" type="curve" smooth="yes"/>
      <point x="361" y="-216"/>
      <point x="409" y="-183"/>
      <point x="409" y="-132" type="curve" smooth="yes"/>
      <point x="409" y="-89"/>
      <point x="377" y="-62"/>
      <point x="327" y="-62" type="curve" smooth="yes"/>
      <point x="321" y="-62"/>
      <point x="310" y="-63"/>
      <point x="303" y="-64" type="curve"/>
    </contour>
  </outline>
</glyph>
<glyph name="Edieresis" format="1">
  <advance width="611"/>
  <unicode hex="00CB"/>
  <outline>
    <contour>
      <point x="221" y="334" type="line"/>
      <point x="338" y="334" type="line" smooth="yes"/>
      <point x="365" y="334"/>
      <point x="396" y="333"/>
      <point x="444" y="331" type="curve" smooth="yes"/>
      <point x="470" y="330" type="line"/>
      <point x="489" y="375" type="line"/>
      <point x="485" y="382" type="line"/>
      <point x="404" y="378"/>
      <point x="344" y="376"/>
      <point x="266" y="376" type="curve" smooth="yes"/>
      <point x="229" y="376" type="line"/>
      <point x="271" y="614" type="line" smooth="yes"/>
      <point x="274" y="630"/>
      <point x="276" y="638"/>
      <point x="280" y="646" type="curve"/>
      <point x="327" y="648" type="line" smooth="yes"/>
      <point x="359" y="649"/>
      <point x="391" y="650"/>
      <point x="413" y="650" type="curve" smooth="yes"/>
      <point x="475" y="650"/>
      <point x="516" y="641"/>
      <point x="517" y="626" type="curve" smooth="yes"/>
      <point x="525" y="537" type="line"/>
      <point x="549" y="537" type="line"/>
      <point x="552" y="601"/>
      <point x="559" y="651"/>
      <point x="570" y="689" type="curve"/>
      <point x="549" y="691"/>
      <point x="519" y="692"/>
      <point x="501" y="692" type="curve" smooth="yes"/>
      <point x="498" y="692"/>
      <point x="487" y="692"/>
      <point x="463" y="691" type="curve" smooth="yes"/>
      <point x="343" y="690" type="line"/>
      <point x="334" y="689"/>
      <point x="275" y="689"/>
      <point x="265" y="689" type="curve" smooth="yes"/>
      <point x="228" y="689"/>
      <point x="201" y="689"/>
      <point x="150" y="691" type="curve" smooth="yes"/>
      <point x="105" y="692" type="line"/>
      <point x="102" y="664" type="line"/>
      <point x="156" y="662" type="line" smooth="yes"/>
      <point x="180" y="661"/>
      <point x="191" y="653"/>
      <point x="191" y="635" type="curve" smooth="yes"/>
      <point x="191" y="621"/>
      <point x="187" y="589"/>
      <point x="182" y="559" type="curve" smooth="yes"/>
      <point x="95" y="55" type="line" smooth="yes"/>
      <point x="91" y="37"/>
      <point x="79" y="30"/>
      <point x="35" y="23" type="curve"/>
      <point x="30" y="-3" type="line"/>
      <point x="71" y="-2" type="line" smooth="yes"/>
      <point x="102" y="-1"/>
      <point x="164" y="0"/>
      <point x="184" y="0" type="curve" smooth="yes"/>
      <point x="399" y="-3" type="line"/>
      <point x="409" y="-3" type="line" smooth="yes"/>
      <point x="423" y="-3"/>
      <point x="448" y="-2"/>
      <point x="481" y="-1" type="curve" smooth="yes"/>
      <point x="514" y="0" type="line"/>
      <point x="518" y="36" type="line" smooth="yes"/>
      <point x="520" y="56"/>
      <point x="525" y="86"/>
      <point x="534" y="135" type="curve" smooth="yes"/>
      <point x="539" y="161" type="line"/>
      <point x="512" y="161" type="line"/>
      <point x="496" y="101" type="line" smooth="yes"/>
      <point x="486" y="65"/>
      <point x="477" y="53"/>
      <point x="455" y="48" type="curve" smooth="yes"/>
      <point x="435" y="44"/>
      <point x="362" y="39"/>
      <point x="308" y="39" type="curve" smooth="yes"/>
      <point x="267" y="39"/>
      <point x="245" y="40"/>
      <point x="176" y="46" type="curve"/>
      <point x="176" y="50" type="line" smooth="yes"/>
      <point x="176" y="64"/>
      <point x="177" y="72"/>
      <point x="178" y="81" type="curve"/>
    </contour>
    <contour>
      <point x="270" y="847" type="curve" smooth="yes"/>
      <point x="244" y="847"/>
      <point x="220" y="824"/>
      <point x="220" y="798" type="curve" smooth="yes"/>
      <point x="220" y="772"/>
      <point x="244" y="747"/>
      <point x="270" y="747" type="curve" smooth="yes"/>
      <point x="296" y="747"/>
      <point x="320" y="772"/>
      <point x="320" y="798" type="curve" smooth="yes"/>
      <point x="320" y="823"/>
      <point x="296" y="847"/>
    </contour>
    <contour>
      <point x="470" y="847" type="curve" smooth="yes"/>
      <point x="444" y="847"/>
      <point x="420" y="824"/>
      <point x="420" y="798" type="curve" smooth="yes"/>
      <point x="420" y="772"/>
      <point x="444" y="747"/>
      <point x="470" y="747" type="curve" smooth="yes"/>
      <point x="496" y="747"/>
      <point x="520" y="772"/>
      <point x="520" y="798" type="curve" smooth="yes"/>
      <point x="520" y="823"/>
      <point x="496" y="847"/>
    </contour>
  </outline>
</glyph>
